<svg viewBox="0 0 12 8" fill="#fff" xmlns="http://www.w3.org/2000/svg"><path d="M11.893 6.684c-.032-.054-.232-.488-1.192-1.38-1.005-.932-.87-.78.34-2.394.738-.983 1.033-1.583.94-1.84-.087-.244-.63-.18-.63-.18L9.549.902s-.133-.018-.233.042c-.097.058-.159.193-.159.193s-.286.76-.667 1.407C7.686 3.908 7.364 3.98 7.233 3.895c-.305-.197-.229-.794-.229-1.217 0-1.322.2-1.873-.39-2.016C6.416.615 6.272.583 5.77.578 5.128.571 4.582.58 4.274.731c-.206.1-.364.325-.267.338.12.015.39.072.533.267.185.252.178.817.178.817s.107 1.557-.248 1.75c-.244.133-.578-.138-1.294-1.376a11.544 11.544 0 01-.644-1.335s-.054-.13-.149-.2C2.268.906 2.106.88 2.106.88L.39.89s-.257.008-.352.12c-.084.1-.007.305-.007.305s1.343 3.14 2.863 4.724c1.394 1.45 2.977 1.356 2.977 1.356h.717s.216-.024.327-.144c.102-.11.098-.315.098-.315S7 5.974 7.447 5.832c.44-.14 1.006.93 1.605 1.342.453.311.797.243.797.243l1.603-.022s.839-.052.441-.711z"/></svg>