<svg width="23" height="23" fill="none" xmlns="http://www.w3.org/2000/svg"><path d="M22.625 16.637l-4.515-5.165h2.181a.461.461 0 00.365-.742L17.03 5.966h1.845a.461.461 0 00.345-.765L14.787.156a.461.461 0 00-.692 0l-4.44 5.04a.461.461 0 00.345.77h1.868L10.75 7.423 7.763 4.025a.461.461 0 00-.692 0L3.276 8.336a.461.461 0 00.346.766h1.462l-3.035 3.97a.461.461 0 00.365.733H4.12L.37 18.117a.461.461 0 00.346.76h5.1v3.229c0 .493.4.894.894.894h1.407a.894.894 0 00.899-.89v-3.232h3.827v3.227c0 .494.4.895.895.895h1.406c.494 0 .895-.4.895-.895v-4.703h6.239a.461.461 0 00.346-.765zm-14.53 5.44l-1.356.028-.028-3.227h1.384v3.2zm4.75-4.122H1.73l3.772-4.302a.461.461 0 00-.355-.77H3.35l3.034-3.97a.461.461 0 00-.364-.743H4.636l2.767-3.149 2.767 3.14-1.946 2.573a.461.461 0 00.364.743h2.186L6.259 16.64a.461.461 0 00.346.766h6.24v.548zm2.273 4.114l-1.351.037-.028-4.704h1.383l-.004 4.667zm.027-5.59H7.62l4.514-5.164a.461.461 0 00-.346-.765H9.524l3.643-4.768a.461.461 0 00-.364-.738h-1.766l3.421-3.883 3.403 3.883h-1.78a.461.461 0 00-.364.742l3.62 4.764H17.09a.461.461 0 00-.346.765l4.515 5.165h-6.115z" fill="#2D383F"/></svg>