<svg width="108" height="31" fill="none" xmlns="http://www.w3.org/2000/svg"><g clip-path="url(#clip0)" fill="#fff"><path d="M11.17 19.698l2.676-2.809 3.043 2.81h5.217l-8.294-8.128-8.227 8.127h5.585z"/><path d="M18.829 6.655l-3.947 4.014 2.61 2.675 1.337-1.338 7.324 7.291c-1.672 4.448-5.953 7.625-11.003 7.625-6.488 0-11.739-5.25-11.739-11.739.034-6.488 5.284-11.738 11.773-11.738 5.752 0 10.568 4.18 11.538 9.631l3.545 3.746c.067-.535.1-1.103.1-1.638 0-4.047-1.572-7.86-4.448-10.736A15.078 15.078 0 0015.183 0c-4.08 0-7.859 1.572-10.735 4.448C1.572 7.324 0 11.103 0 15.184c0 4.08 1.572 7.859 4.448 10.735a15.078 15.078 0 0010.736 4.448c4.046 0 7.859-1.572 10.735-4.448 1.772-1.773 3.043-3.88 3.746-6.187.133-.401.234-.836.334-1.238l-3.077-3.244-8.093-8.595z"/></g><path d="M43.008 7.948h2.376l-1.296 6.516h4.008l-.384 1.884h-6.384l1.68-8.4zm7.324 0h2.376l-1.68 8.4h-2.376l1.68-8.4zm6.07 1.836l-.372 1.848h3.708l-.372 1.836H55.67l-.576 2.88h-2.376l1.68-8.4h6.576l-.372 1.836h-4.2zm7.664 0L63.79 11.2h3.732l-.348 1.776H63.43l-.3 1.536h4.404l-.384 1.836h-6.732l1.68-8.4h6.576l-.372 1.836h-4.236zm7.498.048h-2.58l.384-1.884h7.524l-.384 1.884H73.94l-1.308 6.516h-2.376l1.308-6.516zm8.952 6.684c-.848 0-1.588-.156-2.22-.468a3.494 3.494 0 01-1.452-1.308c-.336-.56-.504-1.2-.504-1.92 0-.96.22-1.824.66-2.592a4.736 4.736 0 011.86-1.8c.8-.432 1.708-.648 2.724-.648.848 0 1.584.156 2.208.468.632.312 1.116.748 1.452 1.308.344.56.516 1.2.516 1.92 0 .96-.224 1.824-.672 2.592a4.633 4.633 0 01-1.86 1.8c-.792.432-1.696.648-2.712.648zm.204-1.968c.528 0 .992-.132 1.392-.396.4-.264.708-.616.924-1.056.216-.448.324-.94.324-1.476 0-.568-.176-1.02-.528-1.356-.344-.344-.828-.516-1.452-.516-.528 0-.992.132-1.392.396-.4.264-.708.62-.924 1.068-.216.44-.324.928-.324 1.464 0 .568.172 1.024.516 1.368.352.336.84.504 1.464.504zm9.5 1.968c-.727 0-1.355-.12-1.883-.36-.529-.248-.933-.6-1.213-1.056-.28-.456-.42-.992-.42-1.608 0-.256.033-.552.097-.888l.936-4.656h2.376l-.924 4.62c-.048.24-.072.46-.072.66 0 .88.463 1.32 1.391 1.32.505 0 .9-.152 1.189-.456.296-.312.516-.82.66-1.524l.924-4.62h2.34l-.948 4.764c-.513 2.536-1.996 3.804-4.453 3.804zm13.994-5.892c0 .768-.204 1.432-.612 1.992-.408.552-.98.956-1.716 1.212l1.428 2.52h-2.484l-1.248-2.232h-1.2l-.444 2.232h-2.376l1.68-8.4h3.588c1.072 0 1.904.236 2.496.708.592.472.888 1.128.888 1.968zm-2.4.228c0-.344-.116-.6-.348-.768-.232-.176-.556-.264-.972-.264h-1.248l-.504 2.46h1.416c.528 0 .936-.124 1.224-.372.288-.248.432-.6.432-1.056zM42.848 25.096a1.7 1.7 0 01-.822-.2 1.513 1.513 0 01-.574-.557 1.547 1.547 0 01-.204-.791c0-.293.068-.557.204-.791.14-.235.33-.42.574-.553a1.67 1.67 0 01.822-.204c.301 0 .572.067.813.2.243.133.435.319.574.557.139.234.208.498.208.79 0 .294-.07.559-.208.796a1.48 1.48 0 01-.574.553c-.24.133-.512.2-.813.2zm0-.287c.24 0 .458-.054.652-.161a1.2 1.2 0 00.456-.452c.11-.195.166-.41.166-.648 0-.238-.055-.452-.166-.644a1.16 1.16 0 00-.456-.452 1.298 1.298 0 00-.652-.165c-.24 0-.46.055-.657.165a1.19 1.19 0 00-.46.452c-.11.192-.166.406-.166.644s.055.454.165.648c.114.191.267.342.461.452.197.107.416.16.657.16zm3.467-2.044c.215 0 .41.05.583.148.174.096.31.232.409.409.098.177.148.378.148.604 0 .23-.05.432-.148.609a1.057 1.057 0 01-.409.413 1.172 1.172 0 01-.583.143c-.185 0-.353-.037-.504-.113a.974.974 0 01-.365-.339v1.274h-.309v-3.13h.296v.452a.956.956 0 01.365-.348c.154-.081.326-.122.517-.122zm-.021 2.052a.88.88 0 00.434-.108.783.783 0 00.305-.318.944.944 0 00.113-.465.92.92 0 00-.113-.46.784.784 0 00-.305-.318.853.853 0 00-.434-.113.861.861 0 00-.44.113.823.823 0 00-.304.317.95.95 0 00-.108.461c0 .174.036.33.108.465a.822.822 0 00.305.318.89.89 0 00.439.108zm3.441-1.76h-1.309v2.013h-.308v-2.287h1.617v.274zm1.233-.292c.299 0 .528.076.687.226.16.148.24.369.24.661v1.418h-.297v-.357a.705.705 0 01-.308.278c-.133.067-.293.1-.478.1-.255 0-.458-.06-.61-.182a.59.59 0 01-.225-.483c0-.194.07-.35.209-.47.142-.118.366-.178.673-.178h.727v-.139c0-.197-.056-.346-.166-.448-.11-.104-.27-.156-.482-.156-.145 0-.284.024-.418.074a1.021 1.021 0 00-.343.195l-.14-.23a1.21 1.21 0 01.418-.226c.162-.055.333-.083.513-.083zm-.109 2.083c.174 0 .324-.04.448-.117a.726.726 0 00.279-.348v-.374h-.718c-.391 0-.587.136-.587.408 0 .134.05.24.152.318.102.075.244.113.426.113zm1.857-2.065h.309v1.013h1.439v-1.013h.308v2.287h-.308v-1.01h-1.44v1.01h-.308v-2.287zm2.934 0h.309V24.6l1.525-1.817h.274v2.287h-.308v-1.818l-1.522 1.818h-.278v-2.287zm4.06 1.095a.721.721 0 01.373.196.47.47 0 01.135.34.522.522 0 01-.14.356.878.878 0 01-.369.243 1.552 1.552 0 01-.517.083c-.165 0-.328-.023-.487-.07-.16-.05-.298-.12-.417-.213l.104-.23c.104.078.226.139.365.182.14.044.28.066.422.066.212 0 .384-.04.517-.118.137-.081.205-.19.205-.326a.314.314 0 00-.166-.283c-.11-.07-.26-.104-.452-.104h-.391v-.226h.374a.784.784 0 00.413-.096c.104-.066.156-.155.156-.265 0-.122-.059-.217-.178-.287a.88.88 0 00-.456-.104c-.247 0-.49.062-.73.187l-.088-.24c.273-.141.555-.212.848-.212.174 0 .33.026.47.078.142.05.252.12.33.213.081.093.122.2.122.322 0 .116-.04.218-.122.308a.695.695 0 01-.322.2zm1.996-1.113c.298 0 .527.076.687.226.16.148.239.369.239.661v1.418h-.296v-.357a.705.705 0 01-.308.278c-.134.067-.293.1-.479.1-.255 0-.458-.06-.608-.182a.59.59 0 01-.227-.483c0-.194.07-.35.21-.47.141-.118.366-.178.673-.178h.726v-.139c0-.197-.055-.346-.165-.448-.11-.104-.271-.156-.483-.156-.145 0-.284.024-.417.074a1.021 1.021 0 00-.344.195l-.139-.23c.116-.099.255-.174.418-.226.162-.055.333-.083.513-.083zm-.109 2.083c.174 0 .323-.04.448-.117a.727.727 0 00.278-.348v-.374h-.717c-.392 0-.587.136-.587.408 0 .134.05.24.152.318.101.075.243.113.426.113zm4.24-.048v.843h-.292v-.573h-2.092v-2.287h.31V24.8h1.395v-2.017h.308V24.8h.37zm.589-2.017h.308V24.6l1.526-1.817h.274v2.287h-.309v-1.818l-1.521 1.818h-.278v-2.287zm4.75 0v2.287h-.283v-.757h-.805l-.53.757h-.335l.57-.8a.772.772 0 01-.409-.253.698.698 0 01-.143-.452c0-.255.087-.449.26-.582.174-.134.412-.2.713-.2h.961zm-1.622.791c0 .34.216.509.647.509h.692v-1.026h-.67c-.446 0-.67.172-.67.517zm5.692-.791v2.287h-.31v-2.013h-1.434v2.013h-.309v-2.287h2.053zm1.82 2.308c-.22 0-.418-.049-.595-.148a1.11 1.11 0 01-.418-.417 1.184 1.184 0 01-.152-.6c0-.223.051-.423.152-.6a1.08 1.08 0 01.418-.413c.177-.098.375-.148.595-.148.22 0 .42.05.596.148.177.099.314.236.413.413.102.177.152.377.152.6 0 .223-.05.423-.152.6a1.078 1.078 0 01-.413.418 1.203 1.203 0 01-.596.147zm0-.274a.864.864 0 00.435-.108.782.782 0 00.304-.318.975.975 0 00.11-.465.975.975 0 00-.11-.465.755.755 0 00-.304-.313.838.838 0 00-.435-.113.861.861 0 00-.439.113.791.791 0 00-.304.313.975.975 0 00-.109.465c0 .174.037.33.109.465a.821.821 0 00.304.318c.13.072.277.108.44.108zm3.17.253l-.725-.957-.73.957h-.349l.905-1.174-.861-1.113h.348l.687.895.687-.895h.339l-.861 1.113.913 1.174h-.352zm1.722.021c-.22 0-.42-.049-.596-.148a1.109 1.109 0 01-.417-.417 1.183 1.183 0 01-.153-.6c0-.223.051-.423.153-.6.101-.177.24-.314.417-.413.177-.098.375-.148.596-.148.22 0 .418.05.595.148.177.099.315.236.413.413.102.177.152.377.152.6 0 .223-.05.423-.152.6a1.078 1.078 0 01-.413.418 1.203 1.203 0 01-.595.147zm0-.274a.864.864 0 00.434-.108.782.782 0 00.305-.318.976.976 0 00.108-.465.976.976 0 00-.108-.465.755.755 0 00-.305-.313.838.838 0 00-.434-.113.861.861 0 00-.44.113.792.792 0 00-.304.313.976.976 0 00-.109.465c0 .174.037.33.11.465a.822.822 0 00.303.318c.13.072.277.108.44.108zm4.038-.017v.822h-.291v-.552h-2.048v.552h-.292V24.8h.13c.154-.009.259-.122.314-.34.055-.216.093-.52.113-.912l.03-.765h1.687V24.8h.357zm-1.791-1.235a5.757 5.757 0 01-.083.805c-.04.208-.113.352-.218.43h1.427v-1.743h-1.1l-.026.508zm3.336 1.526a1.2 1.2 0 01-.596-.148 1.11 1.11 0 01-.417-.417 1.183 1.183 0 01-.152-.6c0-.223.05-.423.152-.6.101-.177.24-.314.417-.413.177-.098.376-.148.596-.148.22 0 .419.05.595.148.177.099.315.236.413.413.102.177.153.377.153.6 0 .223-.051.423-.153.6a1.079 1.079 0 01-.413.418 1.203 1.203 0 01-.595.147zm0-.274a.864.864 0 00.435-.108.783.783 0 00.304-.318.975.975 0 00.109-.465.975.975 0 00-.11-.465.755.755 0 00-.303-.313.838.838 0 00-.435-.113.861.861 0 00-.44.113.792.792 0 00-.304.313.976.976 0 00-.108.465c0 .174.036.33.108.465a.822.822 0 00.305.318.89.89 0 00.439.108zm3.277-.93c.31.072.465.26.465.56 0 .2-.074.355-.222.462-.148.107-.368.16-.66.16h-1.04v-2.286h1.009c.26 0 .465.05.613.152a.495.495 0 01.222.435.51.51 0 01-.105.321.598.598 0 01-.282.196zM89.66 23.8h.687c.177 0 .312-.033.405-.1a.333.333 0 00.143-.291.322.322 0 00-.143-.287c-.093-.064-.228-.096-.405-.096h-.687v.774zm.726 1.026c.198 0 .345-.032.444-.096.098-.063.148-.163.148-.3 0-.136-.045-.236-.135-.3-.09-.066-.232-.1-.426-.1h-.757v.796h.726zm4.214-.939c.31.072.465.26.465.56 0 .2-.074.355-.222.462-.147.107-.368.16-.66.16h-1.04v-2.286h1.009c.26 0 .465.05.613.152a.495.495 0 01.222.435.51.51 0 01-.105.321.598.598 0 01-.282.196zm-1.157-.087h.687c.177 0 .312-.033.405-.1a.333.333 0 00.143-.291.322.322 0 00-.143-.287c-.093-.064-.228-.096-.405-.096h-.687v.774zm.726 1.026c.198 0 .345-.032.444-.096.098-.063.148-.163.148-.3 0-.136-.045-.236-.135-.3-.09-.066-.232-.1-.426-.1h-.757v.796h.726zm4.375-1.77h-1.309v2.014h-.309v-2.287h1.618v.274zm1.283 2.035a1.2 1.2 0 01-.596-.148 1.11 1.11 0 01-.417-.417 1.183 1.183 0 01-.152-.6c0-.223.05-.423.152-.6s.24-.314.418-.413c.176-.098.375-.148.595-.148.22 0 .419.05.596.148.177.099.314.236.413.413.101.177.152.377.152.6 0 .223-.051.423-.152.6a1.08 1.08 0 01-.413.418 1.205 1.205 0 01-.596.147zm0-.274a.866.866 0 00.435-.108.782.782 0 00.304-.318.97.97 0 00.109-.465.97.97 0 00-.109-.465.754.754 0 00-.304-.313.84.84 0 00-.435-.113.861.861 0 00-.439.113.791.791 0 00-.304.313.975.975 0 00-.109.465c0 .174.036.33.109.465a.821.821 0 00.304.318c.13.072.277.108.44.108zm2.999-2.052c.214 0 .409.05.582.148.174.096.311.232.409.409.099.177.148.378.148.604 0 .23-.049.432-.148.609a1.053 1.053 0 01-.409.413 1.171 1.171 0 01-.582.143c-.186 0-.354-.037-.504-.113a.977.977 0 01-.366-.339v1.274h-.308v-3.13h.295v.452a.957.957 0 01.366-.348 1.09 1.09 0 01.517-.122zm-.022 2.052a.88.88 0 00.435-.108.782.782 0 00.304-.318.938.938 0 00.113-.465.913.913 0 00-.113-.46.783.783 0 00-.304-.318.854.854 0 00-.435-.113.86.86 0 00-.439.113.824.824 0 00-.304.317.944.944 0 00-.109.461.97.97 0 00.109.465.822.822 0 00.304.318c.13.072.277.108.439.108zm2.785-1.226c.287.003.506.067.657.192.15.124.226.304.226.539 0 .243-.082.43-.244.56-.162.131-.394.195-.695.192l-.905-.004v-2.287h.309v.8l.652.008zm1.265-.808h.309v2.287h-.309v-2.287zm-1.339 2.056c.212.003.371-.039.478-.126.111-.09.166-.22.166-.391 0-.168-.054-.293-.161-.374-.108-.081-.268-.123-.483-.126l-.578-.009v1.018l.578.008z" fill="#fff"/><defs><clipPath id="clip0"><path fill="#fff" d="M0 0h30.334v30.334H0z"/></clipPath></defs></svg>