<svg width="207" height="62" fill="none" xmlns="http://www.w3.org/2000/svg"><g clip-path="url(#clip0)" fill="#fff"><path d="M22.782 40.177l5.457-5.73 6.208 5.73h10.64L28.172 23.6l-16.78 16.576h11.391z"/><path d="M38.403 13.574l-8.049 8.186 5.32 5.457 2.73-2.729 14.938 14.87C49.932 48.431 41.2 54.911 30.9 54.911c-13.233 0-23.942-10.71-23.942-23.943.068-13.233 10.777-23.942 24.01-23.942 11.733 0 21.555 8.526 23.533 19.645l7.23 7.64a27.46 27.46 0 00.206-3.343c0-8.253-3.206-16.03-9.073-21.896C46.998 3.206 39.222 0 30.968 0c-8.322 0-16.03 3.206-21.896 9.072S0 22.646 0 30.968c0 8.322 3.206 16.03 9.072 21.896 5.866 5.867 13.643 9.073 21.896 9.073 8.254 0 16.03-3.206 21.896-9.073 3.616-3.615 6.208-7.912 7.64-12.619.273-.819.477-1.705.682-2.524l-6.275-6.616-16.508-17.53z"/></g><path d="M87.489 19.9h4.554l-2.484 12.489h7.682L96.505 36H84.269l3.22-16.1zm14.038 0h4.554l-3.22 16.1h-4.554l3.22-16.1zm11.635 3.519l-.713 3.542h7.107l-.713 3.519h-7.084L110.655 36h-4.554l3.22-16.1h12.604l-.713 3.519h-8.05zm14.688 0l-.529 2.714h7.153l-.667 3.404h-7.176l-.575 2.944h8.441L133.761 36h-12.903l3.22-16.1h12.604l-.713 3.519h-8.119zm14.372.092h-4.945l.736-3.611h14.421l-.736 3.611h-4.922L144.269 36h-4.554l2.507-12.489zm17.158 12.811c-1.626 0-3.044-.299-4.255-.897-1.196-.598-2.124-1.434-2.783-2.507-.644-1.073-.966-2.3-.966-3.68 0-1.84.421-3.496 1.265-4.968a9.073 9.073 0 013.565-3.45c1.533-.828 3.273-1.242 5.221-1.242 1.625 0 3.036.299 4.232.897 1.211.598 2.139 1.434 2.783 2.507.659 1.073.989 2.3.989 3.68 0 1.84-.43 3.496-1.288 4.968-.844 1.472-2.032 2.622-3.565 3.45-1.518.828-3.251 1.242-5.198 1.242zm.391-3.772c1.012 0 1.901-.253 2.668-.759a5.042 5.042 0 001.771-2.024c.414-.859.621-1.802.621-2.829 0-1.089-.338-1.955-1.012-2.599-.66-.66-1.587-.989-2.783-.989-1.012 0-1.902.253-2.668.759a5 5 0 00-1.771 2.047c-.414.843-.621 1.779-.621 2.806 0 1.089.329 1.963.989 2.622.674.644 1.61.966 2.806.966zm18.209 3.772c-1.396 0-2.599-.23-3.611-.69-1.012-.475-1.787-1.15-2.323-2.024-.537-.874-.805-1.901-.805-3.082 0-.49.061-1.058.184-1.702l1.794-8.924h4.554l-1.771 8.855c-.092.46-.138.882-.138 1.265 0 1.687.889 2.53 2.668 2.53.966 0 1.725-.291 2.277-.874.567-.598.989-1.572 1.265-2.921l1.771-8.855h4.485l-1.817 9.131c-.982 4.86-3.826 7.291-8.533 7.291zm26.821-11.293c0 1.472-.391 2.745-1.173 3.818-.782 1.058-1.878 1.832-3.289 2.323l2.737 4.83h-4.761l-2.392-4.278h-2.3L192.772 36h-4.554l3.22-16.1h6.877c2.055 0 3.649.452 4.784 1.357 1.135.905 1.702 2.162 1.702 3.772zm-4.6.437c0-.66-.222-1.15-.667-1.472-.445-.337-1.066-.506-1.863-.506h-2.392l-.966 4.715h2.714c1.012 0 1.794-.238 2.346-.713s.828-1.15.828-2.024zM87.3 51.18a3.126 3.126 0 01-1.511-.367 2.785 2.785 0 01-1.056-1.024 2.848 2.848 0 01-.376-1.456c0-.54.125-1.024.376-1.456a2.722 2.722 0 011.056-1.016 3.066 3.066 0 011.512-.376 3.03 3.03 0 011.496.368 2.7 2.7 0 011.056 1.024 2.8 2.8 0 01.384 1.456c0 .538-.128 1.026-.384 1.464a2.73 2.73 0 01-1.056 1.016 3.034 3.034 0 01-1.496.368zm0-.527a2.44 2.44 0 001.2-.296c.358-.203.638-.48.84-.832.203-.358.305-.755.305-1.192a2.33 2.33 0 00-.304-1.184 2.134 2.134 0 00-.84-.832 2.389 2.389 0 00-1.2-.304c-.443 0-.846.1-1.208.304a2.19 2.19 0 00-.848.832 2.33 2.33 0 00-.304 1.184c0 .437.101.834.304 1.192.208.352.49.629.848.832.362.197.765.296 1.208.296zm6.381-3.76c.395 0 .752.09 1.072.272.32.176.571.426.752.752.182.325.272.696.272 1.112 0 .42-.09.794-.272 1.12a1.944 1.944 0 01-.752.76 2.158 2.158 0 01-1.072.264c-.341 0-.65-.07-.928-.208a1.791 1.791 0 01-.672-.624v2.344h-.568v-5.76h.544v.832c.171-.278.395-.491.672-.64a2 2 0 01.952-.224zm-.04 3.776c.294 0 .56-.067.8-.2.24-.14.427-.334.56-.584.139-.251.208-.536.208-.856 0-.32-.069-.603-.208-.848a1.44 1.44 0 00-.56-.584 1.57 1.57 0 00-.8-.208c-.298 0-.568.069-.808.208a1.514 1.514 0 00-.56.584 1.75 1.75 0 00-.2.848c0 .32.067.605.2.856.139.25.326.445.56.584.24.133.51.2.808.2zm6.333-3.24h-2.408v3.704h-.568v-4.208h2.976v.504zm2.269-.536c.549 0 .97.138 1.264.416.293.272.44.677.44 1.216v2.608h-.544v-.656a1.308 1.308 0 01-.568.512 1.952 1.952 0 01-.88.184c-.47 0-.843-.112-1.12-.336a1.083 1.083 0 01-.416-.888c0-.358.128-.646.384-.864.261-.22.674-.328 1.24-.328h1.336V48.5c0-.363-.102-.638-.304-.824-.203-.192-.499-.288-.888-.288-.267 0-.523.045-.768.136a1.874 1.874 0 00-.632.36l-.256-.424c.213-.182.469-.32.768-.416.298-.102.613-.152.944-.152zm-.2 3.832c.32 0 .594-.072.824-.216.229-.15.4-.363.512-.64v-.688h-1.32c-.72 0-1.08.25-1.08.752 0 .245.093.44.28.584.186.138.448.208.784.208zm3.416-3.8h.568v1.864h2.648v-1.864h.568v4.208h-.568v-1.856h-2.648v1.856h-.568v-4.208zm5.398 0h.568v3.344l2.808-3.344h.504v4.208h-.568v-3.344l-2.8 3.344h-.512v-4.208zm7.47 2.016c.299.069.528.189.688.36.165.17.248.378.248.624a.958.958 0 01-.256.656 1.613 1.613 0 01-.68.448 2.851 2.851 0 01-.952.152c-.304 0-.603-.043-.896-.128a2.383 2.383 0 01-.768-.392l.192-.424c.192.144.416.256.672.336.256.08.515.12.776.12.389 0 .707-.072.952-.216.251-.15.376-.35.376-.6a.576.576 0 00-.304-.52c-.203-.128-.48-.192-.832-.192h-.72v-.416h.688c.315 0 .568-.06.76-.176.192-.123.288-.286.288-.488 0-.224-.109-.4-.328-.528-.213-.128-.493-.192-.84-.192-.453 0-.901.114-1.344.344l-.16-.44a3.33 3.33 0 011.56-.392c.32 0 .608.048.864.144.261.09.464.22.608.392.149.17.224.368.224.592a.825.825 0 01-.224.568 1.277 1.277 0 01-.592.368zM122 46.893c.55 0 .971.138 1.264.416.294.272.44.677.44 1.216v2.608h-.544v-.656a1.302 1.302 0 01-.568.512 1.946 1.946 0 01-.88.184c-.469 0-.842-.112-1.12-.336a1.086 1.086 0 01-.416-.888c0-.358.128-.646.384-.864.262-.22.675-.328 1.24-.328h1.336V48.5c0-.363-.101-.638-.304-.824-.202-.192-.498-.288-.888-.288-.266 0-.522.045-.768.136a1.883 1.883 0 00-.632.36l-.256-.424c.214-.182.47-.32.768-.416a2.92 2.92 0 01.944-.152zm-.2 3.832c.32 0 .595-.072.824-.216.23-.15.4-.363.512-.64v-.688h-1.32c-.72 0-1.08.25-1.08.752a.7.7 0 00.28.584c.187.138.448.208.784.208zm7.8-.088v1.552h-.536v-1.056h-3.848v-4.208h.568v3.712h2.568v-3.712h.568v3.712h.68zm1.085-3.712h.568v3.344l2.808-3.344h.504v4.208h-.568v-3.344l-2.8 3.344h-.512v-4.208zm8.74 0v4.208h-.52V49.74h-1.48l-.976 1.392h-.616l1.048-1.472c-.325-.091-.576-.246-.752-.464-.176-.22-.264-.496-.264-.832 0-.47.16-.827.48-1.072.32-.246.757-.368 1.312-.368h1.768zm-2.984 1.456c0 .624.397.936 1.192.936h1.272v-1.888h-1.232c-.821 0-1.232.317-1.232.952zm10.473-1.456v4.208h-.568v-3.704h-2.64v3.704h-.568v-4.208h3.776zm3.351 4.248c-.405 0-.771-.091-1.096-.272a2.047 2.047 0 01-.768-.768 2.175 2.175 0 01-.28-1.104c0-.411.093-.78.28-1.104.187-.326.443-.58.768-.76a2.212 2.212 0 011.096-.272c.405 0 .771.09 1.096.272.325.18.579.434.76.76.187.325.28.693.28 1.104 0 .41-.093.778-.28 1.104a1.985 1.985 0 01-.76.768 2.213 2.213 0 01-1.096.272zm0-.504c.299 0 .565-.067.8-.2a1.44 1.44 0 00.56-.584 1.8 1.8 0 00.2-.856c0-.32-.067-.606-.2-.856a1.386 1.386 0 00-.56-.576 1.542 1.542 0 00-.8-.208c-.299 0-.568.069-.808.208a1.456 1.456 0 00-.56.576c-.133.25-.2.536-.2.856 0 .32.067.605.2.856.139.25.325.445.56.584.24.133.509.2.808.2zm5.833.464l-1.336-1.76-1.344 1.76h-.64l1.664-2.16-1.584-2.048h.64l1.264 1.648 1.264-1.648h.624l-1.584 2.048 1.68 2.16h-.648zm3.167.04c-.405 0-.771-.091-1.096-.272a2.047 2.047 0 01-.768-.768 2.175 2.175 0 01-.28-1.104c0-.411.093-.78.28-1.104.187-.326.443-.58.768-.76a2.212 2.212 0 011.096-.272c.405 0 .771.09 1.096.272.325.18.579.434.76.76.187.325.28.693.28 1.104 0 .41-.093.778-.28 1.104a1.985 1.985 0 01-.76.768 2.213 2.213 0 01-1.096.272zm0-.504c.299 0 .565-.067.8-.2a1.44 1.44 0 00.56-.584 1.8 1.8 0 00.2-.856c0-.32-.067-.606-.2-.856a1.386 1.386 0 00-.56-.576 1.542 1.542 0 00-.8-.208c-.299 0-.568.069-.808.208a1.456 1.456 0 00-.56.576c-.133.25-.2.536-.2.856 0 .32.067.605.2.856.139.25.325.445.56.584.24.133.509.2.808.2zm7.43-.032v1.512h-.536v-1.016h-3.768v1.016h-.536v-1.512h.24c.283-.016.475-.224.576-.624.102-.4.171-.96.208-1.68l.056-1.408h3.104v3.712h.656zm-3.296-2.272c-.026.597-.077 1.09-.152 1.48-.074.384-.208.648-.4.792h2.624v-3.208h-2.024l-.048.936zm6.139 2.808c-.405 0-.77-.091-1.096-.272a2.047 2.047 0 01-.768-.768 2.185 2.185 0 01-.28-1.104c0-.411.094-.78.28-1.104.187-.326.443-.58.768-.76a2.214 2.214 0 011.096-.272c.406 0 .771.09 1.096.272.326.18.579.434.76.76.187.325.28.693.28 1.104 0 .41-.093.778-.28 1.104a1.978 1.978 0 01-.76.768 2.21 2.21 0 01-1.096.272zm0-.504c.299 0 .566-.067.8-.2a1.44 1.44 0 00.56-.584c.134-.251.2-.536.2-.856 0-.32-.066-.606-.2-.856a1.386 1.386 0 00-.56-.576 1.54 1.54 0 00-.8-.208c-.298 0-.568.069-.808.208a1.462 1.462 0 00-.56.576c-.133.25-.2.536-.2.856 0 .32.067.605.2.856.139.25.326.445.56.584.24.133.51.2.808.2zm6.03-1.712c.571.133.856.477.856 1.032 0 .368-.136.65-.408.848-.272.197-.677.296-1.216.296h-1.912v-4.208h1.856c.48 0 .856.093 1.128.28.272.186.408.453.408.8a.94.94 0 01-.192.592c-.122.16-.296.28-.52.36zm-2.128-.16h1.264c.326 0 .574-.062.744-.184a.612.612 0 00.264-.536c0-.235-.088-.411-.264-.528-.17-.118-.418-.176-.744-.176h-1.264v1.424zm1.336 1.888c.363 0 .635-.06.816-.176.182-.118.272-.302.272-.552 0-.251-.082-.435-.248-.552-.165-.123-.426-.184-.784-.184h-1.392v1.464h1.336zm7.753-1.728c.571.133.856.477.856 1.032 0 .368-.136.65-.408.848-.272.197-.677.296-1.216.296h-1.912v-4.208h1.856c.48 0 .856.093 1.128.28.272.186.408.453.408.8a.94.94 0 01-.192.592c-.122.16-.296.28-.52.36zm-2.128-.16h1.264c.326 0 .574-.062.744-.184a.612.612 0 00.264-.536c0-.235-.088-.411-.264-.528-.17-.118-.418-.176-.744-.176h-1.264v1.424zm1.336 1.888c.363 0 .635-.06.816-.176.182-.118.272-.302.272-.552 0-.251-.082-.435-.248-.552-.165-.123-.426-.184-.784-.184h-1.392v1.464h1.336zm8.049-3.256h-2.408v3.704h-.568v-4.208h2.976v.504zm2.362 3.744a2.21 2.21 0 01-1.096-.272 2.033 2.033 0 01-.768-.768 2.175 2.175 0 01-.28-1.104c0-.411.093-.78.28-1.104.186-.326.442-.58.768-.76.325-.182.69-.272 1.096-.272.405 0 .77.09 1.096.272.325.18.578.434.76.76.186.325.28.693.28 1.104 0 .41-.094.778-.28 1.104a1.991 1.991 0 01-.76.768 2.215 2.215 0 01-1.096.272zm0-.504c.298 0 .565-.067.8-.2.24-.14.426-.334.56-.584a1.8 1.8 0 00.2-.856c0-.32-.067-.606-.2-.856a1.392 1.392 0 00-.56-.576 1.545 1.545 0 00-.8-.208c-.299 0-.568.069-.808.208a1.45 1.45 0 00-.56.576c-.134.25-.2.536-.2.856 0 .32.066.605.2.856.138.25.325.445.56.584.24.133.509.2.808.2zm5.518-3.776c.394 0 .752.09 1.072.272.32.176.57.426.752.752.181.325.272.696.272 1.112 0 .42-.091.794-.272 1.12a1.95 1.95 0 01-.752.76 2.159 2.159 0 01-1.072.264c-.342 0-.651-.07-.928-.208a1.791 1.791 0 01-.672-.624v2.344h-.568v-5.76h.544v.832c.17-.278.394-.491.672-.64.282-.15.6-.224.952-.224zm-.04 3.776c.293 0 .56-.067.8-.2.24-.14.426-.334.56-.584.138-.251.208-.536.208-.856a1.7 1.7 0 00-.208-.848 1.445 1.445 0 00-.56-.584 1.57 1.57 0 00-.8-.208c-.299 0-.568.069-.808.208a1.506 1.506 0 00-.56.584 1.74 1.74 0 00-.2.848c0 .32.066.605.2.856.138.25.325.445.56.584.24.133.509.2.808.2zm5.124-2.256c.528.005.931.122 1.208.352.277.229.416.56.416.992 0 .448-.149.792-.448 1.032-.299.24-.725.357-1.28.352l-1.664-.008v-4.208h.568v1.472l1.2.016zm2.328-1.488h.568v4.208h-.568v-4.208zm-2.464 3.784c.389.005.683-.072.88-.232.203-.166.304-.406.304-.72 0-.31-.099-.54-.296-.688-.197-.15-.493-.227-.888-.232l-1.064-.016v1.872l1.064.016z" fill="#fff"/><defs><clipPath id="clip0"><path fill="#fff" d="M0 0h61.868v61.868H0z"/></clipPath></defs></svg>