<svg width="220" height="61" viewBox="0 0 220 61" fill="none" xmlns="http://www.w3.org/2000/svg">
<g clip-path="url(#clip0)">
<path d="M22.3401 39.7297L27.6911 34.1112L33.7779 39.7297H44.2124L27.6243 23.4761L11.1699 39.7297H22.3401Z" fill="#2D383F"/>
<path d="M37.6577 13.6436L29.7649 21.6701L34.9822 27.0211L37.6577 24.3456L52.306 38.9271C48.9617 47.8231 40.4001 54.1775 30.3 54.1775C17.3239 54.1775 6.82253 43.6761 6.82253 30.6999C6.88941 17.7238 17.3908 7.22242 30.3669 7.22242C41.8716 7.22242 51.5034 15.5834 53.4431 26.486L60.5332 33.9774C60.667 32.9072 60.7339 31.7701 60.7339 30.6999C60.7339 22.6066 57.5902 14.9814 51.8378 9.22905C46.0855 3.47672 38.4603 0.333008 30.3669 0.333008C22.2067 0.333008 14.6484 3.47672 8.89604 9.22905C3.14371 14.9814 0 22.5397 0 30.6999C0 38.8602 3.14371 46.4185 8.89604 52.1708C14.6484 57.9232 22.2735 61.0669 30.3669 61.0669C38.4603 61.0669 46.0855 57.9232 51.8378 52.1708C55.3829 48.6258 57.9246 44.4119 59.3292 39.7966C59.5968 38.994 59.7974 38.1245 59.9981 37.3218L53.8445 30.8337L37.6577 13.6436Z" fill="#2D383F"/>
</g>
<path d="M86.3275 15.8283H91.4755L88.6675 29.9463H97.3515L96.5195 34.0283H82.6875L86.3275 15.8283ZM102.197 15.8283H107.345L103.705 34.0283H98.5566L102.197 15.8283ZM115.349 19.8063L114.543 23.8103H122.577L121.771 27.7883H113.763L112.515 34.0283H107.367L111.007 15.8283H125.255L124.449 19.8063H115.349ZM131.953 19.8063L131.355 22.8743H139.441L138.687 26.7223H130.575L129.925 30.0503H139.467L138.635 34.0283H124.049L127.689 15.8283H141.937L141.131 19.8063H131.953ZM148.2 19.9103H142.61L143.442 15.8283H159.744L158.912 19.9103H153.348L150.514 34.0283H145.366L148.2 19.9103ZM167.596 34.3923C165.758 34.3923 164.155 34.0543 162.786 33.3783C161.434 32.7023 160.385 31.7577 159.64 30.5443C158.912 29.331 158.548 27.9443 158.548 26.3843C158.548 24.3043 159.024 22.4323 159.978 20.7683C160.948 19.1043 162.292 17.8043 164.008 16.8683C165.741 15.9323 167.708 15.4643 169.91 15.4643C171.747 15.4643 173.342 15.8023 174.694 16.4783C176.063 17.1543 177.112 18.099 177.84 19.3123C178.585 20.5257 178.958 21.9123 178.958 23.4723C178.958 25.5523 178.472 27.4243 177.502 29.0883C176.548 30.7523 175.205 32.0523 173.472 32.9883C171.756 33.9243 169.797 34.3923 167.596 34.3923ZM168.038 30.1283C169.182 30.1283 170.187 29.8423 171.054 29.2703C171.92 28.6983 172.588 27.9357 173.056 26.9823C173.524 26.0117 173.758 24.9457 173.758 23.7843C173.758 22.5537 173.376 21.5743 172.614 20.8463C171.868 20.101 170.82 19.7283 169.468 19.7283C168.324 19.7283 167.318 20.0143 166.452 20.5863C165.585 21.1583 164.918 21.9297 164.45 22.9003C163.982 23.8537 163.748 24.911 163.748 26.0723C163.748 27.303 164.12 28.291 164.866 29.0363C165.628 29.7643 166.686 30.1283 168.038 30.1283ZM188.622 34.3923C187.045 34.3923 185.684 34.1323 184.54 33.6123C183.396 33.075 182.521 32.3123 181.914 31.3243C181.307 30.3363 181.004 29.175 181.004 27.8403C181.004 27.2857 181.073 26.6443 181.212 25.9163L183.24 15.8283H188.388L186.386 25.8383C186.282 26.3583 186.23 26.835 186.23 27.2683C186.23 29.175 187.235 30.1283 189.246 30.1283C190.338 30.1283 191.196 29.799 191.82 29.1403C192.461 28.4643 192.938 27.3637 193.25 25.8383L195.252 15.8283H200.322L198.268 26.1503C197.159 31.645 193.943 34.3923 188.622 34.3923ZM218.941 21.6263C218.941 23.2903 218.499 24.729 217.615 25.9423C216.731 27.1383 215.492 28.0137 213.897 28.5683L216.991 34.0283H211.609L208.905 29.1923H206.305L205.343 34.0283H200.195L203.835 15.8283H211.609C213.932 15.8283 215.735 16.3397 217.017 17.3623C218.3 18.385 218.941 19.8063 218.941 21.6263ZM213.741 22.1203C213.741 21.375 213.49 20.8203 212.987 20.4563C212.485 20.075 211.783 19.8843 210.881 19.8843H208.177L207.085 25.2143H210.153C211.297 25.2143 212.181 24.9457 212.805 24.4083C213.429 23.871 213.741 23.1083 213.741 22.1203Z" fill="#2D383F"/>
<path d="M85.967 51.5243C85.3641 51.5243 84.8163 51.391 84.3236 51.1244C83.8367 50.8519 83.4541 50.4809 83.1758 50.0113C82.9033 49.5418 82.7671 49.0143 82.7671 48.4288C82.7671 47.8433 82.9033 47.3158 83.1758 46.8462C83.4541 46.3767 83.8367 46.0086 84.3236 45.7419C84.8163 45.4695 85.3641 45.3332 85.967 45.3332C86.5699 45.3332 87.1119 45.4666 87.5931 45.7332C88.08 45.9999 88.4626 46.3709 88.7408 46.8462C89.0191 47.3158 89.1582 47.8433 89.1582 48.4288C89.1582 49.0143 89.0191 49.5447 88.7408 50.02C88.4626 50.4896 88.08 50.8577 87.5931 51.1244C87.1119 51.391 86.5699 51.5243 85.967 51.5243ZM85.967 50.9504C86.4482 50.9504 86.8829 50.8432 87.2713 50.6287C87.6597 50.4084 87.9641 50.107 88.1843 49.7244C88.4046 49.336 88.5148 48.9041 88.5148 48.4288C88.5148 47.9534 88.4046 47.5245 88.1843 47.1419C87.9641 46.7535 87.6597 46.452 87.2713 46.2375C86.8829 46.0173 86.4482 45.9071 85.967 45.9071C85.4859 45.9071 85.0482 46.0173 84.654 46.2375C84.2656 46.452 83.9584 46.7535 83.7323 47.1419C83.512 47.5245 83.4019 47.9534 83.4019 48.4288C83.4019 48.9041 83.512 49.336 83.7323 49.7244C83.9584 50.107 84.2656 50.4084 84.654 50.6287C85.0482 50.8432 85.4859 50.9504 85.967 50.9504ZM92.9023 46.8636C93.3313 46.8636 93.7197 46.9622 94.0675 47.1593C94.4153 47.3506 94.6878 47.623 94.8849 47.9766C95.082 48.3302 95.1805 48.7331 95.1805 49.1853C95.1805 49.6432 95.082 50.049 94.8849 50.4026C94.6878 50.7562 94.4153 51.0316 94.0675 51.2287C93.7255 51.42 93.3371 51.5156 92.9023 51.5156C92.5313 51.5156 92.1951 51.4403 91.8937 51.2896C91.598 51.133 91.3546 50.907 91.1633 50.6113V53.1591H90.5459V46.8984H91.1372V47.8027C91.3227 47.5013 91.5661 47.2694 91.8676 47.1071C92.1748 46.9448 92.5197 46.8636 92.9023 46.8636ZM92.8589 50.9678C93.1777 50.9678 93.4675 50.8954 93.7284 50.7505C93.9893 50.5997 94.1921 50.3881 94.3371 50.1157C94.4878 49.8432 94.5632 49.5331 94.5632 49.1853C94.5632 48.8375 94.4878 48.5302 94.3371 48.2636C94.1921 47.9911 93.9893 47.7795 93.7284 47.6288C93.4675 47.4781 93.1777 47.4027 92.8589 47.4027C92.5342 47.4027 92.2415 47.4781 91.9806 47.6288C91.7256 47.7795 91.5227 47.9911 91.3719 48.2636C91.227 48.5302 91.1546 48.8375 91.1546 49.1853C91.1546 49.5331 91.227 49.8432 91.3719 50.1157C91.5227 50.3881 91.7256 50.5997 91.9806 50.7505C92.2415 50.8954 92.5342 50.9678 92.8589 50.9678ZM99.7417 47.4462H97.1243V51.4722H96.507V46.8984H99.7417V47.4462ZM102.208 46.8636C102.805 46.8636 103.263 47.0143 103.582 47.3158C103.9 47.6114 104.06 48.052 104.06 48.6375V51.4722H103.469V50.7591C103.329 50.9968 103.124 51.1823 102.851 51.3157C102.585 51.449 102.266 51.5156 101.895 51.5156C101.385 51.5156 100.979 51.3939 100.677 51.1504C100.376 50.907 100.225 50.5852 100.225 50.1853C100.225 49.7969 100.364 49.4838 100.643 49.2462C100.927 49.0085 101.376 48.8896 101.99 48.8896H103.442V48.6114C103.442 48.2172 103.332 47.9187 103.112 47.7158C102.892 47.5071 102.57 47.4027 102.147 47.4027C101.857 47.4027 101.579 47.452 101.312 47.5506C101.045 47.6433 100.816 47.7737 100.625 47.9418L100.347 47.481C100.579 47.2839 100.857 47.1332 101.182 47.0288C101.506 46.9187 101.848 46.8636 102.208 46.8636ZM101.99 51.0287C102.338 51.0287 102.637 50.9504 102.886 50.7939C103.135 50.6316 103.321 50.3997 103.442 50.0983V49.3505H102.008C101.225 49.3505 100.834 49.623 100.834 50.1679C100.834 50.4345 100.935 50.6461 101.138 50.8026C101.341 50.9533 101.625 51.0287 101.99 51.0287ZM105.703 46.8984H106.321V48.9244H109.199V46.8984H109.816V51.4722H109.199V49.4548H106.321V51.4722H105.703V46.8984ZM111.571 46.8984H112.188V50.5331L115.24 46.8984H115.788V51.4722H115.171V47.8375L112.128 51.4722H111.571V46.8984ZM119.69 49.0896C120.015 49.165 120.264 49.2954 120.438 49.4809C120.618 49.6664 120.708 49.8925 120.708 50.1592C120.708 50.4258 120.615 50.6635 120.429 50.8722C120.25 51.0809 120.003 51.2432 119.69 51.3591C119.377 51.4693 119.032 51.5243 118.655 51.5243C118.325 51.5243 118 51.478 117.682 51.3852C117.363 51.2867 117.084 51.1446 116.847 50.9591L117.056 50.4983C117.264 50.6548 117.508 50.7765 117.786 50.8635C118.064 50.9504 118.345 50.9939 118.629 50.9939C119.053 50.9939 119.397 50.9157 119.664 50.7591C119.937 50.5968 120.073 50.3794 120.073 50.107C120.073 49.8635 119.963 49.6751 119.742 49.5418C119.522 49.4027 119.221 49.3331 118.838 49.3331H118.055V48.8809H118.803C119.145 48.8809 119.421 48.8172 119.629 48.6896C119.838 48.5563 119.942 48.3795 119.942 48.1592C119.942 47.9158 119.824 47.7245 119.586 47.5853C119.354 47.4462 119.05 47.3766 118.673 47.3766C118.18 47.3766 117.693 47.5013 117.212 47.7505L117.038 47.2723C117.583 46.9883 118.148 46.8462 118.734 46.8462C119.082 46.8462 119.395 46.8984 119.673 47.0027C119.957 47.1013 120.177 47.2433 120.334 47.4288C120.496 47.6143 120.577 47.8288 120.577 48.0723C120.577 48.3042 120.496 48.5099 120.334 48.6896C120.177 48.8694 119.963 49.0027 119.69 49.0896ZM123.683 46.8636C124.28 46.8636 124.738 47.0143 125.057 47.3158C125.376 47.6114 125.535 48.052 125.535 48.6375V51.4722H124.944V50.7591C124.805 50.9968 124.599 51.1823 124.326 51.3157C124.06 51.449 123.741 51.5156 123.37 51.5156C122.86 51.5156 122.454 51.3939 122.153 51.1504C121.851 50.907 121.7 50.5852 121.7 50.1853C121.7 49.7969 121.84 49.4838 122.118 49.2462C122.402 49.0085 122.851 48.8896 123.466 48.8896H124.918V48.6114C124.918 48.2172 124.808 47.9187 124.587 47.7158C124.367 47.5071 124.045 47.4027 123.622 47.4027C123.332 47.4027 123.054 47.452 122.787 47.5506C122.521 47.6433 122.292 47.7737 122.1 47.9418L121.822 47.481C122.054 47.2839 122.332 47.1332 122.657 47.0288C122.982 46.9187 123.324 46.8636 123.683 46.8636ZM123.466 51.0287C123.813 51.0287 124.112 50.9504 124.361 50.7939C124.61 50.6316 124.796 50.3997 124.918 50.0983V49.3505H123.483C122.7 49.3505 122.309 49.623 122.309 50.1679C122.309 50.4345 122.411 50.6461 122.613 50.8026C122.816 50.9533 123.1 51.0287 123.466 51.0287ZM131.944 50.9331V52.62H131.361V51.4722H127.179V46.8984H127.796V50.9331H130.587V46.8984H131.205V50.9331H131.944ZM133.123 46.8984H133.74V50.5331L136.792 46.8984H137.34V51.4722H136.723V47.8375L133.679 51.4722H133.123V46.8984ZM142.622 46.8984V51.4722H142.057V49.9592H140.622H140.448L139.387 51.4722H138.718L139.857 49.8722C139.503 49.7737 139.231 49.6056 139.04 49.3679C138.848 49.1302 138.753 48.8288 138.753 48.4636C138.753 47.9534 138.927 47.565 139.274 47.2984C139.622 47.0317 140.098 46.8984 140.7 46.8984H142.622ZM139.379 48.481C139.379 49.1592 139.811 49.4983 140.674 49.4983H142.057V47.4462H140.718C139.825 47.4462 139.379 47.7911 139.379 48.481ZM150.762 46.8984V51.4722H150.145V47.4462H147.276V51.4722H146.658V46.8984H150.762ZM154.404 51.5156C153.964 51.5156 153.567 51.4171 153.213 51.22C152.859 51.0171 152.581 50.7389 152.378 50.3852C152.175 50.0316 152.074 49.6316 152.074 49.1853C152.074 48.7389 152.175 48.3389 152.378 47.9853C152.581 47.6317 152.859 47.3564 153.213 47.1593C153.567 46.9622 153.964 46.8636 154.404 46.8636C154.845 46.8636 155.242 46.9622 155.596 47.1593C155.949 47.3564 156.225 47.6317 156.422 47.9853C156.625 48.3389 156.726 48.7389 156.726 49.1853C156.726 49.6316 156.625 50.0316 156.422 50.3852C156.225 50.7389 155.949 51.0171 155.596 51.22C155.242 51.4171 154.845 51.5156 154.404 51.5156ZM154.404 50.9678C154.729 50.9678 155.019 50.8954 155.274 50.7505C155.535 50.5997 155.738 50.3881 155.883 50.1157C156.027 49.8432 156.1 49.5331 156.1 49.1853C156.1 48.8375 156.027 48.5273 155.883 48.2549C155.738 47.9824 155.535 47.7737 155.274 47.6288C155.019 47.4781 154.729 47.4027 154.404 47.4027C154.08 47.4027 153.787 47.4781 153.526 47.6288C153.271 47.7737 153.068 47.9824 152.917 48.2549C152.773 48.5273 152.7 48.8375 152.7 49.1853C152.7 49.5331 152.773 49.8432 152.917 50.1157C153.068 50.3881 153.271 50.5997 153.526 50.7505C153.787 50.8954 154.08 50.9678 154.404 50.9678ZM160.745 51.4722L159.293 49.5592L157.832 51.4722H157.136L158.945 49.1244L157.223 46.8984H157.919L159.293 48.6896L160.667 46.8984H161.345L159.623 49.1244L161.449 51.4722H160.745ZM164.187 51.5156C163.746 51.5156 163.349 51.4171 162.995 51.22C162.642 51.0171 162.364 50.7389 162.161 50.3852C161.958 50.0316 161.856 49.6316 161.856 49.1853C161.856 48.7389 161.958 48.3389 162.161 47.9853C162.364 47.6317 162.642 47.3564 162.995 47.1593C163.349 46.9622 163.746 46.8636 164.187 46.8636C164.627 46.8636 165.024 46.9622 165.378 47.1593C165.732 47.3564 166.007 47.6317 166.204 47.9853C166.407 48.3389 166.508 48.7389 166.508 49.1853C166.508 49.6316 166.407 50.0316 166.204 50.3852C166.007 50.7389 165.732 51.0171 165.378 51.22C165.024 51.4171 164.627 51.5156 164.187 51.5156ZM164.187 50.9678C164.511 50.9678 164.801 50.8954 165.056 50.7505C165.317 50.5997 165.52 50.3881 165.665 50.1157C165.81 49.8432 165.882 49.5331 165.882 49.1853C165.882 48.8375 165.81 48.5273 165.665 48.2549C165.52 47.9824 165.317 47.7737 165.056 47.6288C164.801 47.4781 164.511 47.4027 164.187 47.4027C163.862 47.4027 163.569 47.4781 163.308 47.6288C163.053 47.7737 162.85 47.9824 162.7 48.2549C162.555 48.5273 162.482 48.8375 162.482 49.1853C162.482 49.5331 162.555 49.8432 162.7 50.1157C162.85 50.3881 163.053 50.5997 163.308 50.7505C163.569 50.8954 163.862 50.9678 164.187 50.9678ZM172.263 50.9331V52.5765H171.68V51.4722H167.585V52.5765H167.002V50.9331H167.263C167.57 50.9157 167.779 50.6896 167.889 50.2548C167.999 49.82 168.075 49.2114 168.115 48.4288L168.176 46.8984H171.55V50.9331H172.263ZM168.681 48.4636C168.652 49.1128 168.596 49.649 168.515 50.0722C168.434 50.4896 168.289 50.7765 168.081 50.9331H170.933V47.4462H168.733L168.681 48.4636ZM175.353 51.5156C174.913 51.5156 174.515 51.4171 174.162 51.22C173.808 51.0171 173.53 50.7389 173.327 50.3852C173.124 50.0316 173.023 49.6316 173.023 49.1853C173.023 48.7389 173.124 48.3389 173.327 47.9853C173.53 47.6317 173.808 47.3564 174.162 47.1593C174.515 46.9622 174.913 46.8636 175.353 46.8636C175.794 46.8636 176.191 46.9622 176.544 47.1593C176.898 47.3564 177.173 47.6317 177.37 47.9853C177.573 48.3389 177.675 48.7389 177.675 49.1853C177.675 49.6316 177.573 50.0316 177.37 50.3852C177.173 50.7389 176.898 51.0171 176.544 51.22C176.191 51.4171 175.794 51.5156 175.353 51.5156ZM175.353 50.9678C175.678 50.9678 175.968 50.8954 176.223 50.7505C176.483 50.5997 176.686 50.3881 176.831 50.1157C176.976 49.8432 177.049 49.5331 177.049 49.1853C177.049 48.8375 176.976 48.5273 176.831 48.2549C176.686 47.9824 176.483 47.7737 176.223 47.6288C175.968 47.4781 175.678 47.4027 175.353 47.4027C175.028 47.4027 174.736 47.4781 174.475 47.6288C174.22 47.7737 174.017 47.9824 173.866 48.2549C173.721 48.5273 173.649 48.8375 173.649 49.1853C173.649 49.5331 173.721 49.8432 173.866 50.1157C174.017 50.3881 174.22 50.5997 174.475 50.7505C174.736 50.8954 175.028 50.9678 175.353 50.9678ZM181.907 49.107C182.527 49.2519 182.838 49.6258 182.838 50.2287C182.838 50.6287 182.69 50.936 182.394 51.1504C182.098 51.3649 181.658 51.4722 181.072 51.4722H178.994V46.8984H181.012C181.533 46.8984 181.942 46.9998 182.238 47.2027C182.533 47.4056 182.681 47.6955 182.681 48.0723C182.681 48.3215 182.611 48.536 182.472 48.7157C182.339 48.8896 182.151 49.0201 181.907 49.107ZM179.594 48.9331H180.968C181.322 48.9331 181.591 48.8665 181.777 48.7331C181.968 48.5998 182.064 48.4056 182.064 48.1505C182.064 47.8955 181.968 47.7042 181.777 47.5766C181.591 47.4491 181.322 47.3853 180.968 47.3853H179.594V48.9331ZM181.046 50.9852C181.44 50.9852 181.736 50.9215 181.933 50.7939C182.13 50.6664 182.229 50.4664 182.229 50.1939C182.229 49.9215 182.139 49.7215 181.959 49.594C181.78 49.4606 181.496 49.394 181.107 49.394H179.594V50.9852H181.046ZM189.473 49.107C190.093 49.2519 190.404 49.6258 190.404 50.2287C190.404 50.6287 190.256 50.936 189.96 51.1504C189.664 51.3649 189.224 51.4722 188.638 51.4722H186.56V46.8984H188.578C189.099 46.8984 189.508 46.9998 189.804 47.2027C190.099 47.4056 190.247 47.6955 190.247 48.0723C190.247 48.3215 190.177 48.536 190.038 48.7157C189.905 48.8896 189.717 49.0201 189.473 49.107ZM187.16 48.9331H188.534C188.888 48.9331 189.157 48.8665 189.343 48.7331C189.534 48.5998 189.63 48.4056 189.63 48.1505C189.63 47.8955 189.534 47.7042 189.343 47.5766C189.157 47.4491 188.888 47.3853 188.534 47.3853H187.16V48.9331ZM188.612 50.9852C189.006 50.9852 189.302 50.9215 189.499 50.7939C189.696 50.6664 189.795 50.4664 189.795 50.1939C189.795 49.9215 189.705 49.7215 189.525 49.594C189.346 49.4606 189.062 49.394 188.673 49.394H187.16V50.9852H188.612ZM197.361 47.4462H194.744V51.4722H194.126V46.8984H197.361V47.4462ZM199.928 51.5156C199.487 51.5156 199.09 51.4171 198.736 51.22C198.383 51.0171 198.105 50.7389 197.902 50.3852C197.699 50.0316 197.597 49.6316 197.597 49.1853C197.597 48.7389 197.699 48.3389 197.902 47.9853C198.105 47.6317 198.383 47.3564 198.736 47.1593C199.09 46.9622 199.487 46.8636 199.928 46.8636C200.368 46.8636 200.765 46.9622 201.119 47.1593C201.473 47.3564 201.748 47.6317 201.945 47.9853C202.148 48.3389 202.249 48.7389 202.249 49.1853C202.249 49.6316 202.148 50.0316 201.945 50.3852C201.748 50.7389 201.473 51.0171 201.119 51.22C200.765 51.4171 200.368 51.5156 199.928 51.5156ZM199.928 50.9678C200.252 50.9678 200.542 50.8954 200.797 50.7505C201.058 50.5997 201.261 50.3881 201.406 50.1157C201.551 49.8432 201.623 49.5331 201.623 49.1853C201.623 48.8375 201.551 48.5273 201.406 48.2549C201.261 47.9824 201.058 47.7737 200.797 47.6288C200.542 47.4781 200.252 47.4027 199.928 47.4027C199.603 47.4027 199.31 47.4781 199.049 47.6288C198.794 47.7737 198.592 47.9824 198.441 48.2549C198.296 48.5273 198.223 48.8375 198.223 49.1853C198.223 49.5331 198.296 49.8432 198.441 50.1157C198.592 50.3881 198.794 50.5997 199.049 50.7505C199.31 50.8954 199.603 50.9678 199.928 50.9678ZM205.925 46.8636C206.354 46.8636 206.743 46.9622 207.09 47.1593C207.438 47.3506 207.711 47.623 207.908 47.9766C208.105 48.3302 208.203 48.7331 208.203 49.1853C208.203 49.6432 208.105 50.049 207.908 50.4026C207.711 50.7562 207.438 51.0316 207.09 51.2287C206.748 51.42 206.36 51.5156 205.925 51.5156C205.554 51.5156 205.218 51.4403 204.917 51.2896C204.621 51.133 204.378 50.907 204.186 50.6113V53.1591H203.569V46.8984H204.16V47.8027C204.346 47.5013 204.589 47.2694 204.891 47.1071C205.198 46.9448 205.543 46.8636 205.925 46.8636ZM205.882 50.9678C206.201 50.9678 206.49 50.8954 206.751 50.7505C207.012 50.5997 207.215 50.3881 207.36 50.1157C207.511 49.8432 207.586 49.5331 207.586 49.1853C207.586 48.8375 207.511 48.5302 207.36 48.2636C207.215 47.9911 207.012 47.7795 206.751 47.6288C206.49 47.4781 206.201 47.4027 205.882 47.4027C205.557 47.4027 205.264 47.4781 205.004 47.6288C204.749 47.7795 204.546 47.9911 204.395 48.2636C204.25 48.5302 204.178 48.8375 204.178 49.1853C204.178 49.5331 204.25 49.8432 204.395 50.1157C204.546 50.3881 204.749 50.5997 205.004 50.7505C205.264 50.8954 205.557 50.9678 205.882 50.9678ZM211.452 48.5157C212.025 48.5215 212.463 48.6491 212.765 48.8983C213.066 49.1476 213.217 49.507 213.217 49.9766C213.217 50.4635 213.054 50.8374 212.73 51.0983C212.405 51.3591 211.941 51.4867 211.339 51.4809L209.53 51.4722V46.8984H210.147V48.4983L211.452 48.5157ZM213.982 46.8984H214.599V51.4722H213.982V46.8984ZM211.304 51.0113C211.727 51.0171 212.046 50.9331 212.26 50.7591C212.481 50.5794 212.591 50.3186 212.591 49.9766C212.591 49.6403 212.483 49.3911 212.269 49.2288C212.054 49.0664 211.733 48.9824 211.304 48.9766L210.147 48.9592V50.9939L211.304 51.0113Z" fill="#2D383F"/>
<defs>
<clipPath id="clip0">
<rect y="0.333008" width="60.667" height="60.667" fill="white"/>
</clipPath>
</defs>
</svg>
