<svg width="142" height="37" viewBox="0 0 142 37" fill="none" xmlns="http://www.w3.org/2000/svg">
<g clip-path="url(#clip0)">
<path d="M13.4925 23.7941L16.7243 20.4007L20.4004 23.7941H26.7024L16.6839 13.9775L6.74609 23.7941H13.4925Z" fill="white"/>
<path d="M22.7437 8.03908L17.9768 12.8868L21.1278 16.1186L22.7437 14.5027L31.5908 23.3093C29.5709 28.6822 24.4 32.5199 18.3 32.5199C10.4629 32.5199 4.12054 26.1775 4.12054 18.3404C4.16093 10.5033 10.5033 4.16093 18.3404 4.16093C25.2888 4.16093 31.106 9.21061 32.2775 15.7954L36.5597 20.3199C36.6405 19.6735 36.6809 18.9868 36.6809 18.3404C36.6809 13.4523 34.7822 8.84703 31.308 5.37286C27.8338 1.89868 23.2285 0 18.3404 0C13.4119 0 8.84703 1.89868 5.37286 5.37286C1.89868 8.84703 0 13.4119 0 18.3404C0 23.2689 1.89868 27.8338 5.37286 31.308C8.84703 34.7822 13.4523 36.6809 18.3404 36.6809C23.2285 36.6809 27.8338 34.7822 31.308 31.308C33.4491 29.1669 34.9842 26.6219 35.8325 23.8345C35.9941 23.3497 36.1153 22.8245 36.2365 22.3398L32.5199 18.4212L22.7437 8.03908Z" fill="white"/>
</g>
<path d="M52.1845 8.8H55.3525L53.6245 17.488H58.9685L58.4565 20H49.9445L52.1845 8.8ZM61.9501 8.8H65.1181L62.8781 20H59.7101L61.9501 8.8ZM70.044 11.248L69.548 13.712H74.492L73.996 16.16H69.068L68.3 20H65.132L67.372 8.8H76.14L75.644 11.248H70.044ZM80.2616 11.248L79.8936 13.136H84.8696L84.4056 15.504H79.4136L79.0136 17.552H84.8856L84.3736 20H75.3976L77.6376 8.8H86.4056L85.9096 11.248H80.2616ZM90.2596 11.312H86.8196L87.3316 8.8H97.3636L96.8516 11.312H93.4276L91.6836 20H88.5156L90.2596 11.312ZM102.196 20.224C101.065 20.224 100.078 20.016 99.2356 19.6C98.4036 19.184 97.7583 18.6027 97.2996 17.856C96.8516 17.1093 96.6276 16.256 96.6276 15.296C96.6276 14.016 96.9209 12.864 97.5076 11.84C98.1049 10.816 98.9316 10.016 99.9876 9.44C101.054 8.864 102.265 8.576 103.62 8.576C104.75 8.576 105.732 8.784 106.564 9.2C107.406 9.616 108.052 10.1973 108.5 10.944C108.958 11.6907 109.188 12.544 109.188 13.504C109.188 14.784 108.889 15.936 108.292 16.96C107.705 17.984 106.878 18.784 105.812 19.36C104.756 19.936 103.55 20.224 102.196 20.224ZM102.468 17.6C103.172 17.6 103.79 17.424 104.324 17.072C104.857 16.72 105.268 16.2507 105.556 15.664C105.844 15.0667 105.988 14.4107 105.988 13.696C105.988 12.9387 105.753 12.336 105.284 11.888C104.825 11.4293 104.18 11.2 103.348 11.2C102.644 11.2 102.025 11.376 101.492 11.728C100.958 12.08 100.548 12.5547 100.26 13.152C99.9716 13.7387 99.8276 14.3893 99.8276 15.104C99.8276 15.8613 100.057 16.4693 100.516 16.928C100.985 17.376 101.636 17.6 102.468 17.6ZM115.135 20.224C114.164 20.224 113.327 20.064 112.623 19.744C111.919 19.4133 111.38 18.944 111.007 18.336C110.634 17.728 110.447 17.0133 110.447 16.192C110.447 15.8507 110.49 15.456 110.575 15.008L111.823 8.8H114.991L113.759 14.96C113.695 15.28 113.663 15.5733 113.663 15.84C113.663 17.0133 114.282 17.6 115.519 17.6C116.191 17.6 116.719 17.3973 117.103 16.992C117.498 16.576 117.791 15.8987 117.983 14.96L119.215 8.8H122.335L121.071 15.152C120.388 18.5333 118.41 20.224 115.135 20.224ZM133.793 12.368C133.793 13.392 133.521 14.2773 132.977 15.024C132.433 15.76 131.67 16.2987 130.689 16.64L132.593 20H129.281L127.617 17.024H126.017L125.425 20H122.257L124.497 8.8H129.281C130.71 8.8 131.82 9.11467 132.609 9.744C133.398 10.3733 133.793 11.248 133.793 12.368ZM130.593 12.672C130.593 12.2133 130.438 11.872 130.129 11.648C129.82 11.4133 129.388 11.296 128.833 11.296H127.169L126.497 14.576H128.385C129.089 14.576 129.633 14.4107 130.017 14.08C130.401 13.7493 130.593 13.28 130.593 12.672Z" fill="white"/>
<path d="M52.2385 30.2347C51.8225 30.2347 51.4445 30.1427 51.1045 29.9587C50.7685 29.7707 50.5045 29.5147 50.3125 29.1907C50.1245 28.8667 50.0305 28.5027 50.0305 28.0987C50.0305 27.6947 50.1245 27.3307 50.3125 27.0067C50.5045 26.6827 50.7685 26.4287 51.1045 26.2447C51.4445 26.0567 51.8225 25.9627 52.2385 25.9627C52.6545 25.9627 53.0285 26.0547 53.3605 26.2387C53.6965 26.4227 53.9605 26.6787 54.1525 27.0067C54.3445 27.3307 54.4405 27.6947 54.4405 28.0987C54.4405 28.5027 54.3445 28.8687 54.1525 29.1967C53.9605 29.5207 53.6965 29.7747 53.3605 29.9587C53.0285 30.1427 52.6545 30.2347 52.2385 30.2347ZM52.2385 29.8387C52.5705 29.8387 52.8705 29.7647 53.1385 29.6167C53.4065 29.4647 53.6165 29.2567 53.7685 28.9927C53.9205 28.7247 53.9965 28.4267 53.9965 28.0987C53.9965 27.7707 53.9205 27.4747 53.7685 27.2107C53.6165 26.9427 53.4065 26.7347 53.1385 26.5867C52.8705 26.4347 52.5705 26.3587 52.2385 26.3587C51.9065 26.3587 51.6045 26.4347 51.3325 26.5867C51.0645 26.7347 50.8525 26.9427 50.6965 27.2107C50.5445 27.4747 50.4685 27.7707 50.4685 28.0987C50.4685 28.4267 50.5445 28.7247 50.6965 28.9927C50.8525 29.2567 51.0645 29.4647 51.3325 29.6167C51.6045 29.7647 51.9065 29.8387 52.2385 29.8387ZM57.024 27.0187C57.32 27.0187 57.588 27.0867 57.828 27.2227C58.068 27.3547 58.256 27.5427 58.392 27.7867C58.528 28.0307 58.596 28.3087 58.596 28.6207C58.596 28.9367 58.528 29.2167 58.392 29.4607C58.256 29.7047 58.068 29.8947 57.828 30.0307C57.592 30.1627 57.324 30.2287 57.024 30.2287C56.768 30.2287 56.536 30.1767 56.328 30.0727C56.124 29.9647 55.956 29.8087 55.824 29.6047V31.3627H55.398V27.0427H55.806V27.6667C55.934 27.4587 56.102 27.2987 56.31 27.1867C56.522 27.0747 56.76 27.0187 57.024 27.0187ZM56.994 29.8507C57.214 29.8507 57.414 29.8007 57.594 29.7007C57.774 29.5967 57.914 29.4507 58.014 29.2627C58.118 29.0747 58.17 28.8607 58.17 28.6207C58.17 28.3807 58.118 28.1687 58.014 27.9847C57.914 27.7967 57.774 27.6507 57.594 27.5467C57.414 27.4427 57.214 27.3907 56.994 27.3907C56.77 27.3907 56.568 27.4427 56.388 27.5467C56.212 27.6507 56.072 27.7967 55.968 27.9847C55.868 28.1687 55.818 28.3807 55.818 28.6207C55.818 28.8607 55.868 29.0747 55.968 29.2627C56.072 29.4507 56.212 29.5967 56.388 29.7007C56.568 29.8007 56.77 29.8507 56.994 29.8507ZM61.7433 27.4207H59.9373V30.1987H59.5113V27.0427H61.7433V27.4207ZM63.4449 27.0187C63.8569 27.0187 64.1729 27.1227 64.3929 27.3307C64.6129 27.5347 64.7229 27.8387 64.7229 28.2427V30.1987H64.3149V29.7067C64.2189 29.8707 64.0769 29.9987 63.8889 30.0907C63.7049 30.1827 63.4849 30.2287 63.2289 30.2287C62.8769 30.2287 62.5969 30.1447 62.3889 29.9767C62.1809 29.8087 62.0769 29.5867 62.0769 29.3107C62.0769 29.0427 62.1729 28.8267 62.3649 28.6627C62.5609 28.4987 62.8709 28.4167 63.2949 28.4167H64.2969V28.2247C64.2969 27.9527 64.2209 27.7467 64.0689 27.6067C63.9169 27.4627 63.6949 27.3907 63.4029 27.3907C63.2029 27.3907 63.0109 27.4247 62.8269 27.4927C62.6429 27.5567 62.4849 27.6467 62.3529 27.7627L62.1609 27.4447C62.3209 27.3087 62.5129 27.2047 62.7369 27.1327C62.9609 27.0567 63.1969 27.0187 63.4449 27.0187ZM63.2949 29.8927C63.5349 29.8927 63.7409 29.8387 63.9129 29.7307C64.0849 29.6187 64.2129 29.4587 64.2969 29.2507V28.7347H63.3069C62.7669 28.7347 62.4969 28.9227 62.4969 29.2987C62.4969 29.4827 62.5669 29.6287 62.7069 29.7367C62.8469 29.8407 63.0429 29.8927 63.2949 29.8927ZM65.857 27.0427H66.283V28.4407H68.269V27.0427H68.695V30.1987H68.269V28.8067H66.283V30.1987H65.857V27.0427ZM69.9058 27.0427H70.3318V29.5507L72.4378 27.0427H72.8158V30.1987H72.3898V27.6907L70.2898 30.1987H69.9058V27.0427ZM75.5082 28.5547C75.7322 28.6067 75.9042 28.6967 76.0242 28.8247C76.1482 28.9527 76.2102 29.1087 76.2102 29.2927C76.2102 29.4767 76.1462 29.6407 76.0182 29.7847C75.8942 29.9287 75.7242 30.0407 75.5082 30.1207C75.2922 30.1967 75.0542 30.2347 74.7942 30.2347C74.5662 30.2347 74.3422 30.2027 74.1222 30.1387C73.9022 30.0707 73.7102 29.9727 73.5462 29.8447L73.6902 29.5267C73.8342 29.6347 74.0022 29.7187 74.1942 29.7787C74.3862 29.8387 74.5802 29.8687 74.7762 29.8687C75.0682 29.8687 75.3062 29.8147 75.4902 29.7067C75.6782 29.5947 75.7722 29.4447 75.7722 29.2567C75.7722 29.0887 75.6962 28.9587 75.5442 28.8667C75.3922 28.7707 75.1842 28.7227 74.9202 28.7227H74.3802V28.4107H74.8962C75.1322 28.4107 75.3222 28.3667 75.4662 28.2787C75.6102 28.1867 75.6822 28.0647 75.6822 27.9127C75.6822 27.7447 75.6002 27.6127 75.4362 27.5167C75.2762 27.4207 75.0662 27.3727 74.8062 27.3727C74.4662 27.3727 74.1302 27.4587 73.7982 27.6307L73.6782 27.3007C74.0542 27.1047 74.4442 27.0067 74.8482 27.0067C75.0882 27.0067 75.3042 27.0427 75.4962 27.1147C75.6922 27.1827 75.8442 27.2807 75.9522 27.4087C76.0642 27.5367 76.1202 27.6847 76.1202 27.8527C76.1202 28.0127 76.0642 28.1547 75.9522 28.2787C75.8442 28.4027 75.6962 28.4947 75.5082 28.5547ZM78.2633 27.0187C78.6753 27.0187 78.9913 27.1227 79.2113 27.3307C79.4313 27.5347 79.5413 27.8387 79.5413 28.2427V30.1987H79.1333V29.7067C79.0373 29.8707 78.8953 29.9987 78.7073 30.0907C78.5233 30.1827 78.3033 30.2287 78.0473 30.2287C77.6953 30.2287 77.4153 30.1447 77.2073 29.9767C76.9993 29.8087 76.8953 29.5867 76.8953 29.3107C76.8953 29.0427 76.9913 28.8267 77.1833 28.6627C77.3793 28.4987 77.6893 28.4167 78.1133 28.4167H79.1153V28.2247C79.1153 27.9527 79.0393 27.7467 78.8873 27.6067C78.7353 27.4627 78.5133 27.3907 78.2213 27.3907C78.0213 27.3907 77.8293 27.4247 77.6453 27.4927C77.4613 27.5567 77.3033 27.6467 77.1713 27.7627L76.9793 27.4447C77.1393 27.3087 77.3313 27.2047 77.5553 27.1327C77.7793 27.0567 78.0153 27.0187 78.2633 27.0187ZM78.1133 29.8927C78.3533 29.8927 78.5593 29.8387 78.7313 29.7307C78.9033 29.6187 79.0313 29.4587 79.1153 29.2507V28.7347H78.1253C77.5853 28.7347 77.3153 28.9227 77.3153 29.2987C77.3153 29.4827 77.3853 29.6287 77.5253 29.7367C77.6653 29.8407 77.8613 29.8927 78.1133 29.8927ZM83.9633 29.8267V30.9907H83.5613V30.1987H80.6753V27.0427H81.1013V29.8267H83.0273V27.0427H83.4533V29.8267H83.9633ZM84.7769 27.0427H85.2029V29.5507L87.3089 27.0427H87.6869V30.1987H87.2609V27.6907L85.1609 30.1987H84.7769V27.0427ZM91.3318 27.0427V30.1987H90.9418V29.1547H89.9518H89.8318L89.0998 30.1987H88.6378L89.4238 29.0947C89.1798 29.0267 88.9918 28.9107 88.8598 28.7467C88.7278 28.5827 88.6618 28.3747 88.6618 28.1227C88.6618 27.7707 88.7818 27.5027 89.0218 27.3187C89.2618 27.1347 89.5898 27.0427 90.0058 27.0427H91.3318ZM89.0938 28.1347C89.0938 28.6027 89.3918 28.8367 89.9878 28.8367H90.9418V27.4207H90.0178C89.4018 27.4207 89.0938 27.6587 89.0938 28.1347ZM96.9487 27.0427V30.1987H96.5227V27.4207H94.5427V30.1987H94.1167V27.0427H96.9487ZM99.4617 30.2287C99.1577 30.2287 98.8837 30.1607 98.6397 30.0247C98.3957 29.8847 98.2037 29.6927 98.0637 29.4487C97.9237 29.2047 97.8537 28.9287 97.8537 28.6207C97.8537 28.3127 97.9237 28.0367 98.0637 27.7927C98.2037 27.5487 98.3957 27.3587 98.6397 27.2227C98.8837 27.0867 99.1577 27.0187 99.4617 27.0187C99.7657 27.0187 100.04 27.0867 100.284 27.2227C100.528 27.3587 100.718 27.5487 100.854 27.7927C100.994 28.0367 101.064 28.3127 101.064 28.6207C101.064 28.9287 100.994 29.2047 100.854 29.4487C100.718 29.6927 100.528 29.8847 100.284 30.0247C100.04 30.1607 99.7657 30.2287 99.4617 30.2287ZM99.4617 29.8507C99.6857 29.8507 99.8857 29.8007 100.062 29.7007C100.242 29.5967 100.382 29.4507 100.482 29.2627C100.582 29.0747 100.632 28.8607 100.632 28.6207C100.632 28.3807 100.582 28.1667 100.482 27.9787C100.382 27.7907 100.242 27.6467 100.062 27.5467C99.8857 27.4427 99.6857 27.3907 99.4617 27.3907C99.2377 27.3907 99.0357 27.4427 98.8557 27.5467C98.6797 27.6467 98.5397 27.7907 98.4357 27.9787C98.3357 28.1667 98.2857 28.3807 98.2857 28.6207C98.2857 28.8607 98.3357 29.0747 98.4357 29.2627C98.5397 29.4507 98.6797 29.5967 98.8557 29.7007C99.0357 29.8007 99.2377 29.8507 99.4617 29.8507ZM103.837 30.1987L102.835 28.8787L101.827 30.1987H101.347L102.595 28.5787L101.407 27.0427H101.887L102.835 28.2787L103.783 27.0427H104.251L103.063 28.5787L104.323 30.1987H103.837ZM106.212 30.2287C105.908 30.2287 105.634 30.1607 105.39 30.0247C105.146 29.8847 104.954 29.6927 104.814 29.4487C104.674 29.2047 104.604 28.9287 104.604 28.6207C104.604 28.3127 104.674 28.0367 104.814 27.7927C104.954 27.5487 105.146 27.3587 105.39 27.2227C105.634 27.0867 105.908 27.0187 106.212 27.0187C106.516 27.0187 106.79 27.0867 107.034 27.2227C107.278 27.3587 107.468 27.5487 107.604 27.7927C107.744 28.0367 107.814 28.3127 107.814 28.6207C107.814 28.9287 107.744 29.2047 107.604 29.4487C107.468 29.6927 107.278 29.8847 107.034 30.0247C106.79 30.1607 106.516 30.2287 106.212 30.2287ZM106.212 29.8507C106.436 29.8507 106.636 29.8007 106.812 29.7007C106.992 29.5967 107.132 29.4507 107.232 29.2627C107.332 29.0747 107.382 28.8607 107.382 28.6207C107.382 28.3807 107.332 28.1667 107.232 27.9787C107.132 27.7907 106.992 27.6467 106.812 27.5467C106.636 27.4427 106.436 27.3907 106.212 27.3907C105.988 27.3907 105.786 27.4427 105.606 27.5467C105.43 27.6467 105.29 27.7907 105.186 27.9787C105.086 28.1667 105.036 28.3807 105.036 28.6207C105.036 28.8607 105.086 29.0747 105.186 29.2627C105.29 29.4507 105.43 29.5967 105.606 29.7007C105.786 29.8007 105.988 29.8507 106.212 29.8507ZM111.785 29.8267V30.9607H111.383V30.1987H108.557V30.9607H108.155V29.8267H108.335C108.547 29.8147 108.691 29.6587 108.767 29.3587C108.843 29.0587 108.895 28.6387 108.923 28.0987L108.965 27.0427H111.293V29.8267H111.785ZM109.313 28.1227C109.293 28.5707 109.255 28.9407 109.199 29.2327C109.143 29.5207 109.043 29.7187 108.899 29.8267H110.867V27.4207H109.349L109.313 28.1227ZM113.917 30.2287C113.613 30.2287 113.339 30.1607 113.095 30.0247C112.851 29.8847 112.659 29.6927 112.519 29.4487C112.379 29.2047 112.309 28.9287 112.309 28.6207C112.309 28.3127 112.379 28.0367 112.519 27.7927C112.659 27.5487 112.851 27.3587 113.095 27.2227C113.339 27.0867 113.613 27.0187 113.917 27.0187C114.221 27.0187 114.495 27.0867 114.739 27.2227C114.983 27.3587 115.173 27.5487 115.309 27.7927C115.449 28.0367 115.519 28.3127 115.519 28.6207C115.519 28.9287 115.449 29.2047 115.309 29.4487C115.173 29.6927 114.983 29.8847 114.739 30.0247C114.495 30.1607 114.221 30.2287 113.917 30.2287ZM113.917 29.8507C114.141 29.8507 114.341 29.8007 114.517 29.7007C114.697 29.5967 114.837 29.4507 114.937 29.2627C115.037 29.0747 115.087 28.8607 115.087 28.6207C115.087 28.3807 115.037 28.1667 114.937 27.9787C114.837 27.7907 114.697 27.6467 114.517 27.5467C114.341 27.4427 114.141 27.3907 113.917 27.3907C113.693 27.3907 113.491 27.4427 113.311 27.5467C113.135 27.6467 112.995 27.7907 112.891 27.9787C112.791 28.1667 112.741 28.3807 112.741 28.6207C112.741 28.8607 112.791 29.0747 112.891 29.2627C112.995 29.4507 113.135 29.5967 113.311 29.7007C113.491 29.8007 113.693 29.8507 113.917 29.8507ZM118.439 28.5667C118.867 28.6667 119.081 28.9247 119.081 29.3407C119.081 29.6167 118.979 29.8287 118.775 29.9767C118.571 30.1247 118.267 30.1987 117.863 30.1987H116.429V27.0427H117.821C118.181 27.0427 118.463 27.1127 118.667 27.2527C118.871 27.3927 118.973 27.5927 118.973 27.8527C118.973 28.0247 118.925 28.1727 118.829 28.2967C118.737 28.4167 118.607 28.5067 118.439 28.5667ZM116.843 28.4467H117.791C118.035 28.4467 118.221 28.4007 118.349 28.3087C118.481 28.2167 118.547 28.0827 118.547 27.9067C118.547 27.7307 118.481 27.5987 118.349 27.5107C118.221 27.4227 118.035 27.3787 117.791 27.3787H116.843V28.4467ZM117.845 29.8627C118.117 29.8627 118.321 29.8187 118.457 29.7307C118.593 29.6427 118.661 29.5047 118.661 29.3167C118.661 29.1287 118.599 28.9907 118.475 28.9027C118.351 28.8107 118.155 28.7647 117.887 28.7647H116.843V29.8627H117.845ZM123.66 28.5667C124.088 28.6667 124.302 28.9247 124.302 29.3407C124.302 29.6167 124.2 29.8287 123.996 29.9767C123.792 30.1247 123.488 30.1987 123.084 30.1987H121.65V27.0427H123.042C123.402 27.0427 123.684 27.1127 123.888 27.2527C124.092 27.3927 124.194 27.5927 124.194 27.8527C124.194 28.0247 124.146 28.1727 124.05 28.2967C123.958 28.4167 123.828 28.5067 123.66 28.5667ZM122.064 28.4467H123.012C123.256 28.4467 123.442 28.4007 123.57 28.3087C123.702 28.2167 123.768 28.0827 123.768 27.9067C123.768 27.7307 123.702 27.5987 123.57 27.5107C123.442 27.4227 123.256 27.3787 123.012 27.3787H122.064V28.4467ZM123.066 29.8627C123.338 29.8627 123.542 29.8187 123.678 29.7307C123.814 29.6427 123.882 29.5047 123.882 29.3167C123.882 29.1287 123.82 28.9907 123.696 28.9027C123.572 28.8107 123.376 28.7647 123.108 28.7647H122.064V29.8627H123.066ZM129.103 27.4207H127.297V30.1987H126.871V27.0427H129.103V27.4207ZM130.874 30.2287C130.57 30.2287 130.296 30.1607 130.052 30.0247C129.808 29.8847 129.616 29.6927 129.476 29.4487C129.336 29.2047 129.266 28.9287 129.266 28.6207C129.266 28.3127 129.336 28.0367 129.476 27.7927C129.616 27.5487 129.808 27.3587 130.052 27.2227C130.296 27.0867 130.57 27.0187 130.874 27.0187C131.178 27.0187 131.452 27.0867 131.696 27.2227C131.94 27.3587 132.13 27.5487 132.266 27.7927C132.406 28.0367 132.476 28.3127 132.476 28.6207C132.476 28.9287 132.406 29.2047 132.266 29.4487C132.13 29.6927 131.94 29.8847 131.696 30.0247C131.452 30.1607 131.178 30.2287 130.874 30.2287ZM130.874 29.8507C131.098 29.8507 131.298 29.8007 131.474 29.7007C131.654 29.5967 131.794 29.4507 131.894 29.2627C131.994 29.0747 132.044 28.8607 132.044 28.6207C132.044 28.3807 131.994 28.1667 131.894 27.9787C131.794 27.7907 131.654 27.6467 131.474 27.5467C131.298 27.4427 131.098 27.3907 130.874 27.3907C130.65 27.3907 130.448 27.4427 130.268 27.5467C130.092 27.6467 129.952 27.7907 129.848 27.9787C129.748 28.1667 129.698 28.3807 129.698 28.6207C129.698 28.8607 129.748 29.0747 129.848 29.2627C129.952 29.4507 130.092 29.5967 130.268 29.7007C130.448 29.8007 130.65 29.8507 130.874 29.8507ZM135.012 27.0187C135.308 27.0187 135.576 27.0867 135.816 27.2227C136.056 27.3547 136.244 27.5427 136.38 27.7867C136.516 28.0307 136.584 28.3087 136.584 28.6207C136.584 28.9367 136.516 29.2167 136.38 29.4607C136.244 29.7047 136.056 29.8947 135.816 30.0307C135.58 30.1627 135.312 30.2287 135.012 30.2287C134.756 30.2287 134.524 30.1767 134.316 30.0727C134.112 29.9647 133.944 29.8087 133.812 29.6047V31.3627H133.386V27.0427H133.794V27.6667C133.922 27.4587 134.09 27.2987 134.298 27.1867C134.51 27.0747 134.748 27.0187 135.012 27.0187ZM134.982 29.8507C135.202 29.8507 135.402 29.8007 135.582 29.7007C135.762 29.5967 135.902 29.4507 136.002 29.2627C136.106 29.0747 136.158 28.8607 136.158 28.6207C136.158 28.3807 136.106 28.1687 136.002 27.9847C135.902 27.7967 135.762 27.6507 135.582 27.5467C135.402 27.4427 135.202 27.3907 134.982 27.3907C134.758 27.3907 134.556 27.4427 134.376 27.5467C134.2 27.6507 134.06 27.7967 133.956 27.9847C133.856 28.1687 133.806 28.3807 133.806 28.6207C133.806 28.8607 133.856 29.0747 133.956 29.2627C134.06 29.4507 134.2 29.5967 134.376 29.7007C134.556 29.8007 134.758 29.8507 134.982 29.8507ZM138.826 28.1587C139.222 28.1627 139.524 28.2507 139.732 28.4227C139.94 28.5947 140.044 28.8427 140.044 29.1667C140.044 29.5027 139.932 29.7607 139.708 29.9407C139.484 30.1207 139.164 30.2087 138.748 30.2047L137.5 30.1987V27.0427H137.926V28.1467L138.826 28.1587ZM140.572 27.0427H140.998V30.1987H140.572V27.0427ZM138.724 29.8807C139.016 29.8847 139.236 29.8267 139.384 29.7067C139.536 29.5827 139.612 29.4027 139.612 29.1667C139.612 28.9347 139.538 28.7627 139.39 28.6507C139.242 28.5387 139.02 28.4807 138.724 28.4767L137.926 28.4647V29.8687L138.724 29.8807Z" fill="white"/>
<defs>
<clipPath id="clip0">
<rect width="36.6405" height="36.6405" fill="white"/>
</clipPath>
</defs>
</svg>
