<svg width="211" height="62" fill="none" xmlns="http://www.w3.org/2000/svg"><g clip-path="url(#clip0)" fill="#2D383F"><path d="M22.782 40.177l5.457-5.73 6.208 5.73h10.64L28.172 23.6l-16.78 16.576h11.391z"/><path d="M38.403 13.574l-8.049 8.186 5.32 5.457 2.73-2.729 14.938 14.87C49.932 48.431 41.2 54.911 30.9 54.911c-13.233 0-23.942-10.71-23.942-23.943.068-13.233 10.777-23.942 24.01-23.942 11.733 0 21.555 8.526 23.533 19.645l7.23 7.64a27.46 27.46 0 00.206-3.343c0-8.253-3.206-16.03-9.073-21.896C46.998 3.206 39.222 0 30.968 0c-8.322 0-16.03 3.206-21.896 9.072S0 22.646 0 30.968c0 8.322 3.206 16.03 9.072 21.896 5.866 5.867 13.643 9.073 21.896 9.073 8.254 0 16.03-3.206 21.896-9.073 3.616-3.615 6.208-7.912 7.64-12.619.273-.819.477-1.705.682-2.524l-6.275-6.616-16.508-17.53z"/></g><path d="M87.645 15.067h4.752L89.805 28.1h8.016l-.768 3.768H84.285l3.36-16.8zm14.648 0h4.752l-3.36 16.8h-4.752l3.36-16.8zm12.141 3.672l-.744 3.696h7.416l-.744 3.672h-7.392l-1.152 5.76h-4.752l3.36-16.8h13.152l-.744 3.672h-8.4zm15.326 0l-.552 2.832h7.464l-.696 3.552h-7.488l-.6 3.072h8.808l-.768 3.672h-13.464l3.36-16.8h13.152l-.744 3.672h-8.472zm14.997.096h-5.16l.768-3.768h15.048l-.768 3.768h-5.136l-2.616 13.032h-4.752l2.616-13.032zm17.904 13.368c-1.696 0-3.176-.312-4.44-.936-1.248-.624-2.216-1.496-2.904-2.616-.672-1.12-1.008-2.4-1.008-3.84 0-1.92.44-3.648 1.32-5.184a9.472 9.472 0 013.72-3.6c1.6-.864 3.416-1.296 5.448-1.296 1.696 0 3.168.312 4.416.936 1.264.624 2.232 1.496 2.904 2.616.688 1.12 1.032 2.4 1.032 3.84 0 1.92-.448 3.648-1.344 5.184-.88 1.536-2.12 2.736-3.72 3.6-1.584.864-3.392 1.296-5.424 1.296zm.408-3.936c1.056 0 1.984-.264 2.784-.792a5.255 5.255 0 001.848-2.112c.432-.896.648-1.88.648-2.952 0-1.136-.352-2.04-1.056-2.712-.688-.688-1.656-1.032-2.904-1.032-1.056 0-1.984.264-2.784.792a5.22 5.22 0 00-1.848 2.136c-.432.88-.648 1.856-.648 2.928 0 1.136.344 2.048 1.032 2.736.704.672 1.68 1.008 2.928 1.008zm19.001 3.936c-1.456 0-2.712-.24-3.768-.72-1.056-.496-1.864-1.2-2.424-2.112-.56-.912-.84-1.984-.84-3.216 0-.512.064-1.104.192-1.776l1.872-9.312h4.752l-1.848 9.24c-.096.48-.144.92-.144 1.32 0 1.76.928 2.64 2.784 2.64 1.008 0 1.8-.304 2.376-.912.592-.624 1.032-1.64 1.32-3.048l1.848-9.24h4.68l-1.896 9.528c-1.024 5.072-3.992 7.608-8.904 7.608zm27.987-11.784c0 1.536-.408 2.864-1.224 3.984-.816 1.104-1.96 1.912-3.432 2.424l2.856 5.04h-4.968l-2.496-4.464h-2.4l-.888 4.464h-4.752l3.36-16.8h7.176c2.144 0 3.808.472 4.992 1.416 1.184.944 1.776 2.256 1.776 3.936zm-4.8.456c0-.688-.232-1.2-.696-1.536-.464-.352-1.112-.528-1.944-.528h-2.496l-1.008 4.92h2.832c1.056 0 1.872-.248 2.448-.744.576-.496.864-1.2.864-2.112zM87.3 51.022a3.125 3.125 0 01-1.511-.368 2.785 2.785 0 01-1.056-1.024 2.848 2.848 0 01-.376-1.456c0-.539.125-1.024.376-1.456a2.722 2.722 0 011.056-1.016 3.066 3.066 0 011.512-.376 3.03 3.03 0 011.496.368 2.7 2.7 0 011.056 1.024 2.8 2.8 0 01.384 1.456c0 .538-.128 1.026-.384 1.464a2.73 2.73 0 01-1.056 1.016 3.033 3.033 0 01-1.496.368zm0-.528a2.44 2.44 0 001.2-.296c.358-.203.638-.48.84-.832.203-.358.305-.755.305-1.192a2.33 2.33 0 00-.304-1.184 2.135 2.135 0 00-.84-.832 2.39 2.39 0 00-1.2-.304c-.443 0-.846.101-1.208.304a2.18 2.18 0 00-.848.832 2.33 2.33 0 00-.304 1.184c0 .437.101.834.304 1.192.208.352.49.629.848.832.362.197.765.296 1.208.296zm6.381-3.76c.395 0 .752.09 1.072.272.32.176.571.426.752.752.182.325.272.696.272 1.112 0 .421-.09.794-.272 1.12a1.943 1.943 0 01-.752.76 2.158 2.158 0 01-1.072.264c-.341 0-.65-.07-.928-.208a1.791 1.791 0 01-.672-.624v2.344h-.568v-5.76h.544v.832c.171-.278.395-.491.672-.64a2 2 0 01.952-.224zm-.04 3.776c.294 0 .56-.067.8-.2a1.44 1.44 0 00.56-.584c.139-.251.208-.536.208-.856 0-.32-.069-.603-.208-.848a1.442 1.442 0 00-.56-.584 1.57 1.57 0 00-.8-.208c-.298 0-.568.069-.808.208a1.515 1.515 0 00-.56.584 1.75 1.75 0 00-.2.848c0 .32.067.605.2.856.139.25.326.445.56.584.24.133.51.2.808.2zm6.333-3.24h-2.408v3.704h-.568v-4.208h2.976v.504zm2.269-.536c.549 0 .97.138 1.264.416.293.272.44.677.44 1.216v2.608h-.544v-.656a1.308 1.308 0 01-.568.512 1.95 1.95 0 01-.88.184c-.47 0-.843-.112-1.12-.336a1.083 1.083 0 01-.416-.888c0-.358.128-.646.384-.864.261-.219.674-.328 1.24-.328h1.336v-.256c0-.363-.102-.638-.304-.824-.203-.192-.499-.288-.888-.288-.267 0-.523.045-.768.136a1.877 1.877 0 00-.632.36l-.256-.424c.213-.182.469-.32.768-.416.298-.102.613-.152.944-.152zm-.2 3.832c.32 0 .594-.072.824-.216.229-.15.4-.363.512-.64v-.688h-1.32c-.72 0-1.08.25-1.08.752 0 .245.093.44.28.584.186.138.448.208.784.208zm3.416-3.8h.568v1.864h2.648v-1.864h.568v4.208h-.568v-1.856h-2.648v1.856h-.568v-4.208zm5.398 0h.568v3.344l2.808-3.344h.504v4.208h-.568V47.63l-2.8 3.344h-.512v-4.208zm7.47 2.016c.299.069.528.189.688.36.165.17.248.378.248.624a.958.958 0 01-.256.656 1.612 1.612 0 01-.68.448 2.848 2.848 0 01-.952.152c-.304 0-.603-.043-.896-.128a2.379 2.379 0 01-.768-.392l.192-.424c.192.144.416.256.672.336.256.08.515.12.776.12.389 0 .707-.072.952-.216.251-.15.376-.35.376-.6a.577.577 0 00-.304-.52c-.203-.128-.48-.192-.832-.192h-.72v-.416h.688c.315 0 .568-.059.76-.176.192-.123.288-.286.288-.488 0-.224-.109-.4-.328-.528-.213-.128-.493-.192-.84-.192-.453 0-.901.114-1.344.344l-.16-.44a3.332 3.332 0 011.56-.392c.32 0 .608.048.864.144.261.09.464.221.608.392.149.17.224.368.224.592a.824.824 0 01-.224.568 1.277 1.277 0 01-.592.368zM122 46.734c.55 0 .971.138 1.264.416.294.272.44.677.44 1.216v2.608h-.544v-.656a1.302 1.302 0 01-.568.512 1.945 1.945 0 01-.88.184c-.469 0-.842-.112-1.12-.336a1.086 1.086 0 01-.416-.888c0-.358.128-.646.384-.864.262-.219.675-.328 1.24-.328h1.336v-.256c0-.363-.101-.638-.304-.824-.202-.192-.498-.288-.888-.288-.266 0-.522.045-.768.136a1.887 1.887 0 00-.632.36l-.256-.424c.214-.182.47-.32.768-.416.299-.102.614-.152.944-.152zm-.2 3.832c.32 0 .595-.072.824-.216.23-.15.4-.363.512-.64v-.688h-1.32c-.72 0-1.08.25-1.08.752a.7.7 0 00.28.584c.187.138.448.208.784.208zm7.8-.088v1.552h-.536v-1.056h-3.848v-4.208h.568v3.712h2.568v-3.712h.568v3.712h.68zm1.085-3.712h.568v3.344l2.808-3.344h.504v4.208h-.568V47.63l-2.8 3.344h-.512v-4.208zm8.74 0v4.208h-.52v-1.392h-1.48l-.976 1.392h-.616l1.048-1.472c-.325-.091-.576-.246-.752-.464-.176-.219-.264-.496-.264-.832 0-.47.16-.827.48-1.072.32-.246.757-.368 1.312-.368h1.768zm-2.984 1.456c0 .624.397.936 1.192.936h1.272V47.27h-1.232c-.821 0-1.232.317-1.232.952zm10.473-1.456v4.208h-.568V47.27h-2.64v3.704h-.568v-4.208h3.776zm3.351 4.248c-.405 0-.771-.091-1.096-.272a2.046 2.046 0 01-.768-.768 2.175 2.175 0 01-.28-1.104c0-.411.093-.779.28-1.104a1.99 1.99 0 01.768-.76 2.213 2.213 0 011.096-.272c.405 0 .771.09 1.096.272.325.181.579.434.76.76.187.325.28.693.28 1.104 0 .41-.093.778-.28 1.104a1.983 1.983 0 01-.76.768 2.212 2.212 0 01-1.096.272zm0-.504c.299 0 .565-.067.8-.2.24-.139.427-.334.56-.584a1.8 1.8 0 00.2-.856c0-.32-.067-.606-.2-.856a1.388 1.388 0 00-.56-.576 1.543 1.543 0 00-.8-.208c-.299 0-.568.069-.808.208a1.457 1.457 0 00-.56.576c-.133.25-.2.536-.2.856 0 .32.067.605.2.856.139.25.325.445.56.584.24.133.509.2.808.2zm5.833.464l-1.336-1.76-1.344 1.76h-.64l1.664-2.16-1.584-2.048h.64l1.264 1.648 1.264-1.648h.624l-1.584 2.048 1.68 2.16h-.648zm3.167.04c-.405 0-.771-.091-1.096-.272a2.046 2.046 0 01-.768-.768 2.175 2.175 0 01-.28-1.104c0-.411.093-.779.28-1.104a1.99 1.99 0 01.768-.76 2.213 2.213 0 011.096-.272c.405 0 .771.09 1.096.272.325.181.579.434.76.76.187.325.28.693.28 1.104 0 .41-.093.778-.28 1.104a1.983 1.983 0 01-.76.768 2.212 2.212 0 01-1.096.272zm0-.504c.299 0 .565-.067.8-.2.24-.139.427-.334.56-.584a1.8 1.8 0 00.2-.856c0-.32-.067-.606-.2-.856a1.388 1.388 0 00-.56-.576 1.543 1.543 0 00-.8-.208c-.299 0-.568.069-.808.208a1.457 1.457 0 00-.56.576c-.133.25-.2.536-.2.856 0 .32.067.605.2.856.139.25.325.445.56.584.24.133.509.2.808.2zm7.43-.032v1.512h-.536v-1.016h-3.768v1.016h-.536v-1.512h.24c.283-.016.475-.224.576-.624.102-.4.171-.96.208-1.68l.056-1.408h3.104v3.712h.656zm-3.296-2.272c-.026.597-.077 1.09-.152 1.48-.074.384-.208.648-.4.792h2.624V47.27h-2.024l-.048.936zm6.139 2.808c-.405 0-.77-.091-1.096-.272a2.046 2.046 0 01-.768-.768 2.185 2.185 0 01-.28-1.104c0-.411.094-.779.28-1.104a1.99 1.99 0 01.768-.76 2.215 2.215 0 011.096-.272c.406 0 .771.09 1.096.272.326.181.579.434.76.76.187.325.28.693.28 1.104 0 .41-.093.778-.28 1.104a1.977 1.977 0 01-.76.768c-.325.181-.69.272-1.096.272zm0-.504c.299 0 .566-.067.8-.2.24-.139.427-.334.56-.584.134-.251.2-.536.2-.856 0-.32-.066-.606-.2-.856a1.388 1.388 0 00-.56-.576 1.54 1.54 0 00-.8-.208c-.298 0-.568.069-.808.208a1.464 1.464 0 00-.56.576c-.133.25-.2.536-.2.856 0 .32.067.605.2.856.139.25.326.445.56.584.24.133.51.2.808.2zm6.03-1.712c.571.133.856.477.856 1.032 0 .368-.136.65-.408.848-.272.197-.677.296-1.216.296h-1.912v-4.208h1.856c.48 0 .856.093 1.128.28.272.186.408.453.408.8a.94.94 0 01-.192.592c-.122.16-.296.28-.52.36zm-2.128-.16h1.264c.326 0 .574-.062.744-.184a.613.613 0 00.264-.536c0-.235-.088-.411-.264-.528-.17-.118-.418-.176-.744-.176h-1.264v1.424zm1.336 1.888c.363 0 .635-.059.816-.176.182-.118.272-.302.272-.552 0-.251-.082-.435-.248-.552-.165-.123-.426-.184-.784-.184h-1.392v1.464h1.336zm7.753-1.728c.571.133.856.477.856 1.032 0 .368-.136.65-.408.848-.272.197-.677.296-1.216.296h-1.912v-4.208h1.856c.48 0 .856.093 1.128.28.272.186.408.453.408.8a.94.94 0 01-.192.592c-.122.16-.296.28-.52.36zm-2.128-.16h1.264c.326 0 .574-.062.744-.184a.613.613 0 00.264-.536c0-.235-.088-.411-.264-.528-.17-.118-.418-.176-.744-.176h-1.264v1.424zm1.336 1.888c.363 0 .635-.059.816-.176.182-.118.272-.302.272-.552 0-.251-.082-.435-.248-.552-.165-.123-.426-.184-.784-.184h-1.392v1.464h1.336zm8.049-3.256h-2.408v3.704h-.568v-4.208h2.976v.504zm2.362 3.744c-.406 0-.771-.091-1.096-.272a2.032 2.032 0 01-.768-.768 2.175 2.175 0 01-.28-1.104c0-.411.093-.779.28-1.104.186-.326.442-.579.768-.76a2.21 2.21 0 011.096-.272c.405 0 .77.09 1.096.272.325.181.578.434.76.76.186.325.28.693.28 1.104 0 .41-.094.778-.28 1.104a1.99 1.99 0 01-.76.768 2.214 2.214 0 01-1.096.272zm0-.504c.298 0 .565-.067.8-.2.24-.139.426-.334.56-.584a1.8 1.8 0 00.2-.856c0-.32-.067-.606-.2-.856a1.394 1.394 0 00-.56-.576 1.546 1.546 0 00-.8-.208c-.299 0-.568.069-.808.208a1.45 1.45 0 00-.56.576c-.134.25-.2.536-.2.856 0 .32.066.605.2.856.138.25.325.445.56.584.24.133.509.2.808.2zm5.518-3.776c.394 0 .752.09 1.072.272.32.176.57.426.752.752.181.325.272.696.272 1.112 0 .421-.091.794-.272 1.12a1.948 1.948 0 01-.752.76 2.159 2.159 0 01-1.072.264c-.342 0-.651-.07-.928-.208a1.791 1.791 0 01-.672-.624v2.344h-.568v-5.76h.544v.832c.17-.278.394-.491.672-.64.282-.15.6-.224.952-.224zm-.04 3.776c.293 0 .56-.067.8-.2.24-.139.426-.334.56-.584.138-.251.208-.536.208-.856a1.7 1.7 0 00-.208-.848 1.446 1.446 0 00-.56-.584 1.572 1.572 0 00-.8-.208c-.299 0-.568.069-.808.208a1.507 1.507 0 00-.56.584 1.74 1.74 0 00-.2.848c0 .32.066.605.2.856.138.25.325.445.56.584.24.133.509.2.808.2zm5.124-2.256c.528.005.931.122 1.208.352.277.229.416.56.416.992 0 .448-.149.792-.448 1.032-.299.24-.725.357-1.28.352l-1.664-.008v-4.208h.568v1.472l1.2.016zm2.328-1.488h.568v4.208h-.568v-4.208zm-2.464 3.784c.389.005.683-.072.88-.232.203-.166.304-.406.304-.72 0-.31-.099-.539-.296-.688-.197-.15-.493-.227-.888-.232l-1.064-.016v1.872l1.064.016z" fill="#2D383F"/><defs><clipPath id="clip0"><path fill="#fff" d="M0 0h61.868v61.868H0z"/></clipPath></defs></svg>