<svg width="211" height="62" viewBox="0 0 211 62" fill="none" xmlns="http://www.w3.org/2000/svg">
<g clip-path="url(#clip0)">
<path d="M22.7825 40.1768L28.2395 34.447L34.4468 40.1768H45.0878L28.1713 23.6013L11.3911 40.1768H22.7825Z" fill="#2D383F"/>
<path d="M38.4033 13.5742L30.3543 21.7596L35.6749 27.2166L38.4033 24.4881L53.3418 39.3583C49.9312 48.4305 41.2 54.9106 30.9 54.9106C17.6669 54.9106 6.95762 44.2014 6.95762 30.9682C7.02583 17.7351 17.7351 7.02583 30.9682 7.02583C42.7007 7.02583 52.5232 15.5523 54.5014 26.6709L61.7318 34.3106C61.8683 33.2192 61.9365 32.0596 61.9365 30.9682C61.9365 22.7146 58.7305 14.9384 52.8643 9.07219C46.998 3.20596 39.2219 0 30.9682 0C22.6464 0 14.9384 3.20596 9.07219 9.07219C3.20596 14.9384 0 22.6464 0 30.9682C0 39.2901 3.20596 46.998 9.07219 52.8643C14.9384 58.7305 22.7146 61.9365 30.9682 61.9365C39.2219 61.9365 46.998 58.7305 52.8643 52.8643C56.4795 49.249 59.0716 44.9517 60.504 40.2451C60.7769 39.4265 60.9815 38.5398 61.1861 37.7212L54.9106 31.1047L38.4033 13.5742Z" fill="#2D383F"/>
</g>
<path d="M87.6446 15.0674H92.3966L89.8046 28.0994H97.8206L97.0526 31.8674H84.2846L87.6446 15.0674ZM102.293 15.0674H107.045L103.685 31.8674H98.9331L102.293 15.0674ZM114.434 18.7394L113.69 22.4354H121.106L120.362 26.1074H112.97L111.818 31.8674H107.066L110.426 15.0674H123.578L122.834 18.7394H114.434ZM129.76 18.7394L129.208 21.5714H136.672L135.976 25.1234H128.488L127.888 28.1954H136.696L135.928 31.8674H122.464L125.824 15.0674H138.976L138.232 18.7394H129.76ZM144.757 18.8354H139.597L140.365 15.0674H155.413L154.645 18.8354H149.509L146.893 31.8674H142.141L144.757 18.8354ZM162.661 32.2034C160.965 32.2034 159.485 31.8914 158.221 31.2674C156.973 30.6434 156.005 29.7714 155.317 28.6514C154.645 27.5314 154.309 26.2514 154.309 24.8114C154.309 22.8914 154.749 21.1634 155.629 19.6274C156.525 18.0914 157.765 16.8914 159.349 16.0274C160.949 15.1634 162.765 14.7314 164.797 14.7314C166.493 14.7314 167.965 15.0434 169.213 15.6674C170.477 16.2914 171.445 17.1634 172.117 18.2834C172.805 19.4034 173.149 20.6834 173.149 22.1234C173.149 24.0434 172.701 25.7714 171.805 27.3074C170.925 28.8434 169.685 30.0434 168.085 30.9074C166.501 31.7714 164.693 32.2034 162.661 32.2034ZM163.069 28.2674C164.125 28.2674 165.053 28.0034 165.853 27.4754C166.653 26.9474 167.269 26.2434 167.701 25.3634C168.133 24.4674 168.349 23.4834 168.349 22.4114C168.349 21.2754 167.997 20.3714 167.293 19.6994C166.605 19.0114 165.637 18.6674 164.389 18.6674C163.333 18.6674 162.405 18.9314 161.605 19.4594C160.805 19.9874 160.189 20.6994 159.757 21.5954C159.325 22.4754 159.109 23.4514 159.109 24.5234C159.109 25.6594 159.453 26.5714 160.141 27.2594C160.845 27.9314 161.821 28.2674 163.069 28.2674ZM182.07 32.2034C180.614 32.2034 179.358 31.9634 178.302 31.4834C177.246 30.9874 176.438 30.2834 175.878 29.3714C175.318 28.4594 175.038 27.3874 175.038 26.1554C175.038 25.6434 175.102 25.0514 175.23 24.3794L177.102 15.0674H181.854L180.006 24.3074C179.91 24.7874 179.862 25.2274 179.862 25.6274C179.862 27.3874 180.79 28.2674 182.646 28.2674C183.654 28.2674 184.446 27.9634 185.022 27.3554C185.614 26.7314 186.054 25.7154 186.342 24.3074L188.19 15.0674H192.87L190.974 24.5954C189.95 29.6674 186.982 32.2034 182.07 32.2034ZM210.057 20.4194C210.057 21.9554 209.649 23.2834 208.833 24.4034C208.017 25.5074 206.873 26.3154 205.401 26.8274L208.257 31.8674H203.289L200.793 27.4034H198.393L197.505 31.8674H192.753L196.113 15.0674H203.289C205.433 15.0674 207.097 15.5394 208.281 16.4834C209.465 17.4274 210.057 18.7394 210.057 20.4194ZM205.257 20.8754C205.257 20.1874 205.025 19.6754 204.561 19.3394C204.097 18.9874 203.449 18.8114 202.617 18.8114H200.121L199.113 23.7314H201.945C203.001 23.7314 203.817 23.4834 204.393 22.9874C204.969 22.4914 205.257 21.7874 205.257 20.8754Z" fill="#2D383F"/>
<path d="M87.3006 51.0216C86.746 51.0216 86.242 50.899 85.7886 50.6536C85.3406 50.403 84.9886 50.0616 84.7326 49.6296C84.482 49.1976 84.3566 48.7123 84.3566 48.1736C84.3566 47.635 84.482 47.1496 84.7326 46.7176C84.9886 46.2856 85.3406 45.947 85.7886 45.7016C86.242 45.451 86.746 45.3256 87.3006 45.3256C87.8553 45.3256 88.354 45.4483 88.7966 45.6936C89.2446 45.939 89.5966 46.2803 89.8526 46.7176C90.1086 47.1496 90.2366 47.635 90.2366 48.1736C90.2366 48.7123 90.1086 49.2003 89.8526 49.6376C89.5966 50.0696 89.2446 50.4083 88.7966 50.6536C88.354 50.899 87.8553 51.0216 87.3006 51.0216ZM87.3006 50.4936C87.7433 50.4936 88.1433 50.395 88.5006 50.1976C88.858 49.995 89.138 49.7176 89.3406 49.3656C89.5433 49.0083 89.6446 48.611 89.6446 48.1736C89.6446 47.7363 89.5433 47.3416 89.3406 46.9896C89.138 46.6323 88.858 46.355 88.5006 46.1576C88.1433 45.955 87.7433 45.8536 87.3006 45.8536C86.858 45.8536 86.4553 45.955 86.0926 46.1576C85.7353 46.355 85.4526 46.6323 85.2446 46.9896C85.042 47.3416 84.9406 47.7363 84.9406 48.1736C84.9406 48.611 85.042 49.0083 85.2446 49.3656C85.4526 49.7176 85.7353 49.995 86.0926 50.1976C86.4553 50.395 86.858 50.4936 87.3006 50.4936ZM93.6813 46.7336C94.076 46.7336 94.4333 46.8243 94.7533 47.0056C95.0733 47.1816 95.324 47.4323 95.5053 47.7576C95.6867 48.083 95.7773 48.4536 95.7773 48.8696C95.7773 49.291 95.6867 49.6643 95.5053 49.9896C95.324 50.315 95.0733 50.5683 94.7533 50.7496C94.4387 50.9256 94.0813 51.0136 93.6813 51.0136C93.34 51.0136 93.0307 50.9443 92.7533 50.8056C92.4813 50.6616 92.2573 50.4536 92.0813 50.1816V52.5256H91.5133V46.7656H92.0573V47.5976C92.228 47.3203 92.452 47.107 92.7293 46.9576C93.012 46.8083 93.3293 46.7336 93.6813 46.7336ZM93.6413 50.5096C93.9347 50.5096 94.2013 50.443 94.4413 50.3096C94.6813 50.171 94.868 49.9763 95.0013 49.7256C95.14 49.475 95.2093 49.1896 95.2093 48.8696C95.2093 48.5496 95.14 48.267 95.0013 48.0216C94.868 47.771 94.6813 47.5763 94.4413 47.4376C94.2013 47.299 93.9347 47.2296 93.6413 47.2296C93.3427 47.2296 93.0733 47.299 92.8333 47.4376C92.5987 47.5763 92.412 47.771 92.2733 48.0216C92.14 48.267 92.0733 48.5496 92.0733 48.8696C92.0733 49.1896 92.14 49.475 92.2733 49.7256C92.412 49.9763 92.5987 50.171 92.8333 50.3096C93.0733 50.443 93.3427 50.5096 93.6413 50.5096ZM99.9737 47.2696H97.5657V50.9736H96.9977V46.7656H99.9737V47.2696ZM102.243 46.7336C102.792 46.7336 103.213 46.8723 103.507 47.1496C103.8 47.4216 103.947 47.827 103.947 48.3656V50.9736H103.403V50.3176C103.275 50.5363 103.085 50.707 102.835 50.8296C102.589 50.9523 102.296 51.0136 101.955 51.0136C101.485 51.0136 101.112 50.9016 100.835 50.6776C100.557 50.4536 100.419 50.1576 100.419 49.7896C100.419 49.4323 100.547 49.1443 100.803 48.9256C101.064 48.707 101.477 48.5976 102.043 48.5976H103.379V48.3416C103.379 47.979 103.277 47.7043 103.075 47.5176C102.872 47.3256 102.576 47.2296 102.187 47.2296C101.92 47.2296 101.664 47.275 101.419 47.3656C101.173 47.451 100.963 47.571 100.787 47.7256L100.531 47.3016C100.744 47.1203 101 46.9816 101.299 46.8856C101.597 46.7843 101.912 46.7336 102.243 46.7336ZM102.043 50.5656C102.363 50.5656 102.637 50.4936 102.867 50.3496C103.096 50.2003 103.267 49.987 103.379 49.7096V49.0216H102.059C101.339 49.0216 100.979 49.2723 100.979 49.7736C100.979 50.019 101.072 50.2136 101.259 50.3576C101.445 50.4963 101.707 50.5656 102.043 50.5656ZM105.459 46.7656H106.027V48.6296H108.675V46.7656H109.243V50.9736H108.675V49.1176H106.027V50.9736H105.459V46.7656ZM110.857 46.7656H111.425V50.1096L114.233 46.7656H114.737V50.9736H114.169V47.6296L111.369 50.9736H110.857V46.7656ZM118.327 48.7816C118.626 48.851 118.855 48.971 119.015 49.1416C119.18 49.3123 119.263 49.5203 119.263 49.7656C119.263 50.011 119.178 50.2296 119.007 50.4216C118.842 50.6136 118.615 50.763 118.327 50.8696C118.039 50.971 117.722 51.0216 117.375 51.0216C117.071 51.0216 116.772 50.979 116.479 50.8936C116.186 50.803 115.93 50.6723 115.711 50.5016L115.903 50.0776C116.095 50.2216 116.319 50.3336 116.575 50.4136C116.831 50.4936 117.09 50.5336 117.351 50.5336C117.74 50.5336 118.058 50.4616 118.303 50.3176C118.554 50.1683 118.679 49.9683 118.679 49.7176C118.679 49.4936 118.578 49.3203 118.375 49.1976C118.172 49.0696 117.895 49.0056 117.543 49.0056H116.823V48.5896H117.511C117.826 48.5896 118.079 48.531 118.271 48.4136C118.463 48.291 118.559 48.1283 118.559 47.9256C118.559 47.7016 118.45 47.5256 118.231 47.3976C118.018 47.2696 117.738 47.2056 117.391 47.2056C116.938 47.2056 116.49 47.3203 116.047 47.5496L115.887 47.1096C116.388 46.8483 116.908 46.7176 117.447 46.7176C117.767 46.7176 118.055 46.7656 118.311 46.8616C118.572 46.9523 118.775 47.083 118.919 47.2536C119.068 47.4243 119.143 47.6216 119.143 47.8456C119.143 48.059 119.068 48.2483 118.919 48.4136C118.775 48.579 118.578 48.7016 118.327 48.7816ZM122 46.7336C122.55 46.7336 122.971 46.8723 123.264 47.1496C123.558 47.4216 123.704 47.827 123.704 48.3656V50.9736H123.16V50.3176C123.032 50.5363 122.843 50.707 122.592 50.8296C122.347 50.9523 122.054 51.0136 121.712 51.0136C121.243 51.0136 120.87 50.9016 120.592 50.6776C120.315 50.4536 120.176 50.1576 120.176 49.7896C120.176 49.4323 120.304 49.1443 120.56 48.9256C120.822 48.707 121.235 48.5976 121.8 48.5976H123.136V48.3416C123.136 47.979 123.035 47.7043 122.832 47.5176C122.63 47.3256 122.334 47.2296 121.944 47.2296C121.678 47.2296 121.422 47.275 121.176 47.3656C120.931 47.451 120.72 47.571 120.544 47.7256L120.288 47.3016C120.502 47.1203 120.758 46.9816 121.056 46.8856C121.355 46.7843 121.67 46.7336 122 46.7336ZM121.8 50.5656C122.12 50.5656 122.395 50.4936 122.624 50.3496C122.854 50.2003 123.024 49.987 123.136 49.7096V49.0216H121.816C121.096 49.0216 120.736 49.2723 120.736 49.7736C120.736 50.019 120.83 50.2136 121.016 50.3576C121.203 50.4963 121.464 50.5656 121.8 50.5656ZM129.6 50.4776V52.0296H129.064V50.9736H125.216V46.7656H125.784V50.4776H128.352V46.7656H128.92V50.4776H129.6ZM130.685 46.7656H131.253V50.1096L134.061 46.7656H134.565V50.9736H133.997V47.6296L131.197 50.9736H130.685V46.7656ZM139.425 46.7656V50.9736H138.905V49.5816H137.585H137.425L136.449 50.9736H135.833L136.881 49.5016C136.556 49.411 136.305 49.2563 136.129 49.0376C135.953 48.819 135.865 48.5416 135.865 48.2056C135.865 47.7363 136.025 47.379 136.345 47.1336C136.665 46.8883 137.102 46.7656 137.657 46.7656H139.425ZM136.441 48.2216C136.441 48.8456 136.838 49.1576 137.633 49.1576H138.905V47.2696H137.673C136.852 47.2696 136.441 47.587 136.441 48.2216ZM146.914 46.7656V50.9736H146.346V47.2696H143.706V50.9736H143.138V46.7656H146.914ZM150.265 51.0136C149.86 51.0136 149.494 50.923 149.169 50.7416C148.844 50.555 148.588 50.299 148.401 49.9736C148.214 49.6483 148.121 49.2803 148.121 48.8696C148.121 48.459 148.214 48.091 148.401 47.7656C148.588 47.4403 148.844 47.187 149.169 47.0056C149.494 46.8243 149.86 46.7336 150.265 46.7336C150.67 46.7336 151.036 46.8243 151.361 47.0056C151.686 47.187 151.94 47.4403 152.121 47.7656C152.308 48.091 152.401 48.459 152.401 48.8696C152.401 49.2803 152.308 49.6483 152.121 49.9736C151.94 50.299 151.686 50.555 151.361 50.7416C151.036 50.923 150.67 51.0136 150.265 51.0136ZM150.265 50.5096C150.564 50.5096 150.83 50.443 151.065 50.3096C151.305 50.171 151.492 49.9763 151.625 49.7256C151.758 49.475 151.825 49.1896 151.825 48.8696C151.825 48.5496 151.758 48.2643 151.625 48.0136C151.492 47.763 151.305 47.571 151.065 47.4376C150.83 47.299 150.564 47.2296 150.265 47.2296C149.966 47.2296 149.697 47.299 149.457 47.4376C149.222 47.571 149.036 47.763 148.897 48.0136C148.764 48.2643 148.697 48.5496 148.697 48.8696C148.697 49.1896 148.764 49.475 148.897 49.7256C149.036 49.9763 149.222 50.171 149.457 50.3096C149.697 50.443 149.966 50.5096 150.265 50.5096ZM156.098 50.9736L154.762 49.2136L153.418 50.9736H152.778L154.442 48.8136L152.858 46.7656H153.498L154.762 48.4136L156.026 46.7656H156.65L155.066 48.8136L156.746 50.9736H156.098ZM159.265 51.0136C158.86 51.0136 158.494 50.923 158.169 50.7416C157.844 50.555 157.588 50.299 157.401 49.9736C157.214 49.6483 157.121 49.2803 157.121 48.8696C157.121 48.459 157.214 48.091 157.401 47.7656C157.588 47.4403 157.844 47.187 158.169 47.0056C158.494 46.8243 158.86 46.7336 159.265 46.7336C159.67 46.7336 160.036 46.8243 160.361 47.0056C160.686 47.187 160.94 47.4403 161.121 47.7656C161.308 48.091 161.401 48.459 161.401 48.8696C161.401 49.2803 161.308 49.6483 161.121 49.9736C160.94 50.299 160.686 50.555 160.361 50.7416C160.036 50.923 159.67 51.0136 159.265 51.0136ZM159.265 50.5096C159.564 50.5096 159.83 50.443 160.065 50.3096C160.305 50.171 160.492 49.9763 160.625 49.7256C160.758 49.475 160.825 49.1896 160.825 48.8696C160.825 48.5496 160.758 48.2643 160.625 48.0136C160.492 47.763 160.305 47.571 160.065 47.4376C159.83 47.299 159.564 47.2296 159.265 47.2296C158.966 47.2296 158.697 47.299 158.457 47.4376C158.222 47.571 158.036 47.763 157.897 48.0136C157.764 48.2643 157.697 48.5496 157.697 48.8696C157.697 49.1896 157.764 49.475 157.897 49.7256C158.036 49.9763 158.222 50.171 158.457 50.3096C158.697 50.443 158.966 50.5096 159.265 50.5096ZM166.695 50.4776V51.9896H166.159V50.9736H162.391V51.9896H161.855V50.4776H162.095C162.378 50.4616 162.57 50.2536 162.671 49.8536C162.773 49.4536 162.842 48.8936 162.879 48.1736L162.935 46.7656H166.039V50.4776H166.695ZM163.399 48.2056C163.373 48.803 163.322 49.2963 163.247 49.6856C163.173 50.0696 163.039 50.3336 162.847 50.4776H165.471V47.2696H163.447L163.399 48.2056ZM169.538 51.0136C169.133 51.0136 168.768 50.923 168.442 50.7416C168.117 50.555 167.861 50.299 167.674 49.9736C167.488 49.6483 167.394 49.2803 167.394 48.8696C167.394 48.459 167.488 48.091 167.674 47.7656C167.861 47.4403 168.117 47.187 168.442 47.0056C168.768 46.8243 169.133 46.7336 169.538 46.7336C169.944 46.7336 170.309 46.8243 170.634 47.0056C170.96 47.187 171.213 47.4403 171.394 47.7656C171.581 48.091 171.674 48.459 171.674 48.8696C171.674 49.2803 171.581 49.6483 171.394 49.9736C171.213 50.299 170.96 50.555 170.634 50.7416C170.309 50.923 169.944 51.0136 169.538 51.0136ZM169.538 50.5096C169.837 50.5096 170.104 50.443 170.338 50.3096C170.578 50.171 170.765 49.9763 170.898 49.7256C171.032 49.475 171.098 49.1896 171.098 48.8696C171.098 48.5496 171.032 48.2643 170.898 48.0136C170.765 47.763 170.578 47.571 170.338 47.4376C170.104 47.299 169.837 47.2296 169.538 47.2296C169.24 47.2296 168.97 47.299 168.73 47.4376C168.496 47.571 168.309 47.763 168.17 48.0136C168.037 48.2643 167.97 48.5496 167.97 48.8696C167.97 49.1896 168.037 49.475 168.17 49.7256C168.309 49.9763 168.496 50.171 168.73 50.3096C168.97 50.443 169.24 50.5096 169.538 50.5096ZM175.568 48.7976C176.139 48.931 176.424 49.275 176.424 49.8296C176.424 50.1976 176.288 50.4803 176.016 50.6776C175.744 50.875 175.339 50.9736 174.8 50.9736H172.888V46.7656H174.744C175.224 46.7656 175.6 46.859 175.872 47.0456C176.144 47.2323 176.28 47.499 176.28 47.8456C176.28 48.075 176.216 48.2723 176.088 48.4376C175.966 48.5976 175.792 48.7176 175.568 48.7976ZM173.44 48.6376H174.704C175.03 48.6376 175.278 48.5763 175.448 48.4536C175.624 48.331 175.712 48.1523 175.712 47.9176C175.712 47.683 175.624 47.507 175.448 47.3896C175.278 47.2723 175.03 47.2136 174.704 47.2136H173.44V48.6376ZM174.776 50.5256C175.139 50.5256 175.411 50.467 175.592 50.3496C175.774 50.2323 175.864 50.0483 175.864 49.7976C175.864 49.547 175.782 49.363 175.616 49.2456C175.451 49.123 175.19 49.0616 174.832 49.0616H173.44V50.5256H174.776ZM182.529 48.7976C183.1 48.931 183.385 49.275 183.385 49.8296C183.385 50.1976 183.249 50.4803 182.977 50.6776C182.705 50.875 182.3 50.9736 181.761 50.9736H179.849V46.7656H181.705C182.185 46.7656 182.561 46.859 182.833 47.0456C183.105 47.2323 183.241 47.499 183.241 47.8456C183.241 48.075 183.177 48.2723 183.049 48.4376C182.927 48.5976 182.753 48.7176 182.529 48.7976ZM180.401 48.6376H181.665C181.991 48.6376 182.239 48.5763 182.409 48.4536C182.585 48.331 182.673 48.1523 182.673 47.9176C182.673 47.683 182.585 47.507 182.409 47.3896C182.239 47.2723 181.991 47.2136 181.665 47.2136H180.401V48.6376ZM181.737 50.5256C182.1 50.5256 182.372 50.467 182.553 50.3496C182.735 50.2323 182.825 50.0483 182.825 49.7976C182.825 49.547 182.743 49.363 182.577 49.2456C182.412 49.123 182.151 49.0616 181.793 49.0616H180.401V50.5256H181.737ZM189.786 47.2696H187.378V50.9736H186.81V46.7656H189.786V47.2696ZM192.148 51.0136C191.742 51.0136 191.377 50.923 191.052 50.7416C190.726 50.555 190.47 50.299 190.284 49.9736C190.097 49.6483 190.004 49.2803 190.004 48.8696C190.004 48.459 190.097 48.091 190.284 47.7656C190.47 47.4403 190.726 47.187 191.052 47.0056C191.377 46.8243 191.742 46.7336 192.148 46.7336C192.553 46.7336 192.918 46.8243 193.244 47.0056C193.569 47.187 193.822 47.4403 194.004 47.7656C194.19 48.091 194.284 48.459 194.284 48.8696C194.284 49.2803 194.19 49.6483 194.004 49.9736C193.822 50.299 193.569 50.555 193.244 50.7416C192.918 50.923 192.553 51.0136 192.148 51.0136ZM192.148 50.5096C192.446 50.5096 192.713 50.443 192.948 50.3096C193.188 50.171 193.374 49.9763 193.508 49.7256C193.641 49.475 193.708 49.1896 193.708 48.8696C193.708 48.5496 193.641 48.2643 193.508 48.0136C193.374 47.763 193.188 47.571 192.948 47.4376C192.713 47.299 192.446 47.2296 192.148 47.2296C191.849 47.2296 191.58 47.299 191.34 47.4376C191.105 47.571 190.918 47.763 190.78 48.0136C190.646 48.2643 190.58 48.5496 190.58 48.8696C190.58 49.1896 190.646 49.475 190.78 49.7256C190.918 49.9763 191.105 50.171 191.34 50.3096C191.58 50.443 191.849 50.5096 192.148 50.5096ZM197.666 46.7336C198.06 46.7336 198.418 46.8243 198.738 47.0056C199.058 47.1816 199.308 47.4323 199.49 47.7576C199.671 48.083 199.762 48.4536 199.762 48.8696C199.762 49.291 199.671 49.6643 199.49 49.9896C199.308 50.315 199.058 50.5683 198.738 50.7496C198.423 50.9256 198.066 51.0136 197.666 51.0136C197.324 51.0136 197.015 50.9443 196.738 50.8056C196.466 50.6616 196.242 50.4536 196.066 50.1816V52.5256H195.498V46.7656H196.042V47.5976C196.212 47.3203 196.436 47.107 196.714 46.9576C196.996 46.8083 197.314 46.7336 197.666 46.7336ZM197.626 50.5096C197.919 50.5096 198.186 50.443 198.426 50.3096C198.666 50.171 198.852 49.9763 198.986 49.7256C199.124 49.475 199.194 49.1896 199.194 48.8696C199.194 48.5496 199.124 48.267 198.986 48.0216C198.852 47.771 198.666 47.5763 198.426 47.4376C198.186 47.299 197.919 47.2296 197.626 47.2296C197.327 47.2296 197.058 47.299 196.818 47.4376C196.583 47.5763 196.396 47.771 196.258 48.0216C196.124 48.267 196.058 48.5496 196.058 48.8696C196.058 49.1896 196.124 49.475 196.258 49.7256C196.396 49.9763 196.583 50.171 196.818 50.3096C197.058 50.443 197.327 50.5096 197.626 50.5096ZM202.75 48.2536C203.278 48.259 203.681 48.3763 203.958 48.6056C204.235 48.835 204.374 49.1656 204.374 49.5976C204.374 50.0456 204.225 50.3896 203.926 50.6296C203.627 50.8696 203.201 50.987 202.646 50.9816L200.982 50.9736V46.7656H201.55V48.2376L202.75 48.2536ZM205.078 46.7656H205.646V50.9736H205.078V46.7656ZM202.614 50.5496C203.003 50.555 203.297 50.4776 203.494 50.3176C203.697 50.1523 203.798 49.9123 203.798 49.5976C203.798 49.2883 203.699 49.059 203.502 48.9096C203.305 48.7603 203.009 48.683 202.614 48.6776L201.55 48.6616V50.5336L202.614 50.5496Z" fill="#2D383F"/>
<defs>
<clipPath id="clip0">
<rect width="61.8683" height="61.8683" fill="white"/>
</clipPath>
</defs>
</svg>
