<svg width="142" height="37" fill="none" xmlns="http://www.w3.org/2000/svg"><g clip-path="url(#clip0)" fill="#fff"><path d="M13.492 23.794l3.232-3.393 3.676 3.393h6.302l-10.018-9.817-9.938 9.817h6.746z"/><path d="M22.744 8.04l-4.767 4.847 3.15 3.232 1.617-1.616 8.847 8.806c-2.02 5.373-7.191 9.21-13.291 9.21-7.837 0-14.18-6.341-14.18-14.179.04-7.837 6.383-14.18 14.22-14.18 6.949 0 12.766 5.05 13.938 11.635l4.282 4.525c.08-.646.12-1.333.12-1.98 0-4.888-1.898-9.493-5.372-12.967A18.213 18.213 0 0018.34 0C13.412 0 8.847 1.899 5.373 5.373S0 13.412 0 18.34c0 4.929 1.899 9.494 5.373 12.968a18.213 18.213 0 0012.967 5.373c4.889 0 9.494-1.899 12.968-5.373 2.141-2.141 3.676-4.686 4.525-7.474.161-.484.282-1.01.404-1.494l-3.717-3.92-9.776-10.38z"/></g><path d="M52.184 8.8h3.169l-1.729 8.688h5.344L58.456 20h-8.512l2.24-11.2zm9.766 0h3.168L62.878 20H59.71l2.24-11.2zm8.094 2.448l-.496 2.464h4.944l-.496 2.448h-4.928L68.3 20h-3.168l2.24-11.2h8.768l-.496 2.448h-5.6zm10.218 0l-.368 1.888h4.976l-.464 2.368h-4.992l-.4 2.048h5.872L84.374 20h-8.976l2.24-11.2h8.768l-.496 2.448h-5.648zm9.998.064h-3.44l.512-2.512h10.032l-.512 2.512h-3.424L91.684 20h-3.168l1.744-8.688zm11.936 8.912c-1.131 0-2.118-.208-2.96-.624-.832-.416-1.478-.997-1.936-1.744-.448-.747-.672-1.6-.672-2.56 0-1.28.293-2.432.88-3.456a6.314 6.314 0 012.48-2.4c1.066-.576 2.277-.864 3.632-.864 1.13 0 2.112.208 2.944.624.842.416 1.488.997 1.936 1.744.458.747.688 1.6.688 2.56 0 1.28-.299 2.432-.896 3.456a6.183 6.183 0 01-2.48 2.4c-1.056.576-2.262.864-3.616.864zm.272-2.624c.704 0 1.322-.176 1.856-.528a3.506 3.506 0 001.232-1.408 4.471 4.471 0 00.432-1.968c0-.757-.235-1.36-.704-1.808-.459-.459-1.104-.688-1.936-.688-.704 0-1.323.176-1.856.528a3.475 3.475 0 00-1.232 1.424 4.364 4.364 0 00-.432 1.952c0 .757.229 1.365.688 1.824.469.448 1.12.672 1.952.672zm12.667 2.624c-.971 0-1.808-.16-2.512-.48-.704-.33-1.243-.8-1.616-1.408-.373-.608-.56-1.323-.56-2.144 0-.341.043-.736.128-1.184l1.248-6.208h3.168l-1.232 6.16c-.064.32-.096.613-.096.88 0 1.173.619 1.76 1.856 1.76.672 0 1.2-.203 1.584-.608.395-.416.688-1.093.88-2.032l1.232-6.16h3.12l-1.264 6.352c-.683 3.381-2.661 5.072-5.936 5.072zm18.658-7.856c0 1.024-.272 1.91-.816 2.656-.544.736-1.307 1.275-2.288 1.616l1.904 3.36h-3.312l-1.664-2.976h-1.6L125.425 20h-3.168l2.24-11.2h4.784c1.429 0 2.539.315 3.328.944.789.63 1.184 1.504 1.184 2.624zm-3.2.304c0-.459-.155-.8-.464-1.024-.309-.235-.741-.352-1.296-.352h-1.664l-.672 3.28h1.888c.704 0 1.248-.165 1.632-.496.384-.33.576-.8.576-1.408zM52.239 30.235c-.416 0-.794-.092-1.134-.276a2.087 2.087 0 01-.792-.768 2.136 2.136 0 01-.282-1.092c0-.404.093-.768.282-1.092a2.04 2.04 0 01.791-.762c.34-.188.718-.282 1.135-.282.416 0 .79.092 1.122.276.336.184.6.44.792.768.191.324.288.688.288 1.092 0 .404-.097.77-.288 1.098a2.043 2.043 0 01-.792.762 2.275 2.275 0 01-1.122.276zm0-.396c.332 0 .632-.074.9-.222a1.67 1.67 0 00.63-.624 1.78 1.78 0 00.227-.894c0-.328-.076-.624-.227-.888a1.602 1.602 0 00-.63-.624 1.792 1.792 0 00-.9-.228c-.332 0-.634.076-.906.228-.268.148-.48.356-.636.624-.153.264-.229.56-.229.888 0 .328.076.626.228.894a1.7 1.7 0 00.637.624c.272.148.574.222.906.222zm4.785-2.82c.296 0 .564.068.804.204.24.132.428.32.564.564.136.244.204.522.204.834 0 .316-.068.596-.204.84a1.458 1.458 0 01-.564.57 1.619 1.619 0 01-.804.198c-.256 0-.488-.052-.696-.156a1.343 1.343 0 01-.504-.468v1.758h-.426v-4.32h.408v.624c.128-.208.296-.368.504-.48.212-.112.45-.168.714-.168zm-.03 2.832c.22 0 .42-.05.6-.15.18-.104.32-.25.42-.438.104-.188.156-.402.156-.642s-.052-.452-.156-.636a1.08 1.08 0 00-.42-.438 1.178 1.178 0 00-.6-.156 1.19 1.19 0 00-.606.156c-.176.104-.316.25-.42.438-.1.184-.15.396-.15.636s.05.454.15.642c.104.188.244.334.42.438.18.1.382.15.606.15zm4.75-2.43h-1.807v2.778h-.426v-3.156h2.232v.378zm1.7-.402c.413 0 .729.104.949.312.22.204.33.508.33.912v1.956h-.408v-.492a.974.974 0 01-.426.384 1.461 1.461 0 01-.66.138c-.352 0-.632-.084-.84-.252a.814.814 0 01-.312-.666.81.81 0 01.288-.648c.196-.164.506-.246.93-.246h1.002v-.192c0-.272-.076-.478-.228-.618-.152-.144-.374-.216-.666-.216-.2 0-.392.034-.576.102a1.41 1.41 0 00-.474.27l-.192-.318c.16-.136.352-.24.576-.312.224-.076.46-.114.708-.114zm-.15 2.874c.24 0 .447-.054.619-.162.172-.112.3-.272.384-.48v-.516h-.99c-.54 0-.81.188-.81.564 0 .184.07.33.21.438.14.104.336.156.588.156zm2.563-2.85h.426v1.398h1.986v-1.398h.426v3.156h-.426v-1.392h-1.986v1.392h-.426v-3.156zm4.049 0h.426v2.508l2.106-2.508h.378v3.156h-.426V27.69l-2.1 2.508h-.384v-3.156zm5.602 1.512c.224.052.396.142.516.27a.647.647 0 01.186.468.72.72 0 01-.192.492 1.211 1.211 0 01-.51.336 2.139 2.139 0 01-.714.114c-.228 0-.452-.032-.672-.096a1.78 1.78 0 01-.576-.294l.144-.318c.144.108.312.192.504.252s.386.09.582.09c.292 0 .53-.054.714-.162.188-.112.282-.262.282-.45a.433.433 0 00-.228-.39c-.152-.096-.36-.144-.624-.144h-.54v-.312h.516c.236 0 .426-.044.57-.132.144-.092.216-.214.216-.366 0-.168-.082-.3-.246-.396-.16-.096-.37-.144-.63-.144-.34 0-.676.086-1.008.258l-.12-.33a2.5 2.5 0 011.17-.294c.24 0 .456.036.648.108.196.068.348.166.456.294a.654.654 0 01.168.444c0 .16-.056.302-.168.426a.96.96 0 01-.444.276zm2.755-1.536c.412 0 .728.104.948.312.22.204.33.508.33.912v1.956h-.408v-.492a.974.974 0 01-.426.384 1.461 1.461 0 01-.66.138c-.352 0-.632-.084-.84-.252a.814.814 0 01-.312-.666.81.81 0 01.288-.648c.196-.164.506-.246.93-.246h1.002v-.192c0-.272-.076-.478-.228-.618-.152-.144-.374-.216-.666-.216-.2 0-.392.034-.576.102a1.41 1.41 0 00-.474.27l-.192-.318c.16-.136.352-.24.576-.312.224-.076.46-.114.708-.114zm-.15 2.874c.24 0 .446-.054.618-.162.172-.112.3-.272.384-.48v-.516h-.99c-.54 0-.81.188-.81.564 0 .184.07.33.21.438.14.104.336.156.588.156zm5.85-.066v1.164h-.402v-.792h-2.886v-3.156h.426v2.784h1.926v-2.784h.426v2.784h.51zm.814-2.784h.426v2.508l2.106-2.508h.378v3.156h-.426V27.69l-2.1 2.508h-.384v-3.156zm6.555 0v3.156h-.39v-1.044h-1.11l-.732 1.044h-.462l.786-1.104a1.066 1.066 0 01-.564-.348.964.964 0 01-.198-.624c0-.352.12-.62.36-.804.24-.184.568-.276.984-.276h1.326zm-2.238 1.092c0 .468.298.702.894.702h.954V27.42h-.924c-.616 0-.924.238-.924.714zm7.855-1.092v3.156h-.426V27.42h-1.98v2.778h-.426v-3.156h2.832zm2.513 3.186a1.66 1.66 0 01-.822-.204 1.531 1.531 0 01-.576-.576c-.14-.244-.21-.52-.21-.828 0-.308.07-.584.21-.828.14-.244.332-.434.576-.57a1.66 1.66 0 01.822-.204c.304 0 .578.068.822.204.244.136.434.326.57.57.14.244.21.52.21.828 0 .308-.07.584-.21.828a1.488 1.488 0 01-.57.576 1.66 1.66 0 01-.822.204zm0-.378c.224 0 .424-.05.6-.15.18-.104.32-.25.42-.438.1-.188.15-.402.15-.642s-.05-.454-.15-.642c-.1-.188-.24-.332-.42-.432a1.159 1.159 0 00-.6-.156 1.19 1.19 0 00-.606.156c-.176.1-.316.244-.42.432-.1.188-.15.402-.15.642s.05.454.15.642c.104.188.244.334.42.438.18.1.382.15.606.15zm4.375.348l-1.002-1.32-1.008 1.32h-.48l1.248-1.62-1.188-1.536h.48l.948 1.236.948-1.236h.468l-1.188 1.536 1.26 1.62h-.486zm2.375.03a1.66 1.66 0 01-.822-.204 1.531 1.531 0 01-.576-.576c-.14-.244-.21-.52-.21-.828 0-.308.07-.584.21-.828.14-.244.332-.434.576-.57a1.66 1.66 0 01.822-.204c.304 0 .578.068.822.204.244.136.434.326.57.57.14.244.21.52.21.828 0 .308-.07.584-.21.828a1.488 1.488 0 01-.57.576 1.66 1.66 0 01-.822.204zm0-.378c.224 0 .424-.05.6-.15.18-.104.32-.25.42-.438.1-.188.15-.402.15-.642s-.05-.454-.15-.642c-.1-.188-.24-.332-.42-.432a1.157 1.157 0 00-.6-.156 1.19 1.19 0 00-.606.156c-.176.1-.316.244-.42.432-.1.188-.15.402-.15.642s.05.454.15.642c.104.188.244.334.42.438.18.1.382.15.606.15zm5.573-.024v1.134h-.402v-.762h-2.826v.762h-.402v-1.134h.18c.212-.012.356-.168.432-.468.076-.3.128-.72.156-1.26l.042-1.056h2.328v2.784h.492zm-2.472-1.704c-.02.448-.058.818-.114 1.11-.056.288-.156.486-.3.594h1.968V27.42h-1.518l-.036.702zm4.604 2.106a1.66 1.66 0 01-.822-.204 1.531 1.531 0 01-.576-.576c-.14-.244-.21-.52-.21-.828 0-.308.07-.584.21-.828.14-.244.332-.434.576-.57a1.66 1.66 0 01.822-.204c.304 0 .578.068.822.204.244.136.434.326.57.57.14.244.21.52.21.828 0 .308-.07.584-.21.828a1.488 1.488 0 01-.57.576 1.66 1.66 0 01-.822.204zm0-.378c.224 0 .424-.05.6-.15.18-.104.32-.25.42-.438.1-.188.15-.402.15-.642s-.05-.454-.15-.642c-.1-.188-.24-.332-.42-.432a1.157 1.157 0 00-.6-.156 1.19 1.19 0 00-.606.156c-.176.1-.316.244-.42.432-.1.188-.15.402-.15.642s.05.454.15.642c.104.188.244.334.42.438.18.1.382.15.606.15zm4.522-1.284c.428.1.642.358.642.774 0 .276-.102.488-.306.636-.204.148-.508.222-.912.222h-1.434v-3.156h1.392c.36 0 .642.07.846.21.204.14.306.34.306.6 0 .172-.048.32-.144.444a.826.826 0 01-.39.27zm-1.596-.12h.948c.244 0 .43-.046.558-.138a.46.46 0 00.198-.402.444.444 0 00-.198-.396c-.128-.088-.314-.132-.558-.132h-.948v1.068zm1.002 1.416c.272 0 .476-.044.612-.132.136-.088.204-.226.204-.414 0-.188-.062-.326-.186-.414-.124-.092-.32-.138-.588-.138h-1.044v1.098h1.002zm5.815-1.296c.428.1.642.358.642.774 0 .276-.102.488-.306.636-.204.148-.508.222-.912.222h-1.434v-3.156h1.392c.36 0 .642.07.846.21.204.14.306.34.306.6 0 .172-.048.32-.144.444a.826.826 0 01-.39.27zm-1.596-.12h.948c.244 0 .43-.046.558-.138a.46.46 0 00.198-.402.444.444 0 00-.198-.396c-.128-.088-.314-.132-.558-.132h-.948v1.068zm1.002 1.416c.272 0 .476-.044.612-.132.136-.088.204-.226.204-.414 0-.188-.062-.326-.186-.414-.124-.092-.32-.138-.588-.138h-1.044v1.098h1.002zm6.037-2.442h-1.806v2.778h-.426v-3.156h2.232v.378zm1.771 2.808a1.66 1.66 0 01-.822-.204 1.531 1.531 0 01-.576-.576c-.14-.244-.21-.52-.21-.828 0-.308.07-.584.21-.828.14-.244.332-.434.576-.57a1.66 1.66 0 01.822-.204c.304 0 .578.068.822.204.244.136.434.326.57.57.14.244.21.52.21.828 0 .308-.07.584-.21.828a1.488 1.488 0 01-.57.576 1.66 1.66 0 01-.822.204zm0-.378c.224 0 .424-.05.6-.15.18-.104.32-.25.42-.438.1-.188.15-.402.15-.642s-.05-.454-.15-.642c-.1-.188-.24-.332-.42-.432a1.157 1.157 0 00-.6-.156 1.19 1.19 0 00-.606.156c-.176.1-.316.244-.42.432-.1.188-.15.402-.15.642s.05.454.15.642c.104.188.244.334.42.438.18.1.382.15.606.15zm4.138-2.832c.296 0 .564.068.804.204.24.132.428.32.564.564.136.244.204.522.204.834 0 .316-.068.596-.204.84a1.458 1.458 0 01-.564.57 1.619 1.619 0 01-.804.198c-.256 0-.488-.052-.696-.156a1.343 1.343 0 01-.504-.468v1.758h-.426v-4.32h.408v.624c.128-.208.296-.368.504-.48.212-.112.45-.168.714-.168zm-.03 2.832c.22 0 .42-.05.6-.15.18-.104.32-.25.42-.438.104-.188.156-.402.156-.642s-.052-.452-.156-.636a1.08 1.08 0 00-.42-.438 1.178 1.178 0 00-.6-.156 1.19 1.19 0 00-.606.156c-.176.104-.316.25-.42.438-.1.184-.15.396-.15.636s.05.454.15.642c.104.188.244.334.42.438.18.1.382.15.606.15zm3.844-1.692c.396.004.698.092.906.264.208.172.312.42.312.744 0 .336-.112.594-.336.774-.224.18-.544.268-.96.264l-1.248-.006v-3.156h.426v1.104l.9.012zm1.746-1.116h.426v3.156h-.426v-3.156zm-1.848 2.838c.292.004.512-.054.66-.174.152-.124.228-.304.228-.54 0-.232-.074-.404-.222-.516-.148-.112-.37-.17-.666-.174l-.798-.012v1.404l.798.012z" fill="#fff"/><defs><clipPath id="clip0"><path fill="#fff" d="M0 0h36.641v36.641H0z"/></clipPath></defs></svg>