<svg width="25" height="25" fill="none" xmlns="http://www.w3.org/2000/svg"><g clip-path="url(#clip0)" fill="#2D383F"><path d="M23.415 24.188l-4.04-9.398-3.817-8.882a.477.477 0 00-.877 0l-3.407 7.904-1.335 3.106-2.93-6.76a.477.477 0 00-.877 0l-2.753 6.36-3.34 7.665a.477.477 0 00.44.668h22.498a.477.477 0 00.438-.663zm-8.3-16.892l3.096 7.199h-1.088l-1.965-2.171a.477.477 0 00-.754.062l-.735 1.135h-1.23l2.676-6.225zM6.57 11.532l2.447 5.658H7.682a.477.477 0 00-.4.22l-.478.758-1.23-1.737a.477.477 0 00-.391-.205h-.635l2.023-4.694zM1.228 23.897l2.905-6.717h.801l1.489 2.123a.477.477 0 00.391.205.477.477 0 00.391-.22l.735-1.134h1.488l2.486 5.724-10.686.02zm11.73 0l-2.5-5.772 1.57-3.65h1.908a.477.477 0 00.401-.219l.53-.816 1.688 1.866c.09.1.219.157.353.157h1.708l3.63 8.448-9.288-.014zM7.611 2.082a2.252 2.252 0 00-4.35.806 2.18 2.18 0 000 .248 2.252 2.252 0 00.906 4.293l.024.02H7.53a2.684 2.684 0 10.081-5.367zm-.053 4.427H4.22a1.3 1.3 0 11-.267-2.586.477.477 0 00.358-.62 1.298 1.298 0 112.505-.644c.043.25.276.423.529.391.071-.005.143-.005.214 0a1.73 1.73 0 010 3.459zM23.697 2.64a2.184 2.184 0 000-.248 2.252 2.252 0 00-4.343-.825 2.684 2.684 0 00.097 5.366h3.34a2.252 2.252 0 00.906-4.293zm.359 2.307a1.298 1.298 0 01-1.252 1.027h-3.339a1.73 1.73 0 010-3.458c.072-.005.143-.005.215 0a.477.477 0 00.515-.372 1.298 1.298 0 112.505.644.477.477 0 00.357.62c.701.15 1.148.838.999 1.54z"/></g><defs><clipPath id="clip0"><path fill="#fff" d="M0 0h25v25H0z"/></clipPath></defs></svg>