<svg width="24" height="22" fill="none" xmlns="http://www.w3.org/2000/svg"><path d="M23.658 14.616c.746-2.336.132-4.986-.52-6.822a.427.427 0 00-.063-.2 15.95 15.95 0 00-.601-1.441.852.852 0 00.537-.784v-3.55a.852.852 0 00-.853-.852h-10.47a.426.426 0 00-.425.452c.145 2.557-.043 4.29-.584 5.514a.377.377 0 00-.03.038.426.426 0 000 .064 4.41 4.41 0 01-.826 1.206l-.039.026v.03a6.15 6.15 0 01-1.704 1.15A29.31 29.31 0 014.714 10.7l-.218.072C.512 12.093-.008 14.488.001 15.689a.409.409 0 000 .051v3.043c0 .148.078.285.204.362.977.594 2.03 1.05 3.132 1.355a.426.426 0 00.541-.426v-.098h.627v.426a.426.426 0 00.358.426c.37.06.741.107 1.103.137a.426.426 0 00.46-.427v-.537h.627v.606c0 .235.19.426.426.426.358 0 .716 0 1.1-.051a.426.426 0 00.391-.427v-.553h.627v.375a.426.426 0 00.494.426c.782-.12 1.553-.304 2.305-.55l.068-.03c2.983-1.704 4.875-.302 4.952-.243.074.058.166.09.26.09h.528a.426.426 0 00.426-.426v-.72h.61v.711c0 .235.19.426.426.426h1.372c.235 0 .426-.19.426-.426v-.712h.63v.712c0 .235.191.426.427.426h1.052c.235 0 .426-.19.426-.426v-4.593a.426.426 0 00-.34-.426zM13.547 1.828h8.59v3.528h-8.59V1.828zM8.19 10.325l.004.025c.35.284.672.599.963.942a.805.805 0 00-.115.426.814.814 0 10.886-.805 6.574 6.574 0 00-.916-1.01c.38-.217.739-.471 1.07-.759.413.388.797.805 1.15 1.249a.814.814 0 10.763-.546h-.103c-.373-.47-.78-.913-1.218-1.325a5.3 5.3 0 00.537-.8c.66.342 1.297.727 1.909 1.15a.822.822 0 10.456-.73 18.84 18.84 0 00-2.007-1.184c.464-1.235.664-2.876.57-5.113h.559v3.528c0 .47.381.852.852.852h7.985c.111.226.299.618.503 1.13h-.175a4.687 4.687 0 00-2.76 8.45c-3.448.907-8.634 1.985-12.997 1.704.805-3.217-.158-5.199-.784-6.068.975-.32 1.933-.693 2.868-1.116zm-3.725 1.359c.46.541 1.662 2.36.78 5.706a10.704 10.704 0 01-4.372-1.322 2.704 2.704 0 01-.03-.294v-.03c-.034-.907.307-2.871 3.622-4.06zm18.48 7.525v-.712a.426.426 0 00-.425-.426h-1.479a.426.426 0 00-.426.426v.712h-.524v-.712a.426.426 0 00-.426-.426h-1.47a.426.426 0 00-.427.426v.695c-.579-.362-2.697-1.415-5.7.264-.535.177-1.08.319-1.633.426v-.294a.426.426 0 00-.426-.426H8.54a.426.426 0 00-.426.426v.584h-.217v-.597a.426.426 0 00-.427-.426H5.992a.426.426 0 00-.426.426v.508l-.218-.03v-.478a.426.426 0 00-.426-.426H3.444a.426.426 0 00-.426.375 11.48 11.48 0 01-2.174-.976v-1.525c1.858.984 4.262 1.355 6.818 1.355 6.792 0 14.565-2.6 15.48-2.91l.005 3.741h-.2zm-.208-4.495c-.362.119-1.253.426-2.484.754a3.835 3.835 0 012.113-7.261l.005.013c.626 1.806 1.188 4.384.366 6.493z" fill="#2D383F"/></svg>