<svg width="25" height="25" fill="none" xmlns="http://www.w3.org/2000/svg"><path d="M24.17 22.28V6.701a.463.463 0 00-.602-.463v.023l-2.084.653a6.25 6.25 0 00.384-1.82 5.094 5.094 0 10-10.188 0c.033.594.153 1.179.357 1.737L8.59 5.599a.493.493 0 00-.12 0h-.037a.463.463 0 00-.162.032l-7.146 2.78a.463.463 0 00-.297.388v15.597a.463.463 0 00.63.431l6.984-2.704 7.965 2.853c.097.032.2.032.297 0l7.141-2.233a.463.463 0 00.324-.463zM16.774.926a4.168 4.168 0 014.168 4.168c0 1.811-2.718 6.813-4.168 9.262-1.45-2.468-4.168-7.474-4.168-9.262A4.168 4.168 0 0116.774.926zm6.484 21.035l-6.234 1.95v-3.534a.463.463 0 00-.926 0v3.501l-7.197-2.575V18.34a.463.463 0 00-.926 0v2.964l-6.22 2.422v-7.16l2.288-.926a.463.463 0 10-.342-.856l-1.945.782V9.12l6.22-2.409V8.1a.463.463 0 00.925 0V6.692l3.552 1.274a64.306 64.306 0 003.923 7.558.463.463 0 00.792 0 64.57 64.57 0 003.909-7.512l2.167-.68.014 7.59-2.348.57a.466.466 0 00.111.925.459.459 0 00.111 0l2.126-.518v6.062z" fill="#2D383F"/></svg>