<svg width="108" height="31" viewBox="0 0 108 31" fill="none" xmlns="http://www.w3.org/2000/svg">
<g clip-path="url(#clip0)">
<path d="M11.1701 19.6984L13.8456 16.8891L16.889 19.6984H22.1062L13.8121 11.5715L5.58496 19.6984H11.1701Z" fill="white"/>
<path d="M18.8288 6.65531L14.8825 10.6686L17.4911 13.3441L18.8288 12.0063L26.153 19.297C24.4808 23.7451 20.2 26.9222 15.15 26.9222C8.66193 26.9222 3.41126 21.6716 3.41126 15.1835C3.44471 8.69538 8.69538 3.44471 15.1835 3.44471C20.9358 3.44471 25.7517 7.62518 26.7216 13.0765L30.2666 16.8222C30.3335 16.2871 30.3669 15.7186 30.3669 15.1835C30.3669 11.1368 28.7951 7.32418 25.9189 4.44802C23.0427 1.57186 19.2302 0 15.1835 0C11.1033 0 7.32418 1.57186 4.44802 4.44802C1.57186 7.32418 0 11.1033 0 15.1835C0 19.2636 1.57186 23.0427 4.44802 25.9189C7.32418 28.7951 11.1368 30.3669 15.1835 30.3669C19.2302 30.3669 23.0427 28.7951 25.9189 25.9189C27.6914 24.1464 28.9623 22.0394 29.6646 19.7318C29.7984 19.3305 29.8987 18.8957 29.9991 18.4944L26.9222 15.2504L18.8288 6.65531Z" fill="white"/>
</g>
<path d="M43.0077 7.94766H45.3837L44.0877 14.4637H48.0957L47.7117 16.3477H41.3277L43.0077 7.94766ZM50.332 7.94766H52.708L51.028 16.3477H48.652L50.332 7.94766ZM56.4024 9.78366L56.0304 11.6317H59.7384L59.3664 13.4677H55.6704L55.0944 16.3477H52.7184L54.3984 7.94766H60.9744L60.6024 9.78366H56.4024ZM64.0656 9.78366L63.7896 11.1997H67.5216L67.1736 12.9757H63.4296L63.1296 14.5117H67.5336L67.1496 16.3477H60.4176L62.0976 7.94766H68.6736L68.3016 9.78366H64.0656ZM71.5641 9.83166H68.9841L69.3681 7.94766H76.8921L76.5081 9.83166H73.9401L72.6321 16.3477H70.2561L71.5641 9.83166ZM80.5161 16.5157C79.6681 16.5157 78.9281 16.3597 78.2961 16.0477C77.6721 15.7357 77.1881 15.2997 76.8441 14.7397C76.5081 14.1797 76.3401 13.5397 76.3401 12.8197C76.3401 11.8597 76.5601 10.9957 77.0001 10.2277C77.4481 9.45966 78.0681 8.85966 78.8601 8.42766C79.6601 7.99566 80.5681 7.77966 81.5841 7.77966C82.4321 7.77966 83.1681 7.93566 83.7921 8.24766C84.4241 8.55966 84.9081 8.99566 85.2441 9.55566C85.5881 10.1157 85.7601 10.7557 85.7601 11.4757C85.7601 12.4357 85.5361 13.2997 85.0881 14.0677C84.6481 14.8357 84.0281 15.4357 83.2281 15.8677C82.4361 16.2997 81.5321 16.5157 80.5161 16.5157ZM80.7201 14.5477C81.2481 14.5477 81.7121 14.4157 82.1121 14.1517C82.5121 13.8877 82.8201 13.5357 83.0361 13.0957C83.2521 12.6477 83.3601 12.1557 83.3601 11.6197C83.3601 11.0517 83.1841 10.5997 82.8321 10.2637C82.4881 9.91966 82.0041 9.74766 81.3801 9.74766C80.8521 9.74766 80.3881 9.87966 79.9881 10.1437C79.5881 10.4077 79.2801 10.7637 79.0641 11.2117C78.8481 11.6517 78.7401 12.1397 78.7401 12.6757C78.7401 13.2437 78.9121 13.6997 79.2561 14.0437C79.6081 14.3797 80.0961 14.5477 80.7201 14.5477ZM90.2205 16.5157C89.4925 16.5157 88.8645 16.3957 88.3365 16.1557C87.8085 15.9077 87.4045 15.5557 87.1245 15.0997C86.8445 14.6437 86.7045 14.1077 86.7045 13.4917C86.7045 13.2357 86.7365 12.9397 86.8005 12.6037L87.7365 7.94766H90.1125L89.1885 12.5677C89.1405 12.8077 89.1165 13.0277 89.1165 13.2277C89.1165 14.1077 89.5805 14.5477 90.5085 14.5477C91.0125 14.5477 91.4085 14.3957 91.6965 14.0917C91.9925 13.7797 92.2125 13.2717 92.3565 12.5677L93.2805 7.94766H95.6205L94.6725 12.7117C94.1605 15.2477 92.6765 16.5157 90.2205 16.5157ZM104.214 10.6237C104.214 11.3917 104.01 12.0557 103.602 12.6157C103.194 13.1677 102.622 13.5717 101.886 13.8277L103.314 16.3477H100.83L99.5821 14.1157H98.3821L97.9381 16.3477H95.5621L97.2421 7.94766H100.83C101.902 7.94766 102.734 8.18366 103.326 8.65566C103.918 9.12766 104.214 9.78366 104.214 10.6237ZM101.814 10.8517C101.814 10.5077 101.698 10.2517 101.466 10.0837C101.234 9.90766 100.91 9.81966 100.494 9.81966H99.2461L98.7421 12.2797H100.158C100.686 12.2797 101.094 12.1557 101.382 11.9077C101.67 11.6597 101.814 11.3077 101.814 10.8517Z" fill="white"/>
<path d="M42.8478 25.0957C42.5463 25.0957 42.2724 25.029 42.0261 24.8957C41.7826 24.7594 41.5913 24.5739 41.4522 24.3392C41.3159 24.1044 41.2478 23.8406 41.2478 23.5479C41.2478 23.2551 41.3159 22.9914 41.4522 22.7566C41.5913 22.5218 41.7826 22.3378 42.0261 22.2045C42.2724 22.0682 42.5463 22.0001 42.8478 22.0001C43.1492 22.0001 43.4202 22.0668 43.6608 22.2001C43.9043 22.3334 44.0956 22.5189 44.2347 22.7566C44.3738 22.9914 44.4434 23.2551 44.4434 23.5479C44.4434 23.8406 44.3738 24.1058 44.2347 24.3435C44.0956 24.5783 43.9043 24.7623 43.6608 24.8957C43.4202 25.029 43.1492 25.0957 42.8478 25.0957ZM42.8478 24.8087C43.0883 24.8087 43.3057 24.7551 43.4999 24.6479C43.6941 24.5377 43.8463 24.387 43.9564 24.1957C44.0666 24.0015 44.1216 23.7856 44.1216 23.5479C44.1216 23.3102 44.0666 23.0957 43.9564 22.9044C43.8463 22.7102 43.6941 22.5595 43.4999 22.4523C43.3057 22.3421 43.0883 22.2871 42.8478 22.2871C42.6072 22.2871 42.3884 22.3421 42.1913 22.4523C41.9971 22.5595 41.8435 22.7102 41.7304 22.9044C41.6203 23.0957 41.5652 23.3102 41.5652 23.5479C41.5652 23.7856 41.6203 24.0015 41.7304 24.1957C41.8435 24.387 41.9971 24.5377 42.1913 24.6479C42.3884 24.7551 42.6072 24.8087 42.8478 24.8087ZM46.3154 22.7653C46.5299 22.7653 46.7241 22.8146 46.898 22.9131C47.0719 23.0088 47.2081 23.145 47.3067 23.3218C47.4052 23.4986 47.4545 23.7001 47.4545 23.9261C47.4545 24.1551 47.4052 24.358 47.3067 24.5348C47.2081 24.7116 47.0719 24.8493 46.898 24.9478C46.727 25.0435 46.5328 25.0913 46.3154 25.0913C46.1299 25.0913 45.9618 25.0536 45.8111 24.9783C45.6633 24.9 45.5415 24.787 45.4459 24.6392V25.913H45.1372V22.7827H45.4328V23.2349C45.5256 23.0841 45.6473 22.9682 45.798 22.887C45.9517 22.8059 46.1241 22.7653 46.3154 22.7653ZM46.2937 24.8174C46.4531 24.8174 46.598 24.7812 46.7285 24.7087C46.8589 24.6334 46.9603 24.5276 47.0328 24.3913C47.1082 24.2551 47.1458 24.1 47.1458 23.9261C47.1458 23.7522 47.1082 23.5986 47.0328 23.4653C46.9603 23.3291 46.8589 23.2233 46.7285 23.1479C46.598 23.0725 46.4531 23.0349 46.2937 23.0349C46.1314 23.0349 45.985 23.0725 45.8546 23.1479C45.727 23.2233 45.6256 23.3291 45.5502 23.4653C45.4778 23.5986 45.4415 23.7522 45.4415 23.9261C45.4415 24.1 45.4778 24.2551 45.5502 24.3913C45.6256 24.5276 45.727 24.6334 45.8546 24.7087C45.985 24.7812 46.1314 24.8174 46.2937 24.8174ZM49.7351 23.0566H48.4264V25.0696H48.1177V22.7827H49.7351V23.0566ZM50.9681 22.7653C51.2667 22.7653 51.4956 22.8407 51.6551 22.9914C51.8145 23.1392 51.8942 23.3595 51.8942 23.6522V25.0696H51.5985V24.7131C51.529 24.8319 51.4261 24.9247 51.2899 24.9913C51.1565 25.058 50.9971 25.0913 50.8116 25.0913C50.5565 25.0913 50.3537 25.0305 50.2029 24.9087C50.0522 24.787 49.9769 24.6261 49.9769 24.4261C49.9769 24.2319 50.0464 24.0754 50.1855 23.9566C50.3276 23.8377 50.5522 23.7783 50.8594 23.7783H51.5855V23.6392C51.5855 23.4421 51.5304 23.2928 51.4203 23.1914C51.3101 23.087 51.1493 23.0349 50.9377 23.0349C50.7928 23.0349 50.6536 23.0595 50.5203 23.1088C50.387 23.1551 50.2725 23.2204 50.1769 23.3044L50.0377 23.074C50.1537 22.9754 50.2928 22.9001 50.4551 22.8479C50.6174 22.7928 50.7884 22.7653 50.9681 22.7653ZM50.8594 24.8478C51.0333 24.8478 51.1826 24.8087 51.3072 24.7305C51.4319 24.6493 51.5246 24.5334 51.5855 24.3826V24.0087H50.8681C50.4768 24.0087 50.2812 24.145 50.2812 24.4174C50.2812 24.5508 50.3319 24.6565 50.4334 24.7348C50.5348 24.8102 50.6768 24.8478 50.8594 24.8478ZM52.7159 22.7827H53.0246V23.7957H54.4637V22.7827H54.7724V25.0696H54.4637V24.0609H53.0246V25.0696H52.7159V22.7827ZM55.6498 22.7827H55.9585V24.6L57.4845 22.7827H57.7584V25.0696H57.4497V23.2522L55.928 25.0696H55.6498V22.7827ZM59.7094 23.8783C59.8717 23.916 59.9963 23.9812 60.0833 24.074C60.1731 24.1667 60.218 24.2797 60.218 24.4131C60.218 24.5464 60.1717 24.6652 60.0789 24.7696C59.9891 24.8739 59.8659 24.9551 59.7094 25.0131C59.5528 25.0681 59.3804 25.0957 59.192 25.0957C59.0268 25.0957 58.8645 25.0725 58.705 25.0261C58.5456 24.9768 58.4065 24.9058 58.2877 24.8131L58.392 24.5826C58.4964 24.6609 58.6181 24.7218 58.7572 24.7652C58.8963 24.8087 59.0369 24.8305 59.1789 24.8305C59.3905 24.8305 59.563 24.7913 59.6963 24.7131C59.8325 24.6319 59.9007 24.5232 59.9007 24.387C59.9007 24.2653 59.8456 24.1711 59.7354 24.1044C59.6253 24.0348 59.4746 24 59.2833 24H58.892V23.774H59.2659C59.4369 23.774 59.5746 23.7421 59.6789 23.6783C59.7833 23.6117 59.8354 23.5233 59.8354 23.4131C59.8354 23.2914 59.776 23.1957 59.6572 23.1262C59.5413 23.0566 59.3891 23.0218 59.2007 23.0218C58.9543 23.0218 58.7108 23.0841 58.4703 23.2088L58.3833 22.9696C58.6558 22.8276 58.9384 22.7566 59.2311 22.7566C59.405 22.7566 59.5615 22.7827 59.7007 22.8349C59.8427 22.8841 59.9528 22.9552 60.0311 23.0479C60.1122 23.1407 60.1528 23.2479 60.1528 23.3696C60.1528 23.4856 60.1122 23.5885 60.0311 23.6783C59.9528 23.7682 59.8456 23.8348 59.7094 23.8783ZM61.7057 22.7653C62.0043 22.7653 62.2333 22.8407 62.3927 22.9914C62.5521 23.1392 62.6318 23.3595 62.6318 23.6522V25.0696H62.3361V24.7131C62.2666 24.8319 62.1637 24.9247 62.0275 24.9913C61.8941 25.058 61.7347 25.0913 61.5492 25.0913C61.2942 25.0913 61.0913 25.0305 60.9405 24.9087C60.7898 24.787 60.7145 24.6261 60.7145 24.4261C60.7145 24.2319 60.784 24.0754 60.9231 23.9566C61.0652 23.8377 61.2898 23.7783 61.597 23.7783H62.3231V23.6392C62.3231 23.4421 62.268 23.2928 62.1579 23.1914C62.0478 23.087 61.8869 23.0349 61.6753 23.0349C61.5304 23.0349 61.3913 23.0595 61.2579 23.1088C61.1246 23.1551 61.0101 23.2204 60.9145 23.3044L60.7753 23.074C60.8913 22.9754 61.0304 22.9001 61.1927 22.8479C61.355 22.7928 61.526 22.7653 61.7057 22.7653ZM61.597 24.8478C61.7709 24.8478 61.9202 24.8087 62.0449 24.7305C62.1695 24.6493 62.2622 24.5334 62.3231 24.3826V24.0087H61.6057C61.2144 24.0087 61.0188 24.145 61.0188 24.4174C61.0188 24.5508 61.0695 24.6565 61.171 24.7348C61.2724 24.8102 61.4144 24.8478 61.597 24.8478ZM65.8361 24.8V25.6435H65.5448V25.0696H63.4535V22.7827H63.7622V24.8H65.1578V22.7827H65.4665V24.8H65.8361ZM66.4256 22.7827H66.7343V24.6L68.2603 22.7827H68.5342V25.0696H68.2255V23.2522L66.7038 25.0696H66.4256V22.7827ZM71.1753 22.7827V25.0696H70.8927V24.3131H70.1754H70.0884L69.558 25.0696H69.2232L69.7928 24.2696C69.616 24.2203 69.4797 24.1363 69.3841 24.0174C69.2884 23.8986 69.2406 23.7479 69.2406 23.5653C69.2406 23.3102 69.3276 23.116 69.5015 22.9827C69.6754 22.8494 69.9131 22.7827 70.2145 22.7827H71.1753ZM69.5537 23.574C69.5537 23.9131 69.7696 24.0827 70.2015 24.0827H70.8927V23.0566H70.2232C69.7768 23.0566 69.5537 23.2291 69.5537 23.574ZM75.2455 22.7827V25.0696H74.9368V23.0566H73.5021V25.0696H73.1934V22.7827H75.2455ZM77.0664 25.0913C76.8461 25.0913 76.6476 25.042 76.4708 24.9435C76.294 24.8421 76.1549 24.7029 76.0534 24.5261C75.952 24.3493 75.9012 24.1493 75.9012 23.9261C75.9012 23.703 75.952 23.503 76.0534 23.3262C76.1549 23.1494 76.294 23.0117 76.4708 22.9131C76.6476 22.8146 76.8461 22.7653 77.0664 22.7653C77.2867 22.7653 77.4853 22.8146 77.6621 22.9131C77.8389 23.0117 77.9765 23.1494 78.0751 23.3262C78.1765 23.503 78.2273 23.703 78.2273 23.9261C78.2273 24.1493 78.1765 24.3493 78.0751 24.5261C77.9765 24.7029 77.8389 24.8421 77.6621 24.9435C77.4853 25.042 77.2867 25.0913 77.0664 25.0913ZM77.0664 24.8174C77.2287 24.8174 77.3737 24.7812 77.5012 24.7087C77.6316 24.6334 77.7331 24.5276 77.8055 24.3913C77.878 24.2551 77.9142 24.1 77.9142 23.9261C77.9142 23.7522 77.878 23.5972 77.8055 23.4609C77.7331 23.3247 77.6316 23.2204 77.5012 23.1479C77.3737 23.0725 77.2287 23.0349 77.0664 23.0349C76.9041 23.0349 76.7577 23.0725 76.6273 23.1479C76.4998 23.2204 76.3983 23.3247 76.323 23.4609C76.2505 23.5972 76.2143 23.7522 76.2143 23.9261C76.2143 24.1 76.2505 24.2551 76.323 24.3913C76.3983 24.5276 76.4998 24.6334 76.6273 24.7087C76.7577 24.7812 76.9041 24.8174 77.0664 24.8174ZM80.2367 25.0696L79.5106 24.1131L78.7802 25.0696H78.4324L79.3367 23.8957L78.4759 22.7827H78.8237L79.5106 23.6783L80.1976 22.7827H80.5367L79.6759 23.8957L80.5889 25.0696H80.2367ZM81.9576 25.0913C81.7373 25.0913 81.5387 25.042 81.3619 24.9435C81.1851 24.8421 81.046 24.7029 80.9446 24.5261C80.8431 24.3493 80.7924 24.1493 80.7924 23.9261C80.7924 23.703 80.8431 23.503 80.9446 23.3262C81.046 23.1494 81.1851 23.0117 81.3619 22.9131C81.5387 22.8146 81.7373 22.7653 81.9576 22.7653C82.1779 22.7653 82.3764 22.8146 82.5532 22.9131C82.73 23.0117 82.8677 23.1494 82.9662 23.3262C83.0677 23.503 83.1184 23.703 83.1184 23.9261C83.1184 24.1493 83.0677 24.3493 82.9662 24.5261C82.8677 24.7029 82.73 24.8421 82.5532 24.9435C82.3764 25.042 82.1779 25.0913 81.9576 25.0913ZM81.9576 24.8174C82.1199 24.8174 82.2648 24.7812 82.3923 24.7087C82.5228 24.6334 82.6242 24.5276 82.6967 24.3913C82.7691 24.2551 82.8054 24.1 82.8054 23.9261C82.8054 23.7522 82.7691 23.5972 82.6967 23.4609C82.6242 23.3247 82.5228 23.2204 82.3923 23.1479C82.2648 23.0725 82.1199 23.0349 81.9576 23.0349C81.7953 23.0349 81.6489 23.0725 81.5185 23.1479C81.3909 23.2204 81.2895 23.3247 81.2141 23.4609C81.1417 23.5972 81.1054 23.7522 81.1054 23.9261C81.1054 24.1 81.1417 24.2551 81.2141 24.3913C81.2895 24.5276 81.3909 24.6334 81.5185 24.7087C81.6489 24.7812 81.7953 24.8174 81.9576 24.8174ZM85.9958 24.8V25.6217H85.7045V25.0696H83.6567V25.6217H83.3654V24.8H83.4958C83.6495 24.7913 83.7538 24.6783 83.8089 24.4609C83.8639 24.2435 83.9016 23.9392 83.9219 23.5479L83.9523 22.7827H85.6393V24.8H85.9958ZM84.2045 23.5653C84.19 23.8899 84.1625 24.158 84.1219 24.3696C84.0813 24.5783 84.0089 24.7218 83.9045 24.8H85.3306V23.0566H84.2306L84.2045 23.5653ZM87.5408 25.0913C87.3205 25.0913 87.122 25.042 86.9452 24.9435C86.7684 24.8421 86.6292 24.7029 86.5278 24.5261C86.4263 24.3493 86.3756 24.1493 86.3756 23.9261C86.3756 23.703 86.4263 23.503 86.5278 23.3262C86.6292 23.1494 86.7684 23.0117 86.9452 22.9131C87.122 22.8146 87.3205 22.7653 87.5408 22.7653C87.7611 22.7653 87.9596 22.8146 88.1364 22.9131C88.3132 23.0117 88.4509 23.1494 88.5495 23.3262C88.6509 23.503 88.7016 23.703 88.7016 23.9261C88.7016 24.1493 88.6509 24.3493 88.5495 24.5261C88.4509 24.7029 88.3132 24.8421 88.1364 24.9435C87.9596 25.042 87.7611 25.0913 87.5408 25.0913ZM87.5408 24.8174C87.7031 24.8174 87.848 24.7812 87.9756 24.7087C88.106 24.6334 88.2074 24.5276 88.2799 24.3913C88.3524 24.2551 88.3886 24.1 88.3886 23.9261C88.3886 23.7522 88.3524 23.5972 88.2799 23.4609C88.2074 23.3247 88.106 23.2204 87.9756 23.1479C87.848 23.0725 87.7031 23.0349 87.5408 23.0349C87.3785 23.0349 87.2321 23.0725 87.1017 23.1479C86.9741 23.2204 86.8727 23.3247 86.7973 23.4609C86.7249 23.5972 86.6886 23.7522 86.6886 23.9261C86.6886 24.1 86.7249 24.2551 86.7973 24.3913C86.8727 24.5276 86.9741 24.6334 87.1017 24.7087C87.2321 24.7812 87.3785 24.8174 87.5408 24.8174ZM90.8178 23.887C91.128 23.9595 91.283 24.1464 91.283 24.4479C91.283 24.6479 91.2091 24.8015 91.0613 24.9087C90.9135 25.016 90.6932 25.0696 90.4004 25.0696H89.3614V22.7827H90.37C90.6309 22.7827 90.8352 22.8334 90.983 22.9349C91.1309 23.0363 91.2048 23.1812 91.2048 23.3696C91.2048 23.4943 91.17 23.6015 91.1004 23.6914C91.0338 23.7783 90.9396 23.8435 90.8178 23.887ZM89.6613 23.8001H90.3483C90.5251 23.8001 90.6599 23.7667 90.7526 23.7001C90.8483 23.6334 90.8961 23.5363 90.8961 23.4088C90.8961 23.2812 90.8483 23.1856 90.7526 23.1218C90.6599 23.058 90.5251 23.0262 90.3483 23.0262H89.6613V23.8001ZM90.3874 24.8261C90.5845 24.8261 90.7323 24.7942 90.8309 24.7305C90.9294 24.6667 90.9787 24.5667 90.9787 24.4305C90.9787 24.2942 90.9338 24.1942 90.8439 24.1305C90.7541 24.0638 90.612 24.0305 90.4178 24.0305H89.6613V24.8261H90.3874ZM94.6008 23.887C94.911 23.9595 95.066 24.1464 95.066 24.4479C95.066 24.6479 94.9921 24.8015 94.8443 24.9087C94.6965 25.016 94.4762 25.0696 94.1834 25.0696H93.1443V22.7827H94.153C94.4139 22.7827 94.6182 22.8334 94.766 22.9349C94.9139 23.0363 94.9878 23.1812 94.9878 23.3696C94.9878 23.4943 94.953 23.6015 94.8834 23.6914C94.8168 23.7783 94.7226 23.8435 94.6008 23.887ZM93.4443 23.8001H94.1313C94.3081 23.8001 94.4429 23.7667 94.5356 23.7001C94.6313 23.6334 94.6791 23.5363 94.6791 23.4088C94.6791 23.2812 94.6313 23.1856 94.5356 23.1218C94.4429 23.058 94.3081 23.0262 94.1313 23.0262H93.4443V23.8001ZM94.1704 24.8261C94.3675 24.8261 94.5153 24.7942 94.6139 24.7305C94.7124 24.6667 94.7617 24.5667 94.7617 24.4305C94.7617 24.2942 94.7168 24.1942 94.6269 24.1305C94.5371 24.0638 94.395 24.0305 94.2008 24.0305H93.4443V24.8261H94.1704ZM98.5447 23.0566H97.236V25.0696H96.9273V22.7827H98.5447V23.0566ZM99.8281 25.0913C99.6078 25.0913 99.4093 25.042 99.2325 24.9435C99.0557 24.8421 98.9165 24.7029 98.8151 24.5261C98.7136 24.3493 98.6629 24.1493 98.6629 23.9261C98.6629 23.703 98.7136 23.503 98.8151 23.3262C98.9165 23.1494 99.0557 23.0117 99.2325 22.9131C99.4093 22.8146 99.6078 22.7653 99.8281 22.7653C100.048 22.7653 100.247 22.8146 100.424 22.9131C100.601 23.0117 100.738 23.1494 100.837 23.3262C100.938 23.503 100.989 23.703 100.989 23.9261C100.989 24.1493 100.938 24.3493 100.837 24.5261C100.738 24.7029 100.601 24.8421 100.424 24.9435C100.247 25.042 100.048 25.0913 99.8281 25.0913ZM99.8281 24.8174C99.9904 24.8174 100.135 24.7812 100.263 24.7087C100.393 24.6334 100.495 24.5276 100.567 24.3913C100.64 24.2551 100.676 24.1 100.676 23.9261C100.676 23.7522 100.64 23.5972 100.567 23.4609C100.495 23.3247 100.393 23.2204 100.263 23.1479C100.135 23.0725 99.9904 23.0349 99.8281 23.0349C99.6658 23.0349 99.5194 23.0725 99.389 23.1479C99.2615 23.2204 99.16 23.3247 99.0847 23.4609C99.0122 23.5972 98.976 23.7522 98.976 23.9261C98.976 24.1 99.0122 24.2551 99.0847 24.3913C99.16 24.5276 99.2615 24.6334 99.389 24.7087C99.5194 24.7812 99.6658 24.8174 99.8281 24.8174ZM102.827 22.7653C103.041 22.7653 103.236 22.8146 103.409 22.9131C103.583 23.0088 103.72 23.145 103.818 23.3218C103.917 23.4986 103.966 23.7001 103.966 23.9261C103.966 24.1551 103.917 24.358 103.818 24.5348C103.72 24.7116 103.583 24.8493 103.409 24.9478C103.238 25.0435 103.044 25.0913 102.827 25.0913C102.641 25.0913 102.473 25.0536 102.323 24.9783C102.175 24.9 102.053 24.787 101.957 24.6392V25.913H101.649V22.7827H101.944V23.2349C102.037 23.0841 102.159 22.9682 102.31 22.887C102.463 22.8059 102.636 22.7653 102.827 22.7653ZM102.805 24.8174C102.965 24.8174 103.109 24.7812 103.24 24.7087C103.37 24.6334 103.472 24.5276 103.544 24.3913C103.62 24.2551 103.657 24.1 103.657 23.9261C103.657 23.7522 103.62 23.5986 103.544 23.4653C103.472 23.3291 103.37 23.2233 103.24 23.1479C103.109 23.0725 102.965 23.0349 102.805 23.0349C102.643 23.0349 102.496 23.0725 102.366 23.1479C102.239 23.2233 102.137 23.3291 102.062 23.4653C101.989 23.5986 101.953 23.7522 101.953 23.9261C101.953 24.1 101.989 24.2551 102.062 24.3913C102.137 24.5276 102.239 24.6334 102.366 24.7087C102.496 24.7812 102.643 24.8174 102.805 24.8174ZM105.59 23.5914C105.877 23.5943 106.096 23.658 106.247 23.7827C106.397 23.9073 106.473 24.087 106.473 24.3218C106.473 24.5652 106.391 24.7522 106.229 24.8826C106.067 25.0131 105.835 25.0768 105.534 25.0739L104.629 25.0696V22.7827H104.938V23.5827L105.59 23.5914ZM106.855 22.7827H107.164V25.0696H106.855V22.7827ZM105.516 24.8392C105.728 24.8421 105.887 24.8 105.994 24.7131C106.105 24.6232 106.16 24.4928 106.16 24.3218C106.16 24.1537 106.106 24.029 105.999 23.9479C105.891 23.8667 105.731 23.8247 105.516 23.8218L104.938 23.8131V24.8305L105.516 24.8392Z" fill="white"/>
<defs>
<clipPath id="clip0">
<rect width="30.3335" height="30.3335" fill="white"/>
</clipPath>
</defs>
</svg>
