<svg width="220" height="61" fill="none" xmlns="http://www.w3.org/2000/svg"><g clip-path="url(#clip0)" fill="#2D383F"><path d="M22.34 39.73l5.351-5.619 6.087 5.619h10.434L27.624 23.476 11.17 39.73h11.17z"/><path d="M37.658 13.644l-7.893 8.026 5.217 5.351 2.676-2.675 14.648 14.581C48.962 47.823 40.4 54.177 30.3 54.177c-12.976 0-23.477-10.5-23.477-23.477C6.889 17.724 17.39 7.222 30.367 7.222c11.505 0 21.136 8.361 23.076 19.264l7.09 7.491c.134-1.07.2-2.207.2-3.277 0-8.093-3.143-15.719-8.895-21.47C46.086 3.476 38.46.332 30.367.332c-8.16 0-15.719 3.144-21.471 8.896C3.144 14.981 0 22.54 0 30.7c0 8.161 3.144 15.72 8.896 21.472 5.752 5.752 13.377 8.896 21.47 8.896 8.094 0 15.72-3.144 21.472-8.896 3.545-3.545 6.087-7.76 7.491-12.374.268-.803.468-1.672.67-2.475l-6.155-6.488-16.186-17.19z"/></g><path d="M86.328 15.828h5.147l-2.807 14.118h8.683l-.832 4.082H82.688l3.64-18.2zm15.869 0h5.148l-3.64 18.2h-5.148l3.64-18.2zm13.152 3.978l-.806 4.004h8.034l-.806 3.978h-8.008l-1.248 6.24h-5.148l3.64-18.2h14.248l-.806 3.978h-9.1zm16.604 0l-.598 3.068h8.086l-.754 3.848h-8.112l-.65 3.328h9.542l-.832 3.978h-14.586l3.64-18.2h14.248l-.806 3.978h-9.178zm16.247.104h-5.59l.832-4.082h16.302l-.832 4.082h-5.564l-2.834 14.118h-5.148L148.2 19.91zm19.396 14.482c-1.838 0-3.441-.338-4.81-1.014-1.352-.676-2.401-1.62-3.146-2.834-.728-1.213-1.092-2.6-1.092-4.16 0-2.08.476-3.952 1.43-5.616.97-1.664 2.314-2.964 4.03-3.9 1.733-.936 3.7-1.404 5.902-1.404 1.837 0 3.432.338 4.784 1.014 1.369.676 2.418 1.621 3.146 2.834.745 1.214 1.118 2.6 1.118 4.16 0 2.08-.486 3.952-1.456 5.616-.954 1.664-2.297 2.964-4.03 3.9-1.716.936-3.675 1.404-5.876 1.404zm.442-4.264c1.144 0 2.149-.286 3.016-.858a5.698 5.698 0 002.002-2.288c.468-.97.702-2.036.702-3.198 0-1.23-.382-2.21-1.144-2.938-.746-.745-1.794-1.118-3.146-1.118-1.144 0-2.15.286-3.016.858a5.653 5.653 0 00-2.002 2.314c-.468.954-.702 2.011-.702 3.172 0 1.231.372 2.219 1.118 2.964.762.728 1.82 1.092 3.172 1.092zm20.584 4.264c-1.577 0-2.938-.26-4.082-.78-1.144-.537-2.019-1.3-2.626-2.288-.607-.988-.91-2.149-.91-3.484 0-.554.069-1.196.208-1.924l2.028-10.088h5.148l-2.002 10.01a7.34 7.34 0 00-.156 1.43c0 1.907 1.005 2.86 3.016 2.86 1.092 0 1.95-.329 2.574-.988.641-.676 1.118-1.776 1.43-3.302l2.002-10.01h5.07l-2.054 10.322c-1.109 5.495-4.325 8.242-9.646 8.242zm30.319-12.766c0 1.664-.442 3.103-1.326 4.316-.884 1.196-2.123 2.072-3.718 2.626l3.094 5.46h-5.382l-2.704-4.836h-2.6l-.962 4.836h-5.148l3.64-18.2h7.774c2.323 0 4.126.512 5.408 1.534 1.283 1.023 1.924 2.444 1.924 4.264zm-5.2.494c0-.745-.251-1.3-.754-1.664-.502-.381-1.204-.572-2.106-.572h-2.704l-1.092 5.33h3.068c1.144 0 2.028-.268 2.652-.806.624-.537.936-1.3.936-2.288zM85.967 51.524c-.603 0-1.15-.133-1.643-.4a3.026 3.026 0 01-1.148-1.113 3.094 3.094 0 01-.409-1.582c0-.586.136-1.113.409-1.583.278-.47.66-.837 1.148-1.104a3.34 3.34 0 011.643-.409c.603 0 1.145.134 1.626.4.487.267.87.638 1.148 1.113.278.47.417.997.417 1.583a3.09 3.09 0 01-.417 1.591c-.278.47-.661.838-1.148 1.104-.481.267-1.023.4-1.626.4zm0-.574c.481 0 .916-.107 1.304-.321a2.4 2.4 0 00.913-.905c.22-.388.33-.82.33-1.295 0-.476-.11-.904-.33-1.287a2.32 2.32 0 00-.913-.905 2.598 2.598 0 00-1.304-.33c-.481 0-.919.11-1.313.33a2.382 2.382 0 00-.922.905c-.22.383-.33.811-.33 1.287 0 .475.11.907.33 1.295.226.383.534.684.922.905.394.214.832.321 1.313.321zm6.935-4.086c.43 0 .818.098 1.165.295.348.192.62.464.818.818.197.353.295.756.295 1.208 0 .458-.098.864-.295 1.218-.197.353-.47.629-.818.826-.341.191-.73.287-1.165.287-.37 0-.707-.076-1.008-.226a1.947 1.947 0 01-.73-.679v2.548h-.618V46.9h.591v.904a1.91 1.91 0 01.73-.696 2.18 2.18 0 011.035-.243zm-.043 4.104c.319 0 .609-.073.87-.218.26-.15.463-.362.608-.634a1.89 1.89 0 00.226-.93 1.84 1.84 0 00-.226-.922 1.567 1.567 0 00-.609-.635 1.71 1.71 0 00-.87-.226c-.324 0-.617.075-.877.226a1.65 1.65 0 00-.61.635 1.9 1.9 0 00-.216.921c0 .348.072.658.217.93.15.273.354.485.609.636.26.144.553.217.878.217zm6.883-3.522h-2.618v4.026h-.617v-4.574h3.235v.548zm2.466-.582c.597 0 1.055.15 1.374.452.318.295.478.736.478 1.322v2.834h-.591v-.713c-.14.238-.345.423-.618.557-.266.133-.585.2-.956.2-.51 0-.916-.122-1.218-.366a1.18 1.18 0 01-.452-.965c0-.388.139-.701.418-.939.284-.238.733-.356 1.347-.356h1.452v-.279c0-.394-.11-.692-.33-.895-.22-.209-.542-.313-.965-.313-.29 0-.568.049-.835.148a2.038 2.038 0 00-.687.39l-.278-.46a2.41 2.41 0 01.835-.452 3.17 3.17 0 011.026-.165zm-.218 4.165c.348 0 .647-.079.896-.235.249-.162.435-.394.556-.696v-.748h-1.434c-.783 0-1.174.273-1.174.818a.76.76 0 00.304.635c.203.15.487.226.852.226zm3.713-4.13h.618v2.025h2.878v-2.026h.617v4.574h-.617v-2.017h-2.878v2.017h-.618v-4.574zm5.868 0h.617v3.634l3.052-3.635h.548v4.574h-.617v-3.635l-3.043 3.635h-.557v-4.574zm8.119 2.19c.325.076.574.206.748.392.18.185.27.411.27.678 0 .267-.093.505-.279.713a1.75 1.75 0 01-.739.487c-.313.11-.658.165-1.035.165a3.46 3.46 0 01-.973-.139 2.572 2.572 0 01-.835-.426l.209-.46a2.4 2.4 0 00.73.364c.278.087.559.13.843.13.424 0 .768-.077 1.035-.234.273-.162.409-.38.409-.652a.626.626 0 00-.331-.565c-.22-.14-.521-.209-.904-.209h-.783v-.452h.748c.342 0 .618-.064.826-.191.209-.134.313-.31.313-.53 0-.244-.118-.435-.356-.575-.232-.139-.536-.208-.913-.208-.493 0-.98.124-1.461.373l-.174-.478a3.624 3.624 0 011.696-.426c.348 0 .661.052.939.157.284.098.504.24.661.426.162.185.243.4.243.643a.895.895 0 01-.243.618 1.39 1.39 0 01-.644.4zm3.993-2.225c.597 0 1.055.15 1.374.452.319.295.478.736.478 1.322v2.834h-.591v-.713a1.41 1.41 0 01-.618.557c-.266.133-.585.2-.956.2-.51 0-.916-.122-1.217-.366a1.178 1.178 0 01-.453-.965c0-.388.14-.701.418-.939.284-.238.733-.356 1.348-.356h1.452v-.279c0-.394-.11-.692-.331-.895-.22-.209-.542-.313-.965-.313-.29 0-.568.049-.835.148a2.058 2.058 0 00-.687.39l-.278-.46a2.41 2.41 0 01.835-.452c.325-.11.667-.165 1.026-.165zm-.217 4.165c.347 0 .646-.079.895-.235.249-.162.435-.394.557-.696v-.748h-1.435c-.783 0-1.174.273-1.174.818 0 .267.102.478.304.635.203.15.487.226.853.226zm8.478-.096v1.687h-.583v-1.148h-4.182v-4.574h.617v4.035h2.791v-4.035h.618v4.035h.739zm1.179-4.035h.617v3.635l3.052-3.635h.548v4.574h-.617v-3.635l-3.044 3.635h-.556v-4.574zm9.499 0v4.574h-.565V49.96h-1.609l-1.061 1.513h-.669l1.139-1.6c-.354-.098-.626-.266-.817-.504-.192-.238-.287-.54-.287-.904 0-.51.174-.899.521-1.166.348-.266.824-.4 1.426-.4h1.922zm-3.243 1.583c0 .678.432 1.017 1.295 1.017h1.383v-2.052h-1.339c-.893 0-1.339.345-1.339 1.035zm11.383-1.583v4.574h-.617v-4.026h-2.869v4.026h-.618v-4.574h4.104zm3.642 4.618c-.44 0-.837-.099-1.191-.296a2.218 2.218 0 01-.835-.835 2.366 2.366 0 01-.304-1.2c0-.446.101-.846.304-1.2.203-.353.481-.629.835-.826a2.406 2.406 0 011.191-.295c.441 0 .838.098 1.192.295a2.1 2.1 0 01.826.826c.203.354.304.754.304 1.2 0 .447-.101.847-.304 1.2a2.16 2.16 0 01-.826.835 2.407 2.407 0 01-1.192.296zm0-.548c.325 0 .615-.073.87-.218.261-.15.464-.362.609-.634.144-.273.217-.583.217-.93 0-.349-.073-.659-.217-.931a1.51 1.51 0 00-.609-.626 1.677 1.677 0 00-.87-.226c-.324 0-.617.075-.878.226a1.585 1.585 0 00-.609.626 1.961 1.961 0 00-.217.93c0 .348.073.658.217.93.151.273.354.485.609.636.261.144.554.217.878.217zm6.341.504l-1.452-1.913-1.461 1.913h-.696l1.809-2.348-1.722-2.226h.696l1.374 1.792 1.374-1.792h.678l-1.722 2.226 1.826 2.348h-.704zm3.442.044c-.441 0-.838-.099-1.192-.296a2.222 2.222 0 01-.834-.835 2.367 2.367 0 01-.305-1.2c0-.446.102-.846.305-1.2a2.16 2.16 0 01.834-.826 2.407 2.407 0 011.192-.295c.44 0 .837.098 1.191.295.354.197.629.473.826.826.203.354.304.754.304 1.2 0 .447-.101.847-.304 1.2a2.153 2.153 0 01-.826.835 2.406 2.406 0 01-1.191.296zm0-.548c.324 0 .614-.073.869-.218.261-.15.464-.362.609-.634a1.95 1.95 0 00.217-.93 1.95 1.95 0 00-.217-.931 1.51 1.51 0 00-.609-.626 1.676 1.676 0 00-.869-.226c-.325 0-.618.075-.879.226a1.576 1.576 0 00-.608.626 1.95 1.95 0 00-.218.93c0 .348.073.658.218.93.15.273.353.485.608.636.261.144.554.217.879.217zm8.076-.035v1.644h-.583v-1.105h-4.095v1.105h-.583v-1.644h.261c.307-.017.516-.243.626-.678.11-.435.186-1.044.226-1.826l.061-1.53h3.374v4.034h.713zm-3.582-2.47c-.029.65-.085 1.186-.166 1.61-.081.417-.226.703-.434.86h2.852v-3.487h-2.2l-.052 1.018zm6.672 3.053c-.44 0-.838-.099-1.191-.296a2.218 2.218 0 01-.835-.835 2.366 2.366 0 01-.304-1.2c0-.446.101-.846.304-1.2.203-.353.481-.629.835-.826a2.404 2.404 0 011.191-.295 2.4 2.4 0 011.191.295c.354.197.629.473.826.826.203.354.305.754.305 1.2 0 .447-.102.847-.305 1.2a2.153 2.153 0 01-.826.835 2.4 2.4 0 01-1.191.296zm0-.548c.325 0 .615-.073.87-.218.26-.15.463-.362.608-.634a1.95 1.95 0 00.218-.93 1.95 1.95 0 00-.218-.931 1.513 1.513 0 00-.608-.626 1.677 1.677 0 00-.87-.226 1.72 1.72 0 00-.878.226 1.585 1.585 0 00-.609.626 1.95 1.95 0 00-.217.93c0 .348.072.658.217.93.151.273.354.485.609.636.261.144.553.217.878.217zm6.554-1.861c.62.145.931.519.931 1.122 0 .4-.148.707-.444.921-.296.215-.736.322-1.322.322h-2.078v-4.574h2.018c.521 0 .93.102 1.226.305.295.203.443.492.443.87 0 .248-.07.463-.209.643a1.192 1.192 0 01-.565.391zm-2.313-.174h1.374c.354 0 .623-.066.809-.2.191-.133.287-.327.287-.582 0-.256-.096-.447-.287-.574-.186-.128-.455-.192-.809-.192h-1.374v1.548zm1.452 2.052c.394 0 .69-.063.887-.191.197-.128.296-.328.296-.6 0-.273-.09-.473-.27-.6-.179-.133-.463-.2-.852-.2h-1.513v1.591h1.452zm8.427-1.878c.62.145.931.519.931 1.122 0 .4-.148.707-.444.921-.296.215-.736.322-1.322.322h-2.078v-4.574h2.018c.521 0 .93.102 1.226.305.295.203.443.492.443.87 0 .248-.07.463-.209.643a1.192 1.192 0 01-.565.391zm-2.313-.174h1.374c.354 0 .623-.066.809-.2.191-.133.287-.327.287-.582 0-.256-.096-.447-.287-.574-.186-.128-.455-.192-.809-.192h-1.374v1.548zm1.452 2.052c.394 0 .69-.063.887-.191.197-.128.296-.328.296-.6 0-.273-.09-.473-.27-.6-.179-.133-.463-.2-.852-.2h-1.513v1.591h1.452zm8.749-3.539h-2.617v4.026h-.618v-4.574h3.235v.548zm2.567 4.07c-.441 0-.838-.099-1.192-.296a2.222 2.222 0 01-.834-.835 2.367 2.367 0 01-.305-1.2c0-.446.102-.846.305-1.2a2.16 2.16 0 01.834-.826 2.407 2.407 0 011.192-.295c.44 0 .837.098 1.191.295.354.197.629.473.826.826.203.354.304.754.304 1.2 0 .447-.101.847-.304 1.2a2.153 2.153 0 01-.826.835 2.406 2.406 0 01-1.191.296zm0-.548c.324 0 .614-.073.869-.218.261-.15.464-.362.609-.634a1.95 1.95 0 00.217-.93 1.95 1.95 0 00-.217-.931 1.51 1.51 0 00-.609-.626 1.676 1.676 0 00-.869-.226c-.325 0-.618.075-.879.226a1.583 1.583 0 00-.608.626 1.95 1.95 0 00-.218.93c0 .348.073.658.218.93.151.273.353.485.608.636.261.144.554.217.879.217zm5.997-4.104c.429 0 .818.098 1.165.295.348.192.621.464.818.818.197.353.295.756.295 1.208 0 .458-.098.864-.295 1.218-.197.353-.47.629-.818.826-.342.191-.73.287-1.165.287a2.22 2.22 0 01-1.008-.226 1.951 1.951 0 01-.731-.679v2.548h-.617V46.9h.591v.904c.186-.302.429-.534.731-.696a2.179 2.179 0 011.034-.243zm-.043 4.104c.319 0 .608-.073.869-.218.261-.15.464-.362.609-.634.151-.273.226-.583.226-.93 0-.349-.075-.656-.226-.922a1.567 1.567 0 00-.609-.635 1.705 1.705 0 00-.869-.226 1.72 1.72 0 00-.878.226 1.64 1.64 0 00-.609.635 1.898 1.898 0 00-.217.921c0 .348.072.658.217.93.151.273.354.485.609.636.26.144.553.217.878.217zm5.57-2.452c.573.006 1.011.133 1.313.382.301.25.452.609.452 1.079 0 .487-.163.86-.487 1.121-.325.261-.789.389-1.391.383l-1.809-.009v-4.574h.617v1.6l1.305.018zm2.53-1.618h.617v4.574h-.617v-4.574zm-2.678 4.113c.423.006.742-.078.956-.252.221-.18.331-.44.331-.782 0-.337-.108-.586-.322-.748-.215-.163-.536-.247-.965-.252l-1.157-.018v2.035l1.157.017z" fill="#2D383F"/><defs><clipPath id="clip0"><path fill="#fff" d="M0 .333h60.667V61H0z"/></clipPath></defs></svg>